Niagara-Engraved.ufo
<glyph name="exclam" format="1">
  <advance width="156"/>
  <unicode hex="0021"/>
  <outline>
    <contour>
      <point x="118" y="416" type="line"/>
      <point x="93" y="150" type="line"/>
      <point x="63" y="150" type="line"/>
      <point x="38" y="416" type="line"/>
      <point x="38" y="700" type="line"/>
      <point x="118" y="700" type="line"/>
    </contour>
    <contour>
      <point x="118" y="0" type="line"/>
      <point x="38" y="0" type="line"/>
      <point x="38" y="120" type="line"/>
      <point x="118" y="120" type="line"/>
    </contour>
    <contour>
      <point x="78" y="168" type="line"/>
      <point x="78" y="682" type="line"/>
      <point x="58" y="682" type="line"/>
      <point x="58" y="416" type="line"/>
      <point x="73" y="168" type="line"/>
    </contour>
    <contour>
      <point x="78" y="16" type="line"/>
      <point x="78" y="104" type="line"/>
      <point x="58" y="104" type="line"/>
      <point x="58" y="16" type="line"/>
    </contour>
  </outline>
</glyph>
<glyph name="quotedbl" format="1">
  <advance width="240"/>
  <unicode hex="0022"/>
  <outline>
    <contour>
      <point x="214" y="682" type="line"/>
      <point x="190" y="490" type="line"/>
      <point x="158" y="490" type="line"/>
      <point x="134" y="682" type="line"/>
      <point x="134" y="700" type="line"/>
      <point x="214" y="700" type="line"/>
    </contour>
    <contour>
      <point x="106" y="682" type="line"/>
      <point x="82" y="490" type="line"/>
      <point x="50" y="490" type="line"/>
      <point x="26" y="682" type="line"/>
      <point x="26" y="700" type="line"/>
      <point x="106" y="700" type="line"/>
    </contour>
    <contour>
      <point x="174" y="505" type="line"/>
      <point x="174" y="682" type="line"/>
      <point x="154" y="682" type="line"/>
      <point x="169" y="505" type="line"/>
    </contour>
    <contour>
      <point x="66" y="505" type="line"/>
      <point x="66" y="682" type="line"/>
      <point x="46" y="682" type="line"/>
      <point x="61" y="505" type="line"/>
    </contour>
  </outline>
</glyph>
<glyph name="dollar" format="1">
  <advance width="282"/>
  <unicode hex="0024"/>
  <outline>
    <contour>
      <point x="256" y="102" type="line" smooth="yes"/>
      <point x="256" y="49"/>
      <point x="213" y="6"/>
      <point x="153" y="1" type="curve"/>
      <point x="153" y="-60" type="line"/>
      <point x="129" y="-60" type="line"/>
      <point x="129" y="0" type="line"/>
      <point x="69" y="6"/>
      <point x="26" y="49"/>
      <point x="26" y="102" type="curve" smooth="yes"/>
      <point x="26" y="210" type="line"/>
      <point x="106" y="210" type="line"/>
      <point x="106" y="58" type="line" smooth="yes"/>
      <point x="106" y="36"/>
      <point x="119" y="18"/>
      <point x="141" y="18" type="curve" smooth="yes"/>
      <point x="163" y="18"/>
      <point x="176" y="36"/>
      <point x="176" y="58" type="curve" smooth="yes"/>
      <point x="176" y="175" type="line" smooth="yes"/>
      <point x="176" y="211"/>
      <point x="171" y="232"/>
      <point x="152" y="262" type="curve" smooth="yes"/>
      <point x="52" y="418" type="line" smooth="yes"/>
      <point x="33" y="448"/>
      <point x="26" y="474"/>
      <point x="26" y="508" type="curve" smooth="yes"/>
      <point x="26" y="598" type="line" smooth="yes"/>
      <point x="26" y="651"/>
      <point x="69" y="694"/>
      <point x="129" y="699" type="curve"/>
      <point x="129" y="760" type="line"/>
      <point x="153" y="760" type="line"/>
      <point x="153" y="699" type="line"/>
      <point x="213" y="694"/>
      <point x="256" y="651"/>
      <point x="256" y="598" type="curve" smooth="yes"/>
      <point x="256" y="490" type="line"/>
      <point x="176" y="490" type="line"/>
      <point x="176" y="642" type="line" smooth="yes"/>
      <point x="176" y="664"/>
      <point x="163" y="682"/>
      <point x="141" y="682" type="curve" smooth="yes"/>
      <point x="119" y="682"/>
      <point x="106" y="664"/>
      <point x="106" y="642" type="curve" smooth="yes"/>
      <point x="106" y="530" type="line" smooth="yes"/>
      <point x="106" y="494"/>
      <point x="111" y="473"/>
      <point x="130" y="443" type="curve" smooth="yes"/>
      <point x="230" y="287" type="line" smooth="yes"/>
      <point x="249" y="257"/>
      <point x="256" y="231"/>
      <point x="256" y="197" type="curve" smooth="yes"/>
    </contour>
    <contour>
      <point x="216" y="508" type="line"/>
      <point x="216" y="614" type="line" smooth="yes"/>
      <point x="216" y="643"/>
      <point x="202" y="663"/>
      <point x="180" y="677" type="curve"/>
      <point x="193" y="662"/>
      <point x="196" y="647"/>
      <point x="196" y="628" type="curve" smooth="yes"/>
      <point x="196" y="508" type="line"/>
    </contour>
    <contour>
      <point x="216" y="86" type="curve" smooth="yes"/>
      <point x="216" y="186" type="line" smooth="yes"/>
      <point x="216" y="219"/>
      <point x="210" y="245"/>
      <point x="191" y="275" type="curve" smooth="yes"/>
      <point x="91" y="430" type="line" smooth="yes"/>
      <point x="72" y="460"/>
      <point x="66" y="485"/>
      <point x="66" y="519" type="curve" smooth="yes"/>
      <point x="66" y="617" type="line" smooth="yes"/>
      <point x="66" y="636"/>
      <point x="68" y="649"/>
      <point x="79" y="665" type="curve"/>
      <point x="60" y="652"/>
      <point x="46" y="633"/>
      <point x="46" y="605" type="curve" smooth="yes"/>
      <point x="46" y="514" type="line" smooth="yes"/>
      <point x="46" y="481"/>
      <point x="52" y="455"/>
      <point x="71" y="425" type="curve" smooth="yes"/>
      <point x="171" y="270" type="line" smooth="yes"/>
      <point x="190" y="240"/>
      <point x="196" y="215"/>
      <point x="196" y="181" type="curve" smooth="yes"/>
      <point x="196" y="72" type="line" smooth="yes"/>
      <point x="196" y="53"/>
      <point x="193" y="38"/>
      <point x="180" y="23" type="curve"/>
      <point x="202" y="37"/>
      <point x="216" y="57"/>
    </contour>
    <contour>
      <point x="79" y="35" type="curve"/>
      <point x="68" y="51"/>
      <point x="66" y="64"/>
      <point x="66" y="83" type="curve" smooth="yes"/>
      <point x="66" y="192" type="line"/>
      <point x="46" y="192" type="line"/>
      <point x="46" y="95" type="line" smooth="yes"/>
      <point x="46" y="67"/>
      <point x="60" y="48"/>
    </contour>
  </outline>
</glyph>
<glyph name="percent" format="1">
  <advance width="485"/>
  <unicode hex="0025"/>
  <outline>
    <contour>
      <point x="215" y="381" type="line" smooth="yes"/>
      <point x="215" y="334"/>
      <point x="175" y="295"/>
      <point x="119" y="295" type="curve" smooth="yes"/>
      <point x="63" y="295"/>
      <point x="23" y="334"/>
      <point x="23" y="381" type="curve" smooth="yes"/>
      <point x="23" y="619" type="line" smooth="yes"/>
      <point x="23" y="666"/>
      <point x="63" y="705"/>
      <point x="119" y="705" type="curve" smooth="yes"/>
      <point x="175" y="705"/>
      <point x="215" y="666"/>
      <point x="215" y="619" type="curve" smooth="yes"/>
    </contour>
    <contour>
      <point x="384" y="700" type="line"/>
      <point x="124" y="0" type="line"/>
      <point x="101" y="0" type="line"/>
      <point x="361" y="700" type="line"/>
    </contour>
    <contour>
      <point x="462" y="81" type="line" smooth="yes"/>
      <point x="462" y="34"/>
      <point x="422" y="-5"/>
      <point x="366" y="-5" type="curve" smooth="yes"/>
      <point x="310" y="-5"/>
      <point x="270" y="34"/>
      <point x="270" y="81" type="curve" smooth="yes"/>
      <point x="270" y="319" type="line" smooth="yes"/>
      <point x="270" y="366"/>
      <point x="310" y="405"/>
      <point x="366" y="405" type="curve" smooth="yes"/>
      <point x="422" y="405"/>
      <point x="462" y="366"/>
      <point x="462" y="319" type="curve" smooth="yes"/>
    </contour>
    <contour>
      <point x="181" y="361" type="curve" smooth="yes"/>
      <point x="181" y="639" type="line" smooth="yes"/>
      <point x="181" y="659"/>
      <point x="171" y="674"/>
      <point x="153" y="684" type="curve"/>
      <point x="163" y="671"/>
      <point x="164" y="661"/>
      <point x="164" y="647" type="curve" smooth="yes"/>
      <point x="164" y="353" type="line" smooth="yes"/>
      <point x="164" y="339"/>
      <point x="163" y="329"/>
      <point x="153" y="316" type="curve"/>
      <point x="171" y="326"/>
      <point x="181" y="341"/>
    </contour>
    <contour>
      <point x="146" y="345" type="curve" smooth="yes"/>
      <point x="146" y="655" type="line" smooth="yes"/>
      <point x="146" y="673"/>
      <point x="137" y="687"/>
      <point x="119" y="687" type="curve" smooth="yes"/>
      <point x="101" y="687"/>
      <point x="92" y="673"/>
      <point x="92" y="655" type="curve" smooth="yes"/>
      <point x="92" y="345" type="line" smooth="yes"/>
      <point x="92" y="327"/>
      <point x="101" y="313"/>
      <point x="119" y="313" type="curve" smooth="yes"/>
      <point x="137" y="313"/>
      <point x="146" y="327"/>
    </contour>
    <contour>
      <point x="428" y="61" type="curve" smooth="yes"/>
      <point x="428" y="339" type="line" smooth="yes"/>
      <point x="428" y="359"/>
      <point x="418" y="374"/>
      <point x="400" y="384" type="curve"/>
      <point x="410" y="371"/>
      <point x="411" y="361"/>
      <point x="411" y="347" type="curve" smooth="yes"/>
      <point x="411" y="53" type="line" smooth="yes"/>
      <point x="411" y="39"/>
      <point x="410" y="29"/>
      <point x="400" y="16" type="curve"/>
      <point x="418" y="26"/>
      <point x="428" y="41"/>
    </contour>
    <contour>
      <point x="393" y="45" type="curve" smooth="yes"/>
      <point x="393" y="355" type="line" smooth="yes"/>
      <point x="393" y="373"/>
      <point x="384" y="387"/>
      <point x="366" y="387" type="curve" smooth="yes"/>
      <point x="348" y="387"/>
      <point x="339" y="373"/>
      <point x="339" y="355" type="curve" smooth="yes"/>
      <point x="339" y="45" type="line" smooth="yes"/>
      <point x="339" y="27"/>
      <point x="348" y="13"/>
      <point x="366" y="13" type="curve" smooth="yes"/>
      <point x="384" y="13"/>
      <point x="393" y="27"/>
    </contour>
    <contour>
      <point x="68" y="323" type="curve"/>
      <point x="59" y="337"/>
      <point x="58" y="351"/>
      <point x="58" y="365" type="curve" smooth="yes"/>
      <point x="58" y="635" type="line" smooth="yes"/>
      <point x="58" y="649"/>
      <point x="59" y="663"/>
      <point x="68" y="677" type="curve"/>
      <point x="51" y="664"/>
      <point x="41" y="647"/>
      <point x="41" y="627" type="curve" smooth="yes"/>
      <point x="41" y="373" type="line" smooth="yes"/>
      <point x="41" y="353"/>
      <point x="51" y="336"/>
    </contour>
    <contour>
      <point x="315" y="23" type="curve"/>
      <point x="306" y="37"/>
      <point x="305" y="51"/>
      <point x="305" y="65" type="curve" smooth="yes"/>
      <point x="305" y="335" type="line" smooth="yes"/>
      <point x="305" y="349"/>
      <point x="306" y="363"/>
      <point x="315" y="377" type="curve"/>
      <point x="298" y="364"/>
      <point x="288" y="347"/>
      <point x="288" y="327" type="curve" smooth="yes"/>
      <point x="288" y="73" type="line" smooth="yes"/>
      <point x="288" y="53"/>
      <point x="298" y="36"/>
    </contour>
  </outline>
</glyph>
<glyph name="ampersand" format="1">
  <advance width="308"/>
  <unicode hex="0026"/>
  <outline>
    <contour>
      <point x="295" y="361" type="line"/>
      <point x="270" y="361" type="line"/>
      <point x="270" y="97" type="line" smooth="yes"/>
      <point x="270" y="41"/>
      <point x="216" y="-5"/>
      <point x="150" y="-5" type="curve" smooth="yes"/>
      <point x="84" y="-5"/>
      <point x="30" y="41"/>
      <point x="30" y="97" type="curve" smooth="yes"/>
      <point x="30" y="277" type="line" smooth="yes"/>
      <point x="30" y="318"/>
      <point x="59" y="353"/>
      <point x="100" y="370" type="curve"/>
      <point x="59" y="386"/>
      <point x="30" y="422"/>
      <point x="30" y="463" type="curve" smooth="yes"/>
      <point x="30" y="603" type="line" smooth="yes"/>
      <point x="30" y="659"/>
      <point x="84" y="705"/>
      <point x="150" y="705" type="curve" smooth="yes"/>
      <point x="216" y="705"/>
      <point x="270" y="659"/>
      <point x="270" y="603" type="curve" smooth="yes"/>
      <point x="270" y="490" type="line"/>
      <point x="190" y="490" type="line"/>
      <point x="190" y="647" type="line" smooth="yes"/>
      <point x="190" y="669"/>
      <point x="172" y="687"/>
      <point x="150" y="687" type="curve" smooth="yes"/>
      <point x="128" y="687"/>
      <point x="110" y="669"/>
      <point x="110" y="647" type="curve" smooth="yes"/>
      <point x="110" y="419" type="line" smooth="yes"/>
      <point x="110" y="397"/>
      <point x="128" y="379"/>
      <point x="150" y="379" type="curve" smooth="yes"/>
      <point x="295" y="379" type="line"/>
    </contour>
    <contour>
      <point x="230" y="508" type="line"/>
      <point x="230" y="619" type="line" smooth="yes"/>
      <point x="230" y="648"/>
      <point x="216" y="668"/>
      <point x="194" y="682" type="curve"/>
      <point x="207" y="667"/>
      <point x="210" y="652"/>
      <point x="210" y="633" type="curve" smooth="yes"/>
      <point x="210" y="508" type="line"/>
    </contour>
    <contour>
      <point x="86" y="396" type="curve"/>
      <point x="73" y="411"/>
      <point x="70" y="429"/>
      <point x="70" y="448" type="curve" smooth="yes"/>
      <point x="70" y="622" type="line" smooth="yes"/>
      <point x="70" y="641"/>
      <point x="72" y="654"/>
      <point x="83" y="670" type="curve"/>
      <point x="64" y="657"/>
      <point x="50" y="638"/>
      <point x="50" y="610" type="curve" smooth="yes"/>
      <point x="50" y="462" type="line" smooth="yes"/>
      <point x="50" y="433"/>
      <point x="64" y="410"/>
    </contour>
    <contour>
      <point x="230" y="81" type="curve" smooth="yes"/>
      <point x="230" y="361" type="line"/>
      <point x="210" y="361" type="line"/>
      <point x="210" y="67" type="line" smooth="yes"/>
      <point x="210" y="48"/>
      <point x="207" y="33"/>
      <point x="194" y="18" type="curve"/>
      <point x="216" y="32"/>
      <point x="230" y="52"/>
    </contour>
    <contour>
      <point x="190" y="53" type="curve" smooth="yes"/>
      <point x="190" y="361" type="line"/>
      <point x="150" y="361" type="line" smooth="yes"/>
      <point x="128" y="361"/>
      <point x="110" y="343"/>
      <point x="110" y="321" type="curve" smooth="yes"/>
      <point x="110" y="53" type="line" smooth="yes"/>
      <point x="110" y="31"/>
      <point x="128" y="13"/>
      <point x="150" y="13" type="curve" smooth="yes"/>
      <point x="172" y="13"/>
      <point x="190" y="31"/>
    </contour>
    <contour>
      <point x="86" y="344" type="curve"/>
      <point x="64" y="330"/>
      <point x="50" y="307"/>
      <point x="50" y="278" type="curve" smooth="yes"/>
      <point x="50" y="90" type="line" smooth="yes"/>
      <point x="50" y="62"/>
      <point x="64" y="43"/>
      <point x="83" y="30" type="curve"/>
      <point x="72" y="46"/>
      <point x="70" y="59"/>
      <point x="70" y="78" type="curve" smooth="yes"/>
      <point x="70" y="292" type="line" smooth="yes"/>
      <point x="70" y="311"/>
      <point x="73" y="329"/>
    </contour>
  </outline>
</glyph>
<glyph name="quotesingle" format="1">
  <advance width="132"/>
  <unicode hex="0027"/>
  <outline>
    <contour>
      <point x="106" y="682" type="line"/>
      <point x="82" y="490" type="line"/>
      <point x="50" y="490" type="line"/>
      <point x="26" y="682" type="line"/>
      <point x="26" y="700" type="line"/>
      <point x="106" y="700" type="line"/>
    </contour>
    <contour>
      <point x="66" y="505" type="line"/>
      <point x="66" y="682" type="line"/>
      <point x="46" y="682" type="line"/>
      <point x="61" y="505" type="line"/>
    </contour>
  </outline>
</glyph>
<glyph name="parenleft" format="1">
  <advance width="175"/>
  <unicode hex="0028"/>
  <outline>
    <contour>
      <point x="158" y="0" type="line"/>
      <point x="143" y="0" type="line" smooth="yes"/>
      <point x="77" y="0"/>
      <point x="30" y="46"/>
      <point x="30" y="102" type="curve" smooth="yes"/>
      <point x="30" y="598" type="line" smooth="yes"/>
      <point x="30" y="654"/>
      <point x="77" y="700"/>
      <point x="143" y="700" type="curve" smooth="yes"/>
      <point x="158" y="700" type="line"/>
      <point x="158" y="682" type="line"/>
      <point x="143" y="682" type="line" smooth="yes"/>
      <point x="121" y="682"/>
      <point x="108" y="664"/>
      <point x="108" y="642" type="curve" smooth="yes"/>
      <point x="108" y="58" type="line" smooth="yes"/>
      <point x="108" y="36"/>
      <point x="121" y="18"/>
      <point x="143" y="18" type="curve" smooth="yes"/>
      <point x="158" y="18" type="line"/>
    </contour>
    <contour>
      <point x="82" y="33" type="curve"/>
      <point x="71" y="49"/>
      <point x="69" y="64"/>
      <point x="69" y="83" type="curve" smooth="yes"/>
      <point x="69" y="617" type="line" smooth="yes"/>
      <point x="69" y="636"/>
      <point x="71" y="651"/>
      <point x="82" y="667" type="curve"/>
      <point x="63" y="654"/>
      <point x="49" y="633"/>
      <point x="49" y="605" type="curve" smooth="yes"/>
      <point x="49" y="95" type="line" smooth="yes"/>
      <point x="49" y="67"/>
      <point x="63" y="46"/>
    </contour>
  </outline>
</glyph>
<glyph name="parenright" format="1">
  <advance width="175"/>
  <unicode hex="0029"/>
  <outline>
    <contour>
      <point x="145" y="102" type="line" smooth="yes"/>
      <point x="145" y="46"/>
      <point x="98" y="0"/>
      <point x="32" y="0" type="curve" smooth="yes"/>
      <point x="17" y="0" type="line"/>
      <point x="17" y="18" type="line"/>
      <point x="32" y="18" type="line" smooth="yes"/>
      <point x="54" y="18"/>
      <point x="67" y="36"/>
      <point x="67" y="58" type="curve" smooth="yes"/>
      <point x="67" y="642" type="line" smooth="yes"/>
      <point x="67" y="664"/>
      <point x="54" y="682"/>
      <point x="32" y="682" type="curve" smooth="yes"/>
      <point x="17" y="682" type="line"/>
      <point x="17" y="700" type="line"/>
      <point x="32" y="700" type="line" smooth="yes"/>
      <point x="98" y="700"/>
      <point x="145" y="654"/>
      <point x="145" y="598" type="curve" smooth="yes"/>
    </contour>
    <contour>
      <point x="106" y="86" type="curve" smooth="yes"/>
      <point x="106" y="614" type="line" smooth="yes"/>
      <point x="106" y="643"/>
      <point x="93" y="664"/>
      <point x="71" y="678" type="curve"/>
      <point x="84" y="663"/>
      <point x="86" y="647"/>
      <point x="86" y="628" type="curve" smooth="yes"/>
      <point x="86" y="72" type="line" smooth="yes"/>
      <point x="86" y="53"/>
      <point x="84" y="37"/>
      <point x="71" y="22" type="curve"/>
      <point x="93" y="36"/>
      <point x="106" y="57"/>
    </contour>
  </outline>
</glyph>
<glyph name="asterisk" format="1">
  <advance width="270"/>
  <unicode hex="002A"/>
  <outline>
    <contour>
      <point x="245" y="518" type="line"/>
      <point x="240" y="510" type="line"/>
      <point x="160" y="531" type="line"/>
      <point x="140" y="456" type="line"/>
      <point x="130" y="456" type="line"/>
      <point x="110" y="531" type="line"/>
      <point x="30" y="510" type="line"/>
      <point x="25" y="518" type="line"/>
      <point x="88" y="578" type="line"/>
      <point x="25" y="638" type="line"/>
      <point x="30" y="646" type="line"/>
      <point x="110" y="625" type="line"/>
      <point x="130" y="700" type="line"/>
      <point x="140" y="700" type="line"/>
      <point x="160" y="625" type="line"/>
      <point x="240" y="646" type="line"/>
      <point x="245" y="638" type="line"/>
      <point x="182" y="578" type="line"/>
    </contour>
    <contour>
      <point x="216" y="529" type="line"/>
      <point x="147" y="578" type="line"/>
      <point x="216" y="627" type="line"/>
      <point x="214" y="629" type="line"/>
      <point x="142" y="590" type="line"/>
      <point x="136" y="670" type="line"/>
      <point x="134" y="670" type="line"/>
      <point x="128" y="590" type="line"/>
      <point x="56" y="629" type="line"/>
      <point x="54" y="627" type="line"/>
      <point x="123" y="578" type="line"/>
      <point x="54" y="529" type="line"/>
      <point x="56" y="527" type="line"/>
      <point x="128" y="566" type="line"/>
      <point x="133" y="486" type="line"/>
      <point x="137" y="486" type="line"/>
      <point x="142" y="566" type="line"/>
      <point x="214" y="527" type="line"/>
    </contour>
  </outline>
</glyph>
<glyph name="plus" format="1">
  <advance width="230"/>
  <unicode hex="002B"/>
  <outline>
    <contour>
      <point x="213" y="359" type="line"/>
      <point x="128" y="359" type="line"/>
      <point x="128" y="267" type="line"/>
      <point x="102" y="267" type="line"/>
      <point x="102" y="359" type="line"/>
      <point x="17" y="359" type="line"/>
      <point x="17" y="381" type="line"/>
      <point x="102" y="381" type="line"/>
      <point x="102" y="473" type="line"/>
      <point x="128" y="473" type="line"/>
      <point x="128" y="381" type="line"/>
      <point x="213" y="381" type="line"/>
    </contour>
  </outline>
</glyph>
<glyph name="comma" format="1">
  <advance width="125"/>
  <unicode hex="002C"/>
  <outline>
    <contour>
      <point x="110" y="104" type="line"/>
      <point x="54" y="-60" type="line"/>
      <point x="17" y="-60" type="line"/>
      <point x="33" y="120" type="line"/>
      <point x="110" y="120" type="line"/>
    </contour>
    <contour>
      <point x="71" y="104" type="line"/>
      <point x="51" y="104" type="line"/>
      <point x="34" y="-44" type="line"/>
      <point x="42" y="-44" type="line"/>
    </contour>
  </outline>
</glyph>
<glyph name="hyphen" format="1">
  <advance width="150"/>
  <unicode hex="002D"/>
  <unicode hex="2010"/>
  <unicode hex="2011"/>
  <outline>
    <contour>
      <point x="133" y="358" type="line"/>
      <point x="17" y="358" type="line"/>
      <point x="17" y="382" type="line"/>
      <point x="133" y="382" type="line"/>
    </contour>
  </outline>
</glyph>
<glyph name="period" format="1">
  <advance width="125"/>
  <unicode hex="002E"/>
  <outline>
    <contour>
      <point x="101" y="0" type="line"/>
      <point x="24" y="0" type="line"/>
      <point x="24" y="120" type="line"/>
      <point x="101" y="120" type="line"/>
    </contour>
    <contour>
      <point x="64" y="16" type="line"/>
      <point x="64" y="104" type="line"/>
      <point x="44" y="104" type="line"/>
      <point x="44" y="16" type="line"/>
    </contour>
  </outline>
</glyph>
<glyph name="zero" format="1">
  <advance width="300"/>
  <unicode hex="0030"/>
  <outline>
    <contour>
      <point x="270" y="97" type="line" smooth="yes"/>
      <point x="270" y="41"/>
      <point x="216" y="-5"/>
      <point x="150" y="-5" type="curve" smooth="yes"/>
      <point x="84" y="-5"/>
      <point x="30" y="41"/>
      <point x="30" y="97" type="curve" smooth="yes"/>
      <point x="30" y="603" type="line" smooth="yes"/>
      <point x="30" y="659"/>
      <point x="84" y="705"/>
      <point x="150" y="705" type="curve" smooth="yes"/>
      <point x="216" y="705"/>
      <point x="270" y="659"/>
      <point x="270" y="603" type="curve" smooth="yes"/>
    </contour>
    <contour>
      <point x="230" y="81" type="curve" smooth="yes"/>
      <point x="230" y="619" type="line" smooth="yes"/>
      <point x="230" y="648"/>
      <point x="216" y="668"/>
      <point x="194" y="682" type="curve"/>
      <point x="207" y="667"/>
      <point x="210" y="652"/>
      <point x="210" y="633" type="curve" smooth="yes"/>
      <point x="210" y="67" type="line" smooth="yes"/>
      <point x="210" y="48"/>
      <point x="207" y="33"/>
      <point x="194" y="18" type="curve"/>
      <point x="216" y="32"/>
      <point x="230" y="52"/>
    </contour>
    <contour>
      <point x="190" y="53" type="curve" smooth="yes"/>
      <point x="190" y="647" type="line" smooth="yes"/>
      <point x="190" y="669"/>
      <point x="172" y="687"/>
      <point x="150" y="687" type="curve" smooth="yes"/>
      <point x="128" y="687"/>
      <point x="110" y="669"/>
      <point x="110" y="647" type="curve" smooth="yes"/>
      <point x="110" y="53" type="line" smooth="yes"/>
      <point x="110" y="31"/>
      <point x="128" y="13"/>
      <point x="150" y="13" type="curve" smooth="yes"/>
      <point x="172" y="13"/>
      <point x="190" y="31"/>
    </contour>
    <contour>
      <point x="83" y="30" type="curve"/>
      <point x="72" y="46"/>
      <point x="70" y="59"/>
      <point x="70" y="78" type="curve" smooth="yes"/>
      <point x="70" y="622" type="line" smooth="yes"/>
      <point x="70" y="641"/>
      <point x="72" y="654"/>
      <point x="83" y="670" type="curve"/>
      <point x="64" y="657"/>
      <point x="50" y="638"/>
      <point x="50" y="610" type="curve" smooth="yes"/>
      <point x="50" y="90" type="line" smooth="yes"/>
      <point x="50" y="62"/>
      <point x="64" y="43"/>
    </contour>
  </outline>
</glyph>
<glyph name="one" format="1">
  <advance width="161"/>
  <unicode hex="0031"/>
  <outline>
    <contour>
      <point x="147" y="0" type="line"/>
      <point x="17" y="0" type="line"/>
      <point x="17" y="18" type="line"/>
      <point x="42" y="18" type="line"/>
      <point x="42" y="682" type="line"/>
      <point x="17" y="682" type="line"/>
      <point x="17" y="700" type="line"/>
      <point x="122" y="700" type="line"/>
      <point x="122" y="18" type="line"/>
      <point x="147" y="18" type="line"/>
    </contour>
    <contour>
      <point x="82" y="18" type="line"/>
      <point x="82" y="682" type="line"/>
      <point x="62" y="682" type="line"/>
      <point x="62" y="18" type="line"/>
    </contour>
  </outline>
</glyph>
<glyph name="two" format="1">
  <advance width="290"/>
  <unicode hex="0032"/>
  <outline>
    <contour>
      <point x="260" y="0" type="line"/>
      <point x="30" y="0" type="line"/>
      <point x="30" y="192" type="line" smooth="yes"/>
      <point x="30" y="226"/>
      <point x="37" y="252"/>
      <point x="56" y="282" type="curve" smooth="yes"/>
      <point x="156" y="438" type="line" smooth="yes"/>
      <point x="175" y="468"/>
      <point x="180" y="489"/>
      <point x="180" y="525" type="curve" smooth="yes"/>
      <point x="180" y="647" type="line" smooth="yes"/>
      <point x="180" y="669"/>
      <point x="167" y="687"/>
      <point x="145" y="687" type="curve" smooth="yes"/>
      <point x="123" y="687"/>
      <point x="110" y="669"/>
      <point x="110" y="647" type="curve" smooth="yes"/>
      <point x="110" y="490" type="line"/>
      <point x="30" y="490" type="line"/>
      <point x="30" y="603" type="line" smooth="yes"/>
      <point x="30" y="659"/>
      <point x="79" y="705"/>
      <point x="145" y="705" type="curve" smooth="yes"/>
      <point x="211" y="705"/>
      <point x="260" y="659"/>
      <point x="260" y="603" type="curve" smooth="yes"/>
      <point x="260" y="503" type="line" smooth="yes"/>
      <point x="260" y="469"/>
      <point x="253" y="443"/>
      <point x="234" y="413" type="curve" smooth="yes"/>
      <point x="134" y="257" type="line" smooth="yes"/>
      <point x="115" y="227"/>
      <point x="110" y="206"/>
      <point x="110" y="170" type="curve" smooth="yes"/>
      <point x="110" y="18" type="line"/>
      <point x="180" y="18" type="line"/>
      <point x="180" y="210" type="line"/>
      <point x="260" y="210" type="line"/>
    </contour>
    <contour>
      <point x="83" y="670" type="curve"/>
      <point x="64" y="657"/>
      <point x="50" y="638"/>
      <point x="50" y="610" type="curve" smooth="yes"/>
      <point x="50" y="508" type="line"/>
      <point x="70" y="508" type="line"/>
      <point x="70" y="622" type="line" smooth="yes"/>
      <point x="70" y="641"/>
      <point x="72" y="654"/>
    </contour>
    <contour>
      <point x="220" y="514" type="curve" smooth="yes"/>
      <point x="220" y="619" type="line" smooth="yes"/>
      <point x="220" y="648"/>
      <point x="206" y="668"/>
      <point x="184" y="682" type="curve"/>
      <point x="197" y="667"/>
      <point x="200" y="652"/>
      <point x="200" y="633" type="curve" smooth="yes"/>
      <point x="200" y="519" type="line" smooth="yes"/>
      <point x="200" y="485"/>
      <point x="194" y="460"/>
      <point x="175" y="430" type="curve" smooth="yes"/>
      <point x="75" y="275" type="line" smooth="yes"/>
      <point x="56" y="245"/>
      <point x="50" y="219"/>
      <point x="50" y="186" type="curve" smooth="yes"/>
      <point x="50" y="18" type="line"/>
      <point x="70" y="18" type="line"/>
      <point x="70" y="181" type="line" smooth="yes"/>
      <point x="70" y="215"/>
      <point x="76" y="240"/>
      <point x="95" y="270" type="curve" smooth="yes"/>
      <point x="195" y="425" type="line" smooth="yes"/>
      <point x="214" y="455"/>
      <point x="220" y="481"/>
    </contour>
    <contour>
      <point x="220" y="18" type="line"/>
      <point x="220" y="192" type="line"/>
      <point x="200" y="192" type="line"/>
      <point x="200" y="18" type="line"/>
    </contour>
  </outline>
</glyph>
<glyph name="three" format="1">
  <advance width="290"/>
  <unicode hex="0033"/>
  <outline>
    <contour>
      <point x="260" y="97" type="line" smooth="yes"/>
      <point x="260" y="38"/>
      <point x="210" y="-5"/>
      <point x="144" y="-5" type="curve" smooth="yes"/>
      <point x="78" y="-5"/>
      <point x="28" y="38"/>
      <point x="28" y="97" type="curve" smooth="yes"/>
      <point x="28" y="210" type="line"/>
      <point x="108" y="210" type="line"/>
      <point x="108" y="53" type="line" smooth="yes"/>
      <point x="108" y="29"/>
      <point x="122" y="13"/>
      <point x="144" y="13" type="curve" smooth="yes"/>
      <point x="166" y="13"/>
      <point x="180" y="29"/>
      <point x="180" y="53" type="curve" smooth="yes"/>
      <point x="180" y="321" type="line" smooth="yes"/>
      <point x="180" y="343"/>
      <point x="162" y="361"/>
      <point x="140" y="361" type="curve" smooth="yes"/>
      <point x="79" y="361" type="line"/>
      <point x="79" y="379" type="line"/>
      <point x="140" y="379" type="line" smooth="yes"/>
      <point x="162" y="379"/>
      <point x="180" y="397"/>
      <point x="180" y="419" type="curve" smooth="yes"/>
      <point x="180" y="647" type="line" smooth="yes"/>
      <point x="180" y="671"/>
      <point x="166" y="687"/>
      <point x="144" y="687" type="curve" smooth="yes"/>
      <point x="122" y="687"/>
      <point x="108" y="671"/>
      <point x="108" y="647" type="curve" smooth="yes"/>
      <point x="108" y="490" type="line"/>
      <point x="28" y="490" type="line"/>
      <point x="28" y="603" type="line" smooth="yes"/>
      <point x="28" y="662"/>
      <point x="78" y="705"/>
      <point x="144" y="705" type="curve" smooth="yes"/>
      <point x="210" y="705"/>
      <point x="260" y="662"/>
      <point x="260" y="603" type="curve" smooth="yes"/>
      <point x="260" y="463" type="line" smooth="yes"/>
      <point x="260" y="420"/>
      <point x="231" y="386"/>
      <point x="190" y="370" type="curve"/>
      <point x="231" y="353"/>
      <point x="260" y="320"/>
      <point x="260" y="277" type="curve" smooth="yes"/>
    </contour>
    <contour>
      <point x="220" y="447" type="curve" smooth="yes"/>
      <point x="220" y="620" type="line" smooth="yes"/>
      <point x="220" y="649"/>
      <point x="206" y="669"/>
      <point x="184" y="683" type="curve"/>
      <point x="197" y="668"/>
      <point x="200" y="653"/>
      <point x="200" y="634" type="curve" smooth="yes"/>
      <point x="200" y="433" type="line" smooth="yes"/>
      <point x="200" y="414"/>
      <point x="197" y="399"/>
      <point x="184" y="384" type="curve"/>
      <point x="206" y="398"/>
      <point x="220" y="418"/>
    </contour>
    <contour>
      <point x="81" y="673" type="curve"/>
      <point x="62" y="660"/>
      <point x="48" y="639"/>
      <point x="48" y="611" type="curve" smooth="yes"/>
      <point x="48" y="508" type="line"/>
      <point x="68" y="508" type="line"/>
      <point x="68" y="623" type="line" smooth="yes"/>
      <point x="68" y="642"/>
      <point x="70" y="657"/>
    </contour>
    <contour>
      <point x="220" y="80" type="curve" smooth="yes"/>
      <point x="220" y="293" type="line" smooth="yes"/>
      <point x="220" y="322"/>
      <point x="206" y="342"/>
      <point x="184" y="356" type="curve"/>
      <point x="197" y="341"/>
      <point x="200" y="326"/>
      <point x="200" y="307" type="curve" smooth="yes"/>
      <point x="200" y="66" type="line" smooth="yes"/>
      <point x="200" y="47"/>
      <point x="197" y="32"/>
      <point x="184" y="17" type="curve"/>
      <point x="206" y="31"/>
      <point x="220" y="51"/>
    </contour>
    <contour>
      <point x="81" y="27" type="curve"/>
      <point x="70" y="43"/>
      <point x="68" y="58"/>
      <point x="68" y="77" type="curve" smooth="yes"/>
      <point x="68" y="192" type="line"/>
      <point x="48" y="192" type="line"/>
      <point x="48" y="89" type="line" smooth="yes"/>
      <point x="48" y="61"/>
      <point x="62" y="40"/>
    </contour>
  </outline>
</glyph>
<glyph name="five" format="1">
  <advance width="300"/>
  <unicode hex="0035"/>
  <outline>
    <contour>
      <point x="270" y="97" type="line" smooth="yes"/>
      <point x="270" y="41"/>
      <point x="216" y="-5"/>
      <point x="150" y="-5" type="curve" smooth="yes"/>
      <point x="84" y="-5"/>
      <point x="30" y="41"/>
      <point x="30" y="97" type="curve" smooth="yes"/>
      <point x="30" y="210" type="line"/>
      <point x="110" y="210" type="line"/>
      <point x="110" y="53" type="line" smooth="yes"/>
      <point x="110" y="31"/>
      <point x="128" y="13"/>
      <point x="150" y="13" type="curve" smooth="yes"/>
      <point x="172" y="13"/>
      <point x="190" y="31"/>
      <point x="190" y="53" type="curve" smooth="yes"/>
      <point x="190" y="321" type="line" smooth="yes"/>
      <point x="190" y="343"/>
      <point x="172" y="361"/>
      <point x="150" y="361" type="curve" smooth="yes"/>
      <point x="35" y="361" type="line"/>
      <point x="35" y="700" type="line"/>
      <point x="260" y="700" type="line"/>
      <point x="260" y="490" type="line"/>
      <point x="180" y="490" type="line"/>
      <point x="180" y="682" type="line"/>
      <point x="115" y="682" type="line"/>
      <point x="115" y="379" type="line"/>
      <point x="150" y="379" type="line" smooth="yes"/>
      <point x="216" y="379"/>
      <point x="270" y="333"/>
      <point x="270" y="277" type="curve" smooth="yes"/>
    </contour>
    <contour>
      <point x="220" y="508" type="line"/>
      <point x="220" y="682" type="line"/>
      <point x="200" y="682" type="line"/>
      <point x="200" y="508" type="line"/>
    </contour>
    <contour>
      <point x="75" y="379" type="line"/>
      <point x="75" y="682" type="line"/>
      <point x="55" y="682" type="line"/>
      <point x="55" y="379" type="line"/>
    </contour>
    <contour>
      <point x="230" y="81" type="curve" smooth="yes"/>
      <point x="230" y="293" type="line" smooth="yes"/>
      <point x="230" y="322"/>
      <point x="216" y="342"/>
      <point x="194" y="356" type="curve"/>
      <point x="207" y="341"/>
      <point x="210" y="326"/>
      <point x="210" y="307" type="curve" smooth="yes"/>
      <point x="210" y="67" type="line" smooth="yes"/>
      <point x="210" y="48"/>
      <point x="207" y="33"/>
      <point x="194" y="18" type="curve"/>
      <point x="216" y="32"/>
      <point x="230" y="52"/>
    </contour>
    <contour>
      <point x="83" y="30" type="curve"/>
      <point x="72" y="46"/>
      <point x="70" y="59"/>
      <point x="70" y="78" type="curve" smooth="yes"/>
      <point x="70" y="192" type="line"/>
      <point x="50" y="192" type="line"/>
      <point x="50" y="90" type="line" smooth="yes"/>
      <point x="50" y="62"/>
      <point x="64" y="43"/>
    </contour>
  </outline>
</glyph>
<glyph name="six" format="1">
  <advance width="300"/>
  <unicode hex="0036"/>
  <outline>
    <contour>
      <point x="270" y="97" type="line" smooth="yes"/>
      <point x="270" y="41"/>
      <point x="216" y="-5"/>
      <point x="150" y="-5" type="curve" smooth="yes"/>
      <point x="84" y="-5"/>
      <point x="30" y="41"/>
      <point x="30" y="97" type="curve" smooth="yes"/>
      <point x="30" y="603" type="line" smooth="yes"/>
      <point x="30" y="659"/>
      <point x="84" y="705"/>
      <point x="150" y="705" type="curve" smooth="yes"/>
      <point x="216" y="705"/>
      <point x="270" y="659"/>
      <point x="270" y="603" type="curve" smooth="yes"/>
      <point x="270" y="490" type="line"/>
      <point x="190" y="490" type="line"/>
      <point x="190" y="647" type="line" smooth="yes"/>
      <point x="190" y="669"/>
      <point x="172" y="687"/>
      <point x="150" y="687" type="curve" smooth="yes"/>
      <point x="128" y="687"/>
      <point x="110" y="669"/>
      <point x="110" y="647" type="curve" smooth="yes"/>
      <point x="110" y="365" type="line"/>
      <point x="123" y="376"/>
      <point x="145" y="384"/>
      <point x="171" y="384" type="curve" smooth="yes"/>
      <point x="230" y="384"/>
      <point x="270" y="354"/>
      <point x="270" y="292" type="curve" smooth="yes"/>
    </contour>
    <contour>
      <point x="230" y="508" type="line"/>
      <point x="230" y="619" type="line" smooth="yes"/>
      <point x="230" y="648"/>
      <point x="216" y="668"/>
      <point x="194" y="682" type="curve"/>
      <point x="207" y="667"/>
      <point x="210" y="652"/>
      <point x="210" y="633" type="curve" smooth="yes"/>
      <point x="210" y="508" type="line"/>
    </contour>
    <contour>
      <point x="83" y="30" type="curve"/>
      <point x="72" y="46"/>
      <point x="70" y="59"/>
      <point x="70" y="78" type="curve" smooth="yes"/>
      <point x="70" y="622" type="line" smooth="yes"/>
      <point x="70" y="641"/>
      <point x="72" y="654"/>
      <point x="83" y="670" type="curve"/>
      <point x="64" y="657"/>
      <point x="50" y="638"/>
      <point x="50" y="610" type="curve" smooth="yes"/>
      <point x="50" y="90" type="line" smooth="yes"/>
      <point x="50" y="62"/>
      <point x="64" y="43"/>
    </contour>
    <contour>
      <point x="230" y="81" type="curve" smooth="yes"/>
      <point x="230" y="308" type="line" smooth="yes"/>
      <point x="230" y="341"/>
      <point x="214" y="354"/>
      <point x="194" y="362" type="curve"/>
      <point x="205" y="351"/>
      <point x="210" y="339"/>
      <point x="210" y="318" type="curve" smooth="yes"/>
      <point x="210" y="67" type="line" smooth="yes"/>
      <point x="210" y="48"/>
      <point x="207" y="33"/>
      <point x="194" y="18" type="curve"/>
      <point x="216" y="32"/>
      <point x="230" y="52"/>
    </contour>
    <contour>
      <point x="190" y="53" type="curve" smooth="yes"/>
      <point x="190" y="326" type="line" smooth="yes"/>
      <point x="190" y="348"/>
      <point x="174" y="364"/>
      <point x="150" y="364" type="curve" smooth="yes"/>
      <point x="137" y="364"/>
      <point x="123" y="359"/>
      <point x="110" y="347" type="curve"/>
      <point x="110" y="53" type="line" smooth="yes"/>
      <point x="110" y="31"/>
      <point x="128" y="13"/>
      <point x="150" y="13" type="curve" smooth="yes"/>
      <point x="172" y="13"/>
      <point x="190" y="31"/>
    </contour>
  </outline>
</glyph>
<glyph name="seven" format="1">
  <advance width="277"/>
  <unicode hex="0037"/>
  <outline>
    <contour>
      <point x="262" y="682" type="line"/>
      <point x="144" y="0" type="line"/>
      <point x="65" y="0" type="line"/>
      <point x="183" y="682" type="line"/>
      <point x="95" y="682" type="line"/>
      <point x="95" y="490" type="line"/>
      <point x="17" y="490" type="line"/>
      <point x="17" y="700" type="line"/>
      <point x="262" y="700" type="line"/>
    </contour>
    <contour>
      <point x="57" y="508" type="line"/>
      <point x="57" y="682" type="line"/>
      <point x="37" y="682" type="line"/>
      <point x="37" y="508" type="line"/>
    </contour>
    <contour>
      <point x="224" y="682" type="line"/>
      <point x="204" y="682" type="line"/>
      <point x="89" y="18" type="line"/>
      <point x="109" y="18" type="line"/>
    </contour>
  </outline>
</glyph>
<glyph name="nine" format="1">
  <advance width="300"/>
  <unicode hex="0039"/>
  <outline>
    <contour>
      <point x="270" y="97" type="line" smooth="yes"/>
      <point x="270" y="41"/>
      <point x="216" y="-5"/>
      <point x="150" y="-5" type="curve" smooth="yes"/>
      <point x="84" y="-5"/>
      <point x="30" y="41"/>
      <point x="30" y="97" type="curve" smooth="yes"/>
      <point x="30" y="210" type="line"/>
      <point x="110" y="210" type="line"/>
      <point x="110" y="53" type="line" smooth="yes"/>
      <point x="110" y="31"/>
      <point x="128" y="13"/>
      <point x="150" y="13" type="curve" smooth="yes"/>
      <point x="172" y="13"/>
      <point x="190" y="31"/>
      <point x="190" y="53" type="curve" smooth="yes"/>
      <point x="190" y="335" type="line"/>
      <point x="177" y="324"/>
      <point x="155" y="316"/>
      <point x="129" y="316" type="curve" smooth="yes"/>
      <point x="70" y="316"/>
      <point x="30" y="346"/>
      <point x="30" y="408" type="curve" smooth="yes"/>
      <point x="30" y="603" type="line" smooth="yes"/>
      <point x="30" y="659"/>
      <point x="84" y="705"/>
      <point x="150" y="705" type="curve" smooth="yes"/>
      <point x="216" y="705"/>
      <point x="270" y="659"/>
      <point x="270" y="603" type="curve" smooth="yes"/>
    </contour>
    <contour>
      <point x="190" y="353" type="curve"/>
      <point x="190" y="647" type="line" smooth="yes"/>
      <point x="190" y="669"/>
      <point x="172" y="687"/>
      <point x="150" y="687" type="curve" smooth="yes"/>
      <point x="128" y="687"/>
      <point x="110" y="669"/>
      <point x="110" y="647" type="curve" smooth="yes"/>
      <point x="110" y="374" type="line" smooth="yes"/>
      <point x="110" y="352"/>
      <point x="126" y="336"/>
      <point x="150" y="336" type="curve" smooth="yes"/>
      <point x="163" y="336"/>
      <point x="177" y="341"/>
    </contour>
    <contour>
      <point x="83" y="339" type="curve"/>
      <point x="72" y="355"/>
      <point x="70" y="368"/>
      <point x="70" y="387" type="curve" smooth="yes"/>
      <point x="70" y="622" type="line" smooth="yes"/>
      <point x="70" y="641"/>
      <point x="72" y="654"/>
      <point x="83" y="670" type="curve"/>
      <point x="64" y="657"/>
      <point x="50" y="638"/>
      <point x="50" y="610" type="curve" smooth="yes"/>
      <point x="50" y="399" type="line" smooth="yes"/>
      <point x="50" y="371"/>
      <point x="64" y="352"/>
    </contour>
    <contour>
      <point x="230" y="81" type="curve" smooth="yes"/>
      <point x="230" y="619" type="line" smooth="yes"/>
      <point x="230" y="648"/>
      <point x="216" y="668"/>
      <point x="194" y="682" type="curve"/>
      <point x="207" y="667"/>
      <point x="210" y="652"/>
      <point x="210" y="633" type="curve" smooth="yes"/>
      <point x="210" y="67" type="line" smooth="yes"/>
      <point x="210" y="48"/>
      <point x="207" y="33"/>
      <point x="194" y="18" type="curve"/>
      <point x="216" y="32"/>
      <point x="230" y="52"/>
    </contour>
    <contour>
      <point x="83" y="31" type="curve"/>
      <point x="72" y="45"/>
      <point x="70" y="61"/>
      <point x="70" y="78" type="curve" smooth="yes"/>
      <point x="70" y="192" type="line"/>
      <point x="50" y="192" type="line"/>
      <point x="50" y="89" type="line" smooth="yes"/>
      <point x="50" y="63"/>
      <point x="64" y="42"/>
    </contour>
  </outline>
</glyph>
<glyph name="colon" format="1">
  <advance width="125"/>
  <unicode hex="003A"/>
  <outline>
    <contour>
      <point x="101" y="259" type="line"/>
      <point x="24" y="259" type="line"/>
      <point x="24" y="379" type="line"/>
      <point x="101" y="379" type="line"/>
    </contour>
    <contour>
      <point x="101" y="0" type="line"/>
      <point x="24" y="0" type="line"/>
      <point x="24" y="120" type="line"/>
      <point x="101" y="120" type="line"/>
    </contour>
    <contour>
      <point x="64" y="275" type="line"/>
      <point x="64" y="363" type="line"/>
      <point x="44" y="363" type="line"/>
      <point x="44" y="275" type="line"/>
    </contour>
    <contour>
      <point x="64" y="16" type="line"/>
      <point x="64" y="104" type="line"/>
      <point x="44" y="104" type="line"/>
      <point x="44" y="16" type="line"/>
    </contour>
  </outline>
</glyph>
<glyph name="semicolon" format="1">
  <advance width="125"/>
  <unicode hex="003B"/>
  <outline>
    <contour>
      <point x="103" y="259" type="line"/>
      <point x="26" y="259" type="line"/>
      <point x="26" y="379" type="line"/>
      <point x="103" y="379" type="line"/>
    </contour>
    <contour>
      <point x="103" y="104" type="line"/>
      <point x="47" y="-60" type="line"/>
      <point x="10" y="-60" type="line"/>
      <point x="26" y="120" type="line"/>
      <point x="103" y="120" type="line"/>
    </contour>
    <contour>
      <point x="66" y="275" type="line"/>
      <point x="66" y="363" type="line"/>
      <point x="46" y="363" type="line"/>
      <point x="46" y="275" type="line"/>
    </contour>
    <contour>
      <point x="64" y="104" type="line"/>
      <point x="44" y="104" type="line"/>
      <point x="27" y="-44" type="line"/>
      <point x="35" y="-44" type="line"/>
    </contour>
  </outline>
</glyph>
<glyph name="less" format="1">
  <advance width="270"/>
  <unicode hex="003C"/>
  <outline>
    <contour>
      <point x="226" y="275" type="line"/>
      <point x="30" y="360" type="line"/>
      <point x="30" y="380" type="line"/>
      <point x="226" y="465" type="line"/>
      <point x="226" y="438" type="line"/>
      <point x="62" y="370" type="line"/>
      <point x="226" y="302" type="line"/>
    </contour>
  </outline>
</glyph>
<glyph name="greater" format="1">
  <advance width="270"/>
  <unicode hex="003E"/>
  <outline>
    <contour>
      <point x="240" y="360" type="line"/>
      <point x="44" y="275" type="line"/>
      <point x="44" y="302" type="line"/>
      <point x="208" y="370" type="line"/>
      <point x="44" y="438" type="line"/>
      <point x="44" y="465" type="line"/>
      <point x="240" y="380" type="line"/>
    </contour>
  </outline>
</glyph>
<glyph name="question" format="1">
  <advance width="274"/>
  <unicode hex="003F"/>
  <outline>
    <contour>
      <point x="250" y="503" type="line" smooth="yes"/>
      <point x="250" y="469"/>
      <point x="243" y="443"/>
      <point x="224" y="413" type="curve" smooth="yes"/>
      <point x="199" y="374" type="line" smooth="yes"/>
      <point x="174" y="335"/>
      <point x="166" y="319"/>
      <point x="162" y="280" type="curve" smooth="yes"/>
      <point x="150" y="150" type="line"/>
      <point x="120" y="150" type="line"/>
      <point x="106" y="300" type="line" smooth="yes"/>
      <point x="105" y="316"/>
      <point x="104" y="328"/>
      <point x="104" y="339" type="curve" smooth="yes"/>
      <point x="104" y="364"/>
      <point x="108" y="379"/>
      <point x="121" y="399" type="curve" smooth="yes"/>
      <point x="146" y="438" type="line" smooth="yes"/>
      <point x="165" y="468"/>
      <point x="170" y="489"/>
      <point x="170" y="525" type="curve" smooth="yes"/>
      <point x="170" y="647" type="line" smooth="yes"/>
      <point x="170" y="669"/>
      <point x="157" y="687"/>
      <point x="135" y="687" type="curve" smooth="yes"/>
      <point x="113" y="687"/>
      <point x="100" y="669"/>
      <point x="100" y="647" type="curve" smooth="yes"/>
      <point x="100" y="490" type="line"/>
      <point x="20" y="490" type="line"/>
      <point x="20" y="603" type="line" smooth="yes"/>
      <point x="20" y="659"/>
      <point x="69" y="705"/>
      <point x="135" y="705" type="curve" smooth="yes"/>
      <point x="201" y="705"/>
      <point x="250" y="659"/>
      <point x="250" y="603" type="curve" smooth="yes"/>
    </contour>
    <contour>
      <point x="175" y="0" type="line"/>
      <point x="95" y="0" type="line"/>
      <point x="95" y="120" type="line"/>
      <point x="175" y="120" type="line"/>
    </contour>
    <contour>
      <point x="73" y="670" type="curve"/>
      <point x="54" y="657"/>
      <point x="40" y="638"/>
      <point x="40" y="610" type="curve" smooth="yes"/>
      <point x="40" y="508" type="line"/>
      <point x="60" y="508" type="line"/>
      <point x="60" y="622" type="line" smooth="yes"/>
      <point x="60" y="641"/>
      <point x="62" y="654"/>
    </contour>
    <contour>
      <point x="210" y="514" type="curve" smooth="yes"/>
      <point x="210" y="619" type="line" smooth="yes"/>
      <point x="210" y="648"/>
      <point x="196" y="668"/>
      <point x="174" y="682" type="curve"/>
      <point x="187" y="667"/>
      <point x="190" y="652"/>
      <point x="190" y="633" type="curve" smooth="yes"/>
      <point x="190" y="519" type="line" smooth="yes"/>
      <point x="190" y="485"/>
      <point x="185" y="460"/>
      <point x="165" y="430" type="curve" smooth="yes"/>
      <point x="140" y="392" type="line" smooth="yes"/>
      <point x="125" y="369"/>
      <point x="121" y="356"/>
      <point x="121" y="336" type="curve" smooth="yes"/>
      <point x="121" y="326"/>
      <point x="121" y="309"/>
      <point x="122" y="299" type="curve" smooth="yes"/>
      <point x="130" y="168" type="line"/>
      <point x="135" y="168" type="line"/>
      <point x="135" y="318" type="line" smooth="yes"/>
      <point x="135" y="347"/>
      <point x="141" y="358"/>
      <point x="160" y="387" type="curve" smooth="yes"/>
      <point x="185" y="425" type="line" smooth="yes"/>
      <point x="205" y="455"/>
      <point x="210" y="481"/>
    </contour>
    <contour>
      <point x="135" y="16" type="line"/>
      <point x="135" y="104" type="line"/>
      <point x="115" y="104" type="line"/>
      <point x="115" y="16" type="line"/>
    </contour>
  </outline>
</glyph>
<glyph name="at" format="1">
  <advance width="368"/>
  <unicode hex="0040"/>
  <outline>
    <contour>
      <point x="338" y="238" type="line" smooth="yes"/>
      <point x="338" y="194"/>
      <point x="317" y="178"/>
      <point x="280" y="178" type="curve" smooth="yes"/>
      <point x="252" y="178"/>
      <point x="235" y="186"/>
      <point x="219" y="203" type="curve"/>
      <point x="208" y="192"/>
      <point x="191" y="178"/>
      <point x="164" y="178" type="curve" smooth="yes"/>
      <point x="125" y="178"/>
      <point x="98" y="201"/>
      <point x="98" y="243" type="curve" smooth="yes"/>
      <point x="98" y="455" type="line" smooth="yes"/>
      <point x="98" y="497"/>
      <point x="125" y="519"/>
      <point x="164" y="519" type="curve" smooth="yes"/>
      <point x="180" y="519"/>
      <point x="199" y="515"/>
      <point x="210" y="506" type="curve"/>
      <point x="210" y="516" type="line"/>
      <point x="266" y="516" type="line"/>
      <point x="266" y="230" type="line" smooth="yes"/>
      <point x="266" y="208"/>
      <point x="274" y="194"/>
      <point x="290" y="194" type="curve" smooth="yes"/>
      <point x="307" y="194"/>
      <point x="319" y="207"/>
      <point x="319" y="230" type="curve" smooth="yes"/>
      <point x="319" y="488" type="line" smooth="yes"/>
      <point x="319" y="554"/>
      <point x="262" y="607"/>
      <point x="184" y="607" type="curve" smooth="yes"/>
      <point x="106" y="607"/>
      <point x="49" y="554"/>
      <point x="49" y="488" type="curve" smooth="yes"/>
      <point x="49" y="212" type="line" smooth="yes"/>
      <point x="49" y="146"/>
      <point x="106" y="93"/>
      <point x="184" y="93" type="curve" smooth="yes"/>
      <point x="268" y="93" type="line"/>
      <point x="268" y="75" type="line"/>
      <point x="184" y="75" type="line" smooth="yes"/>
      <point x="94" y="75"/>
      <point x="30" y="138"/>
      <point x="30" y="214" type="curve" smooth="yes"/>
      <point x="30" y="486" type="line" smooth="yes"/>
      <point x="30" y="562"/>
      <point x="94" y="625"/>
      <point x="184" y="625" type="curve" smooth="yes"/>
      <point x="274" y="625"/>
      <point x="338" y="562"/>
      <point x="338" y="486" type="curve" smooth="yes"/>
    </contour>
    <contour>
      <point x="251" y="193" type="curve"/>
      <point x="244" y="201"/>
      <point x="238" y="213"/>
      <point x="238" y="228" type="curve" smooth="yes"/>
      <point x="238" y="503" type="line"/>
      <point x="224" y="503" type="line"/>
      <point x="224" y="236" type="line" smooth="yes"/>
      <point x="224" y="211"/>
      <point x="236" y="197"/>
    </contour>
    <contour>
      <point x="210" y="212" type="curve"/>
      <point x="210" y="493" type="line"/>
      <point x="202" y="501"/>
      <point x="189" y="505"/>
      <point x="180" y="505" type="curve" smooth="yes"/>
      <point x="164" y="505"/>
      <point x="154" y="494"/>
      <point x="154" y="479" type="curve" smooth="yes"/>
      <point x="154" y="217" type="line" smooth="yes"/>
      <point x="154" y="202"/>
      <point x="162" y="192"/>
      <point x="174" y="192" type="curve" smooth="yes"/>
      <point x="188" y="192"/>
      <point x="202" y="201"/>
    </contour>
    <contour>
      <point x="139" y="193" type="curve"/>
      <point x="132" y="201"/>
      <point x="126" y="213"/>
      <point x="126" y="228" type="curve" smooth="yes"/>
      <point x="126" y="470" type="line" smooth="yes"/>
      <point x="126" y="484"/>
      <point x="132" y="497"/>
      <point x="139" y="505" type="curve"/>
      <point x="124" y="500"/>
      <point x="112" y="486"/>
      <point x="112" y="462" type="curve" smooth="yes"/>
      <point x="112" y="236" type="line" smooth="yes"/>
      <point x="112" y="211"/>
      <point x="124" y="197"/>
    </contour>
  </outline>
</glyph>
<glyph name="B" format="1">
  <advance width="305"/>
  <unicode hex="0042"/>
  <outline>
    <contour>
      <point x="275" y="102" type="line" smooth="yes"/>
      <point x="275" y="46"/>
      <point x="221" y="0"/>
      <point x="155" y="0" type="curve" smooth="yes"/>
      <point x="15" y="0" type="line"/>
      <point x="15" y="18" type="line"/>
      <point x="40" y="18" type="line"/>
      <point x="40" y="682" type="line"/>
      <point x="15" y="682" type="line"/>
      <point x="15" y="700" type="line"/>
      <point x="155" y="700" type="line" smooth="yes"/>
      <point x="221" y="700"/>
      <point x="275" y="654"/>
      <point x="275" y="598" type="curve" smooth="yes"/>
      <point x="275" y="463" type="line" smooth="yes"/>
      <point x="275" y="422"/>
      <point x="246" y="386"/>
      <point x="205" y="370" type="curve"/>
      <point x="246" y="353"/>
      <point x="275" y="318"/>
      <point x="275" y="277" type="curve" smooth="yes"/>
    </contour>
    <contour>
      <point x="235" y="447" type="curve" smooth="yes"/>
      <point x="235" y="614" type="line" smooth="yes"/>
      <point x="235" y="643"/>
      <point x="221" y="663"/>
      <point x="199" y="677" type="curve"/>
      <point x="212" y="662"/>
      <point x="215" y="647"/>
      <point x="215" y="628" type="curve" smooth="yes"/>
      <point x="215" y="433" type="line" smooth="yes"/>
      <point x="215" y="414"/>
      <point x="212" y="399"/>
      <point x="199" y="384" type="curve"/>
      <point x="221" y="398"/>
      <point x="235" y="418"/>
    </contour>
    <contour>
      <point x="195" y="419" type="curve" smooth="yes"/>
      <point x="195" y="642" type="line" smooth="yes"/>
      <point x="195" y="664"/>
      <point x="177" y="682"/>
      <point x="155" y="682" type="curve" smooth="yes"/>
      <point x="120" y="682" type="line"/>
      <point x="120" y="379" type="line"/>
      <point x="155" y="379" type="line" smooth="yes"/>
      <point x="177" y="379"/>
      <point x="195" y="397"/>
    </contour>
    <contour>
      <point x="80" y="18" type="line"/>
      <point x="80" y="682" type="line"/>
      <point x="60" y="682" type="line"/>
      <point x="60" y="18" type="line"/>
    </contour>
    <contour>
      <point x="235" y="86" type="curve" smooth="yes"/>
      <point x="235" y="293" type="line" smooth="yes"/>
      <point x="235" y="322"/>
      <point x="221" y="342"/>
      <point x="199" y="356" type="curve"/>
      <point x="212" y="341"/>
      <point x="215" y="326"/>
      <point x="215" y="307" type="curve" smooth="yes"/>
      <point x="215" y="72" type="line" smooth="yes"/>
      <point x="215" y="53"/>
      <point x="212" y="38"/>
      <point x="199" y="23" type="curve"/>
      <point x="221" y="37"/>
      <point x="235" y="57"/>
    </contour>
    <contour>
      <point x="195" y="58" type="curve" smooth="yes"/>
      <point x="195" y="321" type="line" smooth="yes"/>
      <point x="195" y="343"/>
      <point x="177" y="361"/>
      <point x="155" y="361" type="curve" smooth="yes"/>
      <point x="120" y="361" type="line"/>
      <point x="120" y="18" type="line"/>
      <point x="155" y="18" type="line" smooth="yes"/>
      <point x="177" y="18"/>
      <point x="195" y="36"/>
    </contour>
  </outline>
</glyph>
<glyph name="D" format="1">
  <advance width="305"/>
  <unicode hex="0044"/>
  <outline>
    <contour>
      <point x="275" y="102" type="line" smooth="yes"/>
      <point x="275" y="46"/>
      <point x="221" y="0"/>
      <point x="155" y="0" type="curve" smooth="yes"/>
      <point x="15" y="0" type="line"/>
      <point x="15" y="18" type="line"/>
      <point x="40" y="18" type="line"/>
      <point x="40" y="682" type="line"/>
      <point x="15" y="682" type="line"/>
      <point x="15" y="700" type="line"/>
      <point x="155" y="700" type="line" smooth="yes"/>
      <point x="221" y="700"/>
      <point x="275" y="654"/>
      <point x="275" y="598" type="curve" smooth="yes"/>
    </contour>
    <contour>
      <point x="235" y="86" type="curve" smooth="yes"/>
      <point x="235" y="614" type="line" smooth="yes"/>
      <point x="235" y="643"/>
      <point x="221" y="663"/>
      <point x="199" y="677" type="curve"/>
      <point x="212" y="662"/>
      <point x="215" y="647"/>
      <point x="215" y="628" type="curve" smooth="yes"/>
      <point x="215" y="72" type="line" smooth="yes"/>
      <point x="215" y="53"/>
      <point x="212" y="38"/>
      <point x="199" y="23" type="curve"/>
      <point x="221" y="37"/>
      <point x="235" y="57"/>
    </contour>
    <contour>
      <point x="195" y="58" type="curve" smooth="yes"/>
      <point x="195" y="642" type="line" smooth="yes"/>
      <point x="195" y="664"/>
      <point x="177" y="682"/>
      <point x="155" y="682" type="curve" smooth="yes"/>
      <point x="120" y="682" type="line"/>
      <point x="120" y="18" type="line"/>
      <point x="155" y="18" type="line" smooth="yes"/>
      <point x="177" y="18"/>
      <point x="195" y="36"/>
    </contour>
    <contour>
      <point x="80" y="18" type="line"/>
      <point x="80" y="682" type="line"/>
      <point x="60" y="682" type="line"/>
      <point x="60" y="18" type="line"/>
    </contour>
  </outline>
</glyph>
<glyph name="E" format="1">
  <advance width="290"/>
  <unicode hex="0045"/>
  <outline>
    <contour>
      <point x="265" y="0" type="line"/>
      <point x="15" y="0" type="line"/>
      <point x="15" y="18" type="line"/>
      <point x="40" y="18" type="line"/>
      <point x="40" y="682" type="line"/>
      <point x="15" y="682" type="line"/>
      <point x="15" y="700" type="line"/>
      <point x="265" y="700" type="line"/>
      <point x="265" y="490" type="line"/>
      <point x="185" y="490" type="line"/>
      <point x="185" y="682" type="line"/>
      <point x="120" y="682" type="line"/>
      <point x="120" y="379" type="line"/>
      <point x="215" y="379" type="line"/>
      <point x="215" y="361" type="line"/>
      <point x="120" y="361" type="line"/>
      <point x="120" y="18" type="line"/>
      <point x="185" y="18" type="line"/>
      <point x="185" y="210" type="line"/>
      <point x="265" y="210" type="line"/>
    </contour>
    <contour>
      <point x="225" y="508" type="line"/>
      <point x="225" y="682" type="line"/>
      <point x="205" y="682" type="line"/>
      <point x="205" y="508" type="line"/>
    </contour>
    <contour>
      <point x="80" y="18" type="line"/>
      <point x="80" y="682" type="line"/>
      <point x="60" y="682" type="line"/>
      <point x="60" y="18" type="line"/>
    </contour>
    <contour>
      <point x="225" y="18" type="line"/>
      <point x="225" y="192" type="line"/>
      <point x="205" y="192" type="line"/>
      <point x="205" y="18" type="line"/>
    </contour>
  </outline>
</glyph>
<glyph name="F" format="1">
  <advance width="275"/>
  <unicode hex="0046"/>
  <outline>
    <contour>
      <point x="260" y="490" type="line"/>
      <point x="180" y="490" type="line"/>
      <point x="180" y="682" type="line"/>
      <point x="120" y="682" type="line"/>
      <point x="120" y="379" type="line"/>
      <point x="210" y="379" type="line"/>
      <point x="210" y="361" type="line"/>
      <point x="120" y="361" type="line"/>
      <point x="120" y="18" type="line"/>
      <point x="145" y="18" type="line"/>
      <point x="145" y="0" type="line"/>
      <point x="15" y="0" type="line"/>
      <point x="15" y="18" type="line"/>
      <point x="40" y="18" type="line"/>
      <point x="40" y="682" type="line"/>
      <point x="15" y="682" type="line"/>
      <point x="15" y="700" type="line"/>
      <point x="260" y="700" type="line"/>
    </contour>
    <contour>
      <point x="220" y="508" type="line"/>
      <point x="220" y="682" type="line"/>
      <point x="200" y="682" type="line"/>
      <point x="200" y="508" type="line"/>
    </contour>
    <contour>
      <point x="80" y="18" type="line"/>
      <point x="80" y="682" type="line"/>
      <point x="60" y="682" type="line"/>
      <point x="60" y="18" type="line"/>
    </contour>
  </outline>
</glyph>
<glyph name="J" format="1">
  <advance width="275"/>
  <unicode hex="004A"/>
  <outline>
    <contour>
      <point x="265" y="682" type="line"/>
      <point x="240" y="682" type="line"/>
      <point x="240" y="87" type="line" smooth="yes"/>
      <point x="240" y="37"/>
      <point x="196" y="-5"/>
      <point x="130" y="-5" type="curve" smooth="yes"/>
      <point x="64" y="-5"/>
      <point x="20" y="37"/>
      <point x="20" y="87" type="curve" smooth="yes"/>
      <point x="20" y="210" type="line"/>
      <point x="100" y="210" type="line"/>
      <point x="100" y="49" type="line" smooth="yes"/>
      <point x="100" y="30"/>
      <point x="108" y="13"/>
      <point x="130" y="13" type="curve" smooth="yes"/>
      <point x="152" y="13"/>
      <point x="160" y="30"/>
      <point x="160" y="49" type="curve" smooth="yes"/>
      <point x="160" y="682" type="line"/>
      <point x="135" y="682" type="line"/>
      <point x="135" y="700" type="line"/>
      <point x="265" y="700" type="line"/>
    </contour>
    <contour>
      <point x="200" y="74" type="curve" smooth="yes"/>
      <point x="200" y="682" type="line"/>
      <point x="180" y="682" type="line"/>
      <point x="180" y="62" type="line" smooth="yes"/>
      <point x="180" y="45"/>
      <point x="177" y="31"/>
      <point x="164" y="18" type="curve"/>
      <point x="186" y="30"/>
      <point x="200" y="48"/>
    </contour>
    <contour>
      <point x="73" y="29" type="curve"/>
      <point x="62" y="43"/>
      <point x="60" y="55"/>
      <point x="60" y="72" type="curve" smooth="yes"/>
      <point x="60" y="192" type="line"/>
      <point x="40" y="192" type="line"/>
      <point x="40" y="83" type="line" smooth="yes"/>
      <point x="40" y="57"/>
      <point x="54" y="40"/>
    </contour>
  </outline>
</glyph>
<glyph name="K" format="1">
  <advance width="310"/>
  <unicode hex="004B"/>
  <outline>
    <contour>
      <point x="305" y="0" type="line"/>
      <point x="208" y="0" type="line"/>
      <point x="120" y="340" type="line"/>
      <point x="120" y="18" type="line"/>
      <point x="145" y="18" type="line"/>
      <point x="145" y="0" type="line"/>
      <point x="15" y="0" type="line"/>
      <point x="15" y="18" type="line"/>
      <point x="40" y="18" type="line"/>
      <point x="40" y="682" type="line"/>
      <point x="15" y="682" type="line"/>
      <point x="15" y="700" type="line"/>
      <point x="145" y="700" type="line"/>
      <point x="145" y="682" type="line"/>
      <point x="120" y="682" type="line"/>
      <point x="120" y="379" type="line"/>
      <point x="230" y="682" type="line"/>
      <point x="205" y="682" type="line"/>
      <point x="205" y="700" type="line"/>
      <point x="280" y="700" type="line"/>
      <point x="280" y="682" type="line"/>
      <point x="255" y="682" type="line"/>
      <point x="169" y="445" type="line"/>
      <point x="280" y="18" type="line"/>
      <point x="305" y="18" type="line"/>
    </contour>
    <contour>
      <point x="80" y="18" type="line"/>
      <point x="80" y="682" type="line"/>
      <point x="60" y="682" type="line"/>
      <point x="60" y="18" type="line"/>
    </contour>
    <contour>
      <point x="243" y="18" type="line"/>
      <point x="147" y="391" type="line"/>
      <point x="135" y="358" type="line"/>
      <point x="223" y="18" type="line"/>
    </contour>
  </outline>
</glyph>
<glyph name="P" format="1">
  <advance width="295"/>
  <unicode hex="0050"/>
  <outline>
    <contour>
      <point x="275" y="402" type="line" smooth="yes"/>
      <point x="275" y="346"/>
      <point x="221" y="300"/>
      <point x="155" y="300" type="curve" smooth="yes"/>
      <point x="120" y="300" type="line"/>
      <point x="120" y="18" type="line"/>
      <point x="145" y="18" type="line"/>
      <point x="145" y="0" type="line"/>
      <point x="15" y="0" type="line"/>
      <point x="15" y="18" type="line"/>
      <point x="40" y="18" type="line"/>
      <point x="40" y="682" type="line"/>
      <point x="15" y="682" type="line"/>
      <point x="15" y="700" type="line"/>
      <point x="155" y="700" type="line" smooth="yes"/>
      <point x="221" y="700"/>
      <point x="275" y="654"/>
      <point x="275" y="598" type="curve" smooth="yes"/>
    </contour>
    <contour>
      <point x="235" y="386" type="curve" smooth="yes"/>
      <point x="235" y="614" type="line" smooth="yes"/>
      <point x="235" y="643"/>
      <point x="221" y="663"/>
      <point x="199" y="677" type="curve"/>
      <point x="212" y="662"/>
      <point x="215" y="647"/>
      <point x="215" y="628" type="curve" smooth="yes"/>
      <point x="215" y="372" type="line" smooth="yes"/>
      <point x="215" y="353"/>
      <point x="212" y="338"/>
      <point x="199" y="323" type="curve"/>
      <point x="221" y="337"/>
      <point x="235" y="357"/>
    </contour>
    <contour>
      <point x="195" y="358" type="curve" smooth="yes"/>
      <point x="195" y="642" type="line" smooth="yes"/>
      <point x="195" y="664"/>
      <point x="177" y="682"/>
      <point x="155" y="682" type="curve" smooth="yes"/>
      <point x="120" y="682" type="line"/>
      <point x="120" y="318" type="line"/>
      <point x="155" y="318" type="line" smooth="yes"/>
      <point x="177" y="318"/>
      <point x="195" y="336"/>
    </contour>
    <contour>
      <point x="80" y="18" type="line"/>
      <point x="80" y="682" type="line"/>
      <point x="60" y="682" type="line"/>
      <point x="60" y="18" type="line"/>
    </contour>
  </outline>
</glyph>
<glyph name="S" format="1">
  <advance width="282"/>
  <unicode hex="0053"/>
  <outline>
    <contour>
      <point x="256" y="97" type="line" smooth="yes"/>
      <point x="256" y="41"/>
      <point x="207" y="-5"/>
      <point x="141" y="-5" type="curve" smooth="yes"/>
      <point x="75" y="-5"/>
      <point x="26" y="41"/>
      <point x="26" y="97" type="curve" smooth="yes"/>
      <point x="26" y="210" type="line"/>
      <point x="106" y="210" type="line"/>
      <point x="106" y="53" type="line" smooth="yes"/>
      <point x="106" y="31"/>
      <point x="119" y="13"/>
      <point x="141" y="13" type="curve" smooth="yes"/>
      <point x="163" y="13"/>
      <point x="176" y="31"/>
      <point x="176" y="53" type="curve" smooth="yes"/>
      <point x="176" y="175" type="line" smooth="yes"/>
      <point x="176" y="211"/>
      <point x="171" y="232"/>
      <point x="152" y="262" type="curve" smooth="yes"/>
      <point x="52" y="418" type="line" smooth="yes"/>
      <point x="33" y="448"/>
      <point x="26" y="474"/>
      <point x="26" y="508" type="curve" smooth="yes"/>
      <point x="26" y="603" type="line" smooth="yes"/>
      <point x="26" y="659"/>
      <point x="75" y="705"/>
      <point x="141" y="705" type="curve" smooth="yes"/>
      <point x="207" y="705"/>
      <point x="256" y="659"/>
      <point x="256" y="603" type="curve" smooth="yes"/>
      <point x="256" y="490" type="line"/>
      <point x="176" y="490" type="line"/>
      <point x="176" y="647" type="line" smooth="yes"/>
      <point x="176" y="669"/>
      <point x="163" y="687"/>
      <point x="141" y="687" type="curve" smooth="yes"/>
      <point x="119" y="687"/>
      <point x="106" y="669"/>
      <point x="106" y="647" type="curve" smooth="yes"/>
      <point x="106" y="530" type="line" smooth="yes"/>
      <point x="106" y="494"/>
      <point x="111" y="473"/>
      <point x="130" y="443" type="curve" smooth="yes"/>
      <point x="230" y="287" type="line" smooth="yes"/>
      <point x="249" y="257"/>
      <point x="256" y="231"/>
      <point x="256" y="197" type="curve" smooth="yes"/>
    </contour>
    <contour>
      <point x="216" y="508" type="line"/>
      <point x="216" y="619" type="line" smooth="yes"/>
      <point x="216" y="648"/>
      <point x="202" y="668"/>
      <point x="180" y="682" type="curve"/>
      <point x="193" y="667"/>
      <point x="196" y="652"/>
      <point x="196" y="633" type="curve" smooth="yes"/>
      <point x="196" y="508" type="line"/>
    </contour>
    <contour>
      <point x="216" y="81" type="curve" smooth="yes"/>
      <point x="216" y="186" type="line" smooth="yes"/>
      <point x="216" y="219"/>
      <point x="210" y="245"/>
      <point x="191" y="275" type="curve" smooth="yes"/>
      <point x="91" y="430" type="line" smooth="yes"/>
      <point x="72" y="460"/>
      <point x="66" y="485"/>
      <point x="66" y="519" type="curve" smooth="yes"/>
      <point x="66" y="622" type="line" smooth="yes"/>
      <point x="66" y="641"/>
      <point x="68" y="654"/>
      <point x="79" y="670" type="curve"/>
      <point x="60" y="657"/>
      <point x="46" y="638"/>
      <point x="46" y="610" type="curve" smooth="yes"/>
      <point x="46" y="514" type="line" smooth="yes"/>
      <point x="46" y="481"/>
      <point x="52" y="455"/>
      <point x="71" y="425" type="curve" smooth="yes"/>
      <point x="171" y="270" type="line" smooth="yes"/>
      <point x="190" y="240"/>
      <point x="196" y="215"/>
      <point x="196" y="181" type="curve" smooth="yes"/>
      <point x="196" y="67" type="line" smooth="yes"/>
      <point x="196" y="48"/>
      <point x="193" y="33"/>
      <point x="180" y="18" type="curve"/>
      <point x="202" y="32"/>
      <point x="216" y="52"/>
    </contour>
    <contour>
      <point x="79" y="30" type="curve"/>
      <point x="68" y="46"/>
      <point x="66" y="59"/>
      <point x="66" y="78" type="curve" smooth="yes"/>
      <point x="66" y="192" type="line"/>
      <point x="46" y="192" type="line"/>
      <point x="46" y="90" type="line" smooth="yes"/>
      <point x="46" y="62"/>
      <point x="60" y="43"/>
    </contour>
  </outline>
</glyph>
<glyph name="T" format="1">
  <advance width="330"/>
  <unicode hex="0054"/>
  <outline>
    <contour>
      <point x="315" y="490" type="line"/>
      <point x="241" y="490" type="line"/>
      <point x="241" y="682" type="line"/>
      <point x="205" y="682" type="line"/>
      <point x="205" y="18" type="line"/>
      <point x="230" y="18" type="line"/>
      <point x="230" y="0" type="line"/>
      <point x="100" y="0" type="line"/>
      <point x="100" y="18" type="line"/>
      <point x="125" y="18" type="line"/>
      <point x="125" y="682" type="line"/>
      <point x="89" y="682" type="line"/>
      <point x="89" y="490" type="line"/>
      <point x="15" y="490" type="line"/>
      <point x="15" y="700" type="line"/>
      <point x="315" y="700" type="line"/>
    </contour>
    <contour>
      <point x="281" y="508" type="line"/>
      <point x="281" y="682" type="line"/>
      <point x="261" y="682" type="line"/>
      <point x="261" y="508" type="line"/>
    </contour>
    <contour>
      <point x="55" y="508" type="line"/>
      <point x="55" y="682" type="line"/>
      <point x="35" y="682" type="line"/>
      <point x="35" y="508" type="line"/>
    </contour>
    <contour>
      <point x="165" y="18" type="line"/>
      <point x="165" y="682" type="line"/>
      <point x="145" y="682" type="line"/>
      <point x="145" y="18" type="line"/>
    </contour>
  </outline>
</glyph>
<glyph name="W" format="1">
  <advance width="393"/>
  <unicode hex="0057"/>
  <outline>
    <contour>
      <point x="388" y="682" type="line"/>
      <point x="363" y="682" type="line"/>
      <point x="316" y="0" type="line"/>
      <point x="236" y="0" type="line"/>
      <point x="198" y="577" type="line"/>
      <point x="162" y="0" type="line"/>
      <point x="82" y="0" type="line"/>
      <point x="30" y="682" type="line"/>
      <point x="5" y="682" type="line"/>
      <point x="5" y="700" type="line"/>
      <point x="135" y="700" type="line"/>
      <point x="135" y="682" type="line"/>
      <point x="110" y="682" type="line"/>
      <point x="147" y="113" type="line"/>
      <point x="185" y="700" type="line"/>
      <point x="265" y="700" type="line"/>
      <point x="304" y="113" type="line"/>
      <point x="338" y="682" type="line"/>
      <point x="313" y="682" type="line"/>
      <point x="313" y="700" type="line"/>
      <point x="388" y="700" type="line"/>
    </contour>
    <contour>
      <point x="276" y="18" type="line"/>
      <point x="229" y="682" type="line"/>
      <point x="209" y="682" type="line"/>
      <point x="256" y="18" type="line"/>
    </contour>
    <contour>
      <point x="122" y="18" type="line"/>
      <point x="70" y="682" type="line"/>
      <point x="50" y="682" type="line"/>
      <point x="102" y="18" type="line"/>
    </contour>
  </outline>
</glyph>
<glyph name="X" format="1">
  <advance width="265"/>
  <unicode hex="0058"/>
  <outline>
    <contour>
      <point x="260" y="0" type="line"/>
      <point x="125" y="0" type="line"/>
      <point x="125" y="18" type="line"/>
      <point x="150" y="18" type="line"/>
      <point x="106" y="275" type="line"/>
      <point x="53" y="18" type="line"/>
      <point x="78" y="18" type="line"/>
      <point x="78" y="0" type="line"/>
      <point x="5" y="0" type="line"/>
      <point x="5" y="18" type="line"/>
      <point x="30" y="18" type="line"/>
      <point x="95" y="333" type="line"/>
      <point x="35" y="682" type="line"/>
      <point x="10" y="682" type="line"/>
      <point x="10" y="700" type="line"/>
      <point x="145" y="700" type="line"/>
      <point x="145" y="682" type="line"/>
      <point x="120" y="682" type="line"/>
      <point x="160" y="454" type="line"/>
      <point x="207" y="682" type="line"/>
      <point x="182" y="682" type="line"/>
      <point x="182" y="700" type="line"/>
      <point x="255" y="700" type="line"/>
      <point x="255" y="682" type="line"/>
      <point x="230" y="682" type="line"/>
      <point x="169" y="397" type="line"/>
      <point x="235" y="18" type="line"/>
      <point x="260" y="18" type="line"/>
    </contour>
    <contour>
      <point x="193" y="18" type="line"/>
      <point x="78" y="682" type="line"/>
      <point x="58" y="682" type="line"/>
      <point x="173" y="18" type="line"/>
    </contour>
  </outline>
</glyph>
<glyph name="Z" format="1">
  <advance width="284"/>
  <unicode hex="005A"/>
  <outline>
    <contour>
      <point x="264" y="682" type="line"/>
      <point x="100" y="18" type="line"/>
      <point x="185" y="18" type="line"/>
      <point x="185" y="210" type="line"/>
      <point x="259" y="210" type="line"/>
      <point x="259" y="0" type="line"/>
      <point x="20" y="0" type="line"/>
      <point x="20" y="18" type="line"/>
      <point x="184" y="682" type="line"/>
      <point x="99" y="682" type="line"/>
      <point x="99" y="490" type="line"/>
      <point x="25" y="490" type="line"/>
      <point x="25" y="700" type="line"/>
      <point x="264" y="700" type="line"/>
    </contour>
    <contour>
      <point x="65" y="508" type="line"/>
      <point x="65" y="682" type="line"/>
      <point x="45" y="682" type="line"/>
      <point x="45" y="508" type="line"/>
    </contour>
    <contour>
      <point x="225" y="682" type="line"/>
      <point x="205" y="682" type="line"/>
      <point x="41" y="18" type="line"/>
      <point x="61" y="18" type="line"/>
    </contour>
    <contour>
      <point x="225" y="18" type="line"/>
      <point x="225" y="192" type="line"/>
      <point x="205" y="192" type="line"/>
      <point x="205" y="18" type="line"/>
    </contour>
  </outline>
</glyph>
<glyph name="backslash" format="1">
  <advance width="160"/>
  <unicode hex="005C"/>
  <outline>
    <contour>
      <point x="144" y="0" type="line"/>
      <point x="116" y="0" type="line"/>
      <point x="16" y="700" type="line"/>
      <point x="44" y="700" type="line"/>
    </contour>
  </outline>
</glyph>
<glyph name="grave" format="1">
  <advance width="300"/>
  <unicode hex="0060"/>
  <outline>
    <contour>
      <point x="197" y="550" type="line"/>
      <point x="175" y="550" type="line"/>
      <point x="71" y="690" type="line"/>
      <point x="71" y="700" type="line"/>
      <point x="156" y="700" type="line"/>
    </contour>
    <contour>
      <point x="180" y="565" type="line"/>
      <point x="123" y="683" type="line"/>
      <point x="100" y="683" type="line"/>
      <point x="176" y="565" type="line"/>
    </contour>
  </outline>
</glyph>
<glyph name="a" format="1">
  <advance width="269"/>
  <unicode hex="0061"/>
  <outline>
    <contour>
      <point x="264" y="0" type="line"/>
      <point x="161" y="0" type="line"/>
      <point x="161" y="14" type="line"/>
      <point x="146" y="1"/>
      <point x="128" y="-5"/>
      <point x="105" y="-5" type="curve" smooth="yes"/>
      <point x="49" y="-5"/>
      <point x="22" y="27"/>
      <point x="22" y="87" type="curve" smooth="yes"/>
      <point x="22" y="202" type="line" smooth="yes"/>
      <point x="22" y="273"/>
      <point x="72" y="299"/>
      <point x="137" y="299" type="curve" smooth="yes"/>
      <point x="161" y="299" type="line"/>
      <point x="161" y="467" type="line" smooth="yes"/>
      <point x="161" y="489"/>
      <point x="154" y="507"/>
      <point x="132" y="507" type="curve" smooth="yes"/>
      <point x="110" y="507"/>
      <point x="103" y="489"/>
      <point x="103" y="467" type="curve" smooth="yes"/>
      <point x="103" y="361" type="line"/>
      <point x="25" y="361" type="line"/>
      <point x="25" y="423" type="line" smooth="yes"/>
      <point x="25" y="484"/>
      <point x="66" y="525"/>
      <point x="132" y="525" type="curve" smooth="yes"/>
      <point x="198" y="525"/>
      <point x="239" y="484"/>
      <point x="239" y="423" type="curve" smooth="yes"/>
      <point x="239" y="18" type="line"/>
      <point x="264" y="18" type="line"/>
    </contour>
    <contour>
      <point x="77" y="495" type="curve"/>
      <point x="58" y="482"/>
      <point x="44" y="458"/>
      <point x="44" y="430" type="curve" smooth="yes"/>
      <point x="44" y="379" type="line"/>
      <point x="64" y="379" type="line"/>
      <point x="64" y="442" type="line" smooth="yes"/>
      <point x="64" y="461"/>
      <point x="66" y="479"/>
    </contour>
    <contour>
      <point x="200" y="18" type="line"/>
      <point x="200" y="442" type="line" smooth="yes"/>
      <point x="200" y="471"/>
      <point x="187" y="492"/>
      <point x="165" y="506" type="curve"/>
      <point x="178" y="491"/>
      <point x="180" y="475"/>
      <point x="180" y="456" type="curve" smooth="yes"/>
      <point x="180" y="18" type="line"/>
    </contour>
    <contour>
      <point x="161" y="32" type="curve"/>
      <point x="161" y="281" type="line"/>
      <point x="138" y="281" type="line" smooth="yes"/>
      <point x="112" y="281"/>
      <point x="100" y="266"/>
      <point x="100" y="241" type="curve" smooth="yes"/>
      <point x="100" y="53" type="line" smooth="yes"/>
      <point x="100" y="31"/>
      <point x="105" y="15"/>
      <point x="127" y="15" type="curve" smooth="yes"/>
      <point x="141" y="15"/>
      <point x="150" y="21"/>
    </contour>
    <contour>
      <point x="80" y="13" type="curve"/>
      <point x="69" y="24"/>
      <point x="61" y="45"/>
      <point x="61" y="66" type="curve" smooth="yes"/>
      <point x="61" y="219" type="line" smooth="yes"/>
      <point x="61" y="238"/>
      <point x="63" y="255"/>
      <point x="74" y="271" type="curve"/>
      <point x="53" y="260"/>
      <point x="41" y="234"/>
      <point x="41" y="207" type="curve" smooth="yes"/>
      <point x="41" y="77" type="line" smooth="yes"/>
      <point x="41" y="42"/>
      <point x="58" y="19"/>
    </contour>
  </outline>
</glyph>
<glyph name="b" format="1">
  <advance width="280"/>
  <unicode hex="0062"/>
  <outline>
    <contour>
      <point x="254" y="87" type="line" smooth="yes"/>
      <point x="254" y="27"/>
      <point x="225" y="-5"/>
      <point x="169" y="-5" type="curve" smooth="yes"/>
      <point x="146" y="-5"/>
      <point x="126" y="1"/>
      <point x="111" y="14" type="curve"/>
      <point x="111" y="0" type="line"/>
      <point x="8" y="0" type="line"/>
      <point x="8" y="18" type="line"/>
      <point x="33" y="18" type="line"/>
      <point x="33" y="682" type="line"/>
      <point x="8" y="682" type="line"/>
      <point x="8" y="700" type="line"/>
      <point x="111" y="700" type="line"/>
      <point x="111" y="506" type="line"/>
      <point x="126" y="519"/>
      <point x="146" y="525"/>
      <point x="169" y="525" type="curve" smooth="yes"/>
      <point x="225" y="525"/>
      <point x="254" y="493"/>
      <point x="254" y="433" type="curve" smooth="yes"/>
    </contour>
    <contour>
      <point x="215" y="70" type="curve" smooth="yes"/>
      <point x="215" y="450" type="line" smooth="yes"/>
      <point x="215" y="483"/>
      <point x="201" y="498"/>
      <point x="181" y="506" type="curve"/>
      <point x="192" y="495"/>
      <point x="195" y="480"/>
      <point x="195" y="459" type="curve" smooth="yes"/>
      <point x="195" y="61" type="line" smooth="yes"/>
      <point x="195" y="40"/>
      <point x="192" y="25"/>
      <point x="181" y="14" type="curve"/>
      <point x="201" y="22"/>
      <point x="215" y="37"/>
    </contour>
    <contour>
      <point x="72" y="18" type="line"/>
      <point x="72" y="682" type="line"/>
      <point x="52" y="682" type="line"/>
      <point x="52" y="18" type="line"/>
    </contour>
    <contour>
      <point x="176" y="53" type="curve" smooth="yes"/>
      <point x="176" y="467" type="line" smooth="yes"/>
      <point x="176" y="489"/>
      <point x="169" y="505"/>
      <point x="147" y="505" type="curve" smooth="yes"/>
      <point x="133" y="505"/>
      <point x="122" y="499"/>
      <point x="111" y="488" type="curve"/>
      <point x="111" y="32" type="line"/>
      <point x="122" y="21"/>
      <point x="133" y="15"/>
      <point x="147" y="15" type="curve" smooth="yes"/>
      <point x="169" y="15"/>
      <point x="176" y="31"/>
    </contour>
  </outline>
</glyph>
<glyph name="d" format="1">
  <advance width="280"/>
  <unicode hex="0064"/>
  <outline>
    <contour>
      <point x="272" y="0" type="line"/>
      <point x="169" y="0" type="line"/>
      <point x="169" y="14" type="line"/>
      <point x="154" y="1"/>
      <point x="134" y="-5"/>
      <point x="111" y="-5" type="curve" smooth="yes"/>
      <point x="55" y="-5"/>
      <point x="26" y="27"/>
      <point x="26" y="87" type="curve" smooth="yes"/>
      <point x="26" y="433" type="line" smooth="yes"/>
      <point x="26" y="493"/>
      <point x="55" y="525"/>
      <point x="111" y="525" type="curve" smooth="yes"/>
      <point x="134" y="525"/>
      <point x="154" y="519"/>
      <point x="169" y="506" type="curve"/>
      <point x="169" y="682" type="line"/>
      <point x="144" y="682" type="line"/>
      <point x="144" y="700" type="line"/>
      <point x="247" y="700" type="line"/>
      <point x="247" y="18" type="line"/>
      <point x="272" y="18" type="line"/>
    </contour>
    <contour>
      <point x="208" y="18" type="line"/>
      <point x="208" y="682" type="line"/>
      <point x="188" y="682" type="line"/>
      <point x="188" y="18" type="line"/>
    </contour>
    <contour>
      <point x="169" y="32" type="curve"/>
      <point x="169" y="488" type="line"/>
      <point x="158" y="499"/>
      <point x="147" y="505"/>
      <point x="133" y="505" type="curve" smooth="yes"/>
      <point x="111" y="505"/>
      <point x="104" y="489"/>
      <point x="104" y="467" type="curve" smooth="yes"/>
      <point x="104" y="53" type="line" smooth="yes"/>
      <point x="104" y="31"/>
      <point x="111" y="15"/>
      <point x="133" y="15" type="curve" smooth="yes"/>
      <point x="147" y="15"/>
      <point x="158" y="21"/>
    </contour>
    <contour>
      <point x="84" y="13" type="curve"/>
      <point x="73" y="24"/>
      <point x="65" y="45"/>
      <point x="65" y="66" type="curve" smooth="yes"/>
      <point x="65" y="454" type="line" smooth="yes"/>
      <point x="65" y="475"/>
      <point x="73" y="496"/>
      <point x="84" y="507" type="curve"/>
      <point x="62" y="501"/>
      <point x="45" y="478"/>
      <point x="45" y="443" type="curve" smooth="yes"/>
      <point x="45" y="77" type="line" smooth="yes"/>
      <point x="45" y="42"/>
      <point x="62" y="19"/>
    </contour>
  </outline>
</glyph>
<glyph name="f" format="1">
  <advance width="168"/>
  <unicode hex="0066"/>
  <outline>
    <contour>
      <point x="176" y="682" type="line"/>
      <point x="151" y="682" type="line" smooth="yes"/>
      <point x="129" y="682"/>
      <point x="116" y="664"/>
      <point x="116" y="642" type="curve" smooth="yes"/>
      <point x="116" y="520" type="line"/>
      <point x="156" y="520" type="line"/>
      <point x="156" y="502" type="line"/>
      <point x="116" y="502" type="line"/>
      <point x="116" y="18" type="line"/>
      <point x="141" y="18" type="line"/>
      <point x="141" y="0" type="line"/>
      <point x="13" y="0" type="line"/>
      <point x="13" y="18" type="line"/>
      <point x="38" y="18" type="line"/>
      <point x="38" y="502" type="line"/>
      <point x="13" y="502" type="line"/>
      <point x="13" y="520" type="line"/>
      <point x="38" y="520" type="line"/>
      <point x="38" y="598" type="line" smooth="yes"/>
      <point x="38" y="654"/>
      <point x="85" y="700"/>
      <point x="151" y="700" type="curve" smooth="yes"/>
      <point x="176" y="700" type="line"/>
    </contour>
    <contour>
      <point x="90" y="667" type="curve"/>
      <point x="71" y="654"/>
      <point x="57" y="633"/>
      <point x="57" y="605" type="curve" smooth="yes"/>
      <point x="57" y="18" type="line"/>
      <point x="77" y="18" type="line"/>
      <point x="77" y="617" type="line" smooth="yes"/>
      <point x="77" y="636"/>
      <point x="79" y="651"/>
    </contour>
  </outline>
</glyph>
<glyph name="g" format="1">
  <advance width="280"/>
  <unicode hex="0067"/>
  <outline>
    <contour>
      <point x="272" y="502" type="line"/>
      <point x="247" y="502" type="line"/>
      <point x="247" y="-43" type="line" smooth="yes"/>
      <point x="247" y="-99"/>
      <point x="204" y="-145"/>
      <point x="138" y="-145" type="curve" smooth="yes"/>
      <point x="78" y="-145"/>
      <point x="26" y="-99"/>
      <point x="26" y="-43" type="curve" smooth="yes"/>
      <point x="26" y="-25" type="line"/>
      <point x="104" y="-25" type="line"/>
      <point x="104" y="-87" type="line" smooth="yes"/>
      <point x="104" y="-109"/>
      <point x="118" y="-127"/>
      <point x="138" y="-127" type="curve" smooth="yes"/>
      <point x="160" y="-127"/>
      <point x="169" y="-109"/>
      <point x="169" y="-87" type="curve" smooth="yes"/>
      <point x="169" y="24" type="line"/>
      <point x="154" y="11"/>
      <point x="134" y="5"/>
      <point x="111" y="5" type="curve" smooth="yes"/>
      <point x="55" y="5"/>
      <point x="26" y="37"/>
      <point x="26" y="97" type="curve" smooth="yes"/>
      <point x="26" y="433" type="line" smooth="yes"/>
      <point x="26" y="493"/>
      <point x="55" y="525"/>
      <point x="111" y="525" type="curve" smooth="yes"/>
      <point x="134" y="525"/>
      <point x="154" y="519"/>
      <point x="169" y="506" type="curve"/>
      <point x="169" y="520" type="line"/>
      <point x="272" y="520" type="line"/>
    </contour>
    <contour>
      <point x="169" y="42" type="curve"/>
      <point x="169" y="488" type="line"/>
      <point x="158" y="499"/>
      <point x="147" y="505"/>
      <point x="133" y="505" type="curve" smooth="yes"/>
      <point x="111" y="505"/>
      <point x="104" y="489"/>
      <point x="104" y="467" type="curve" smooth="yes"/>
      <point x="104" y="63" type="line" smooth="yes"/>
      <point x="104" y="41"/>
      <point x="111" y="25"/>
      <point x="133" y="25" type="curve" smooth="yes"/>
      <point x="147" y="25"/>
      <point x="158" y="31"/>
    </contour>
    <contour>
      <point x="208" y="-59" type="curve" smooth="yes"/>
      <point x="208" y="502" type="line"/>
      <point x="188" y="502" type="line"/>
      <point x="188" y="-73" type="line" smooth="yes"/>
      <point x="188" y="-92"/>
      <point x="186" y="-108"/>
      <point x="173" y="-123" type="curve"/>
      <point x="195" y="-109"/>
      <point x="208" y="-88"/>
    </contour>
    <contour>
      <point x="84" y="23" type="curve"/>
      <point x="73" y="34"/>
      <point x="65" y="55"/>
      <point x="65" y="76" type="curve" smooth="yes"/>
      <point x="65" y="454" type="line" smooth="yes"/>
      <point x="65" y="475"/>
      <point x="73" y="496"/>
      <point x="84" y="507" type="curve"/>
      <point x="62" y="501"/>
      <point x="45" y="478"/>
      <point x="45" y="443" type="curve" smooth="yes"/>
      <point x="45" y="87" type="line" smooth="yes"/>
      <point x="45" y="52"/>
      <point x="62" y="29"/>
    </contour>
    <contour>
      <point x="78" y="-112" type="curve"/>
      <point x="67" y="-96"/>
      <point x="65" y="-81"/>
      <point x="65" y="-62" type="curve" smooth="yes"/>
      <point x="65" y="-43" type="line"/>
      <point x="45" y="-43" type="line"/>
      <point x="45" y="-50" type="line" smooth="yes"/>
      <point x="45" y="-78"/>
      <point x="59" y="-99"/>
    </contour>
  </outline>
</glyph>
<glyph name="h" format="1">
  <advance width="284"/>
  <unicode hex="0068"/>
  <outline>
    <contour>
      <point x="279" y="0" type="line"/>
      <point x="176" y="0" type="line"/>
      <point x="176" y="467" type="line" smooth="yes"/>
      <point x="176" y="489"/>
      <point x="169" y="505"/>
      <point x="147" y="505" type="curve" smooth="yes"/>
      <point x="133" y="505"/>
      <point x="122" y="499"/>
      <point x="111" y="488" type="curve"/>
      <point x="111" y="18" type="line"/>
      <point x="136" y="18" type="line"/>
      <point x="136" y="0" type="line"/>
      <point x="8" y="0" type="line"/>
      <point x="8" y="18" type="line"/>
      <point x="33" y="18" type="line"/>
      <point x="33" y="682" type="line"/>
      <point x="8" y="682" type="line"/>
      <point x="8" y="700" type="line"/>
      <point x="111" y="700" type="line"/>
      <point x="111" y="506" type="line"/>
      <point x="126" y="519"/>
      <point x="146" y="525"/>
      <point x="169" y="525" type="curve" smooth="yes"/>
      <point x="225" y="525"/>
      <point x="254" y="493"/>
      <point x="254" y="433" type="curve" smooth="yes"/>
      <point x="254" y="18" type="line"/>
      <point x="279" y="18" type="line"/>
    </contour>
    <contour>
      <point x="215" y="18" type="line"/>
      <point x="215" y="450" type="line" smooth="yes"/>
      <point x="215" y="483"/>
      <point x="201" y="498"/>
      <point x="181" y="506" type="curve"/>
      <point x="192" y="495"/>
      <point x="195" y="480"/>
      <point x="195" y="459" type="curve" smooth="yes"/>
      <point x="195" y="18" type="line"/>
    </contour>
    <contour>
      <point x="72" y="18" type="line"/>
      <point x="72" y="682" type="line"/>
      <point x="52" y="682" type="line"/>
      <point x="52" y="18" type="line"/>
    </contour>
  </outline>
</glyph>
<glyph name="i" format="1">
  <advance width="152"/>
  <unicode hex="0069"/>
  <outline>
    <contour>
      <point x="116" y="580" type="line"/>
      <point x="38" y="580" type="line"/>
      <point x="38" y="700" type="line"/>
      <point x="116" y="700" type="line"/>
    </contour>
    <contour>
      <point x="141" y="0" type="line"/>
      <point x="13" y="0" type="line"/>
      <point x="13" y="18" type="line"/>
      <point x="38" y="18" type="line"/>
      <point x="38" y="502" type="line"/>
      <point x="13" y="502" type="line"/>
      <point x="13" y="520" type="line"/>
      <point x="116" y="520" type="line"/>
      <point x="116" y="18" type="line"/>
      <point x="141" y="18" type="line"/>
    </contour>
    <contour>
      <point x="77" y="598" type="line"/>
      <point x="77" y="682" type="line"/>
      <point x="57" y="682" type="line"/>
      <point x="57" y="598" type="line"/>
    </contour>
    <contour>
      <point x="77" y="18" type="line"/>
      <point x="77" y="502" type="line"/>
      <point x="57" y="502" type="line"/>
      <point x="57" y="18" type="line"/>
    </contour>
  </outline>
</glyph>
<glyph name="j" format="1">
  <advance width="152"/>
  <unicode hex="006A"/>
  <outline>
    <contour>
      <point x="114" y="580" type="line"/>
      <point x="36" y="580" type="line"/>
      <point x="36" y="700" type="line"/>
      <point x="114" y="700" type="line"/>
    </contour>
    <contour>
      <point x="114" y="-38" type="line" smooth="yes"/>
      <point x="114" y="-94"/>
      <point x="67" y="-140"/>
      <point x="1" y="-140" type="curve" smooth="yes"/>
      <point x="-24" y="-140" type="line"/>
      <point x="-24" y="-122" type="line"/>
      <point x="1" y="-122" type="line" smooth="yes"/>
      <point x="23" y="-122"/>
      <point x="36" y="-104"/>
      <point x="36" y="-82" type="curve" smooth="yes"/>
      <point x="36" y="502" type="line"/>
      <point x="11" y="502" type="line"/>
      <point x="11" y="520" type="line"/>
      <point x="114" y="520" type="line"/>
    </contour>
    <contour>
      <point x="75" y="598" type="line"/>
      <point x="75" y="682" type="line"/>
      <point x="55" y="682" type="line"/>
      <point x="55" y="598" type="line"/>
    </contour>
    <contour>
      <point x="75" y="-54" type="curve" smooth="yes"/>
      <point x="75" y="502" type="line"/>
      <point x="55" y="502" type="line"/>
      <point x="55" y="-68" type="line" smooth="yes"/>
      <point x="55" y="-87"/>
      <point x="53" y="-103"/>
      <point x="40" y="-118" type="curve"/>
      <point x="62" y="-104"/>
      <point x="75" y="-83"/>
    </contour>
  </outline>
</glyph>
<glyph name="k" format="1">
  <advance width="281"/>
  <unicode hex="006B"/>
  <outline>
    <contour>
      <point x="277" y="0" type="line"/>
      <point x="176" y="0" type="line"/>
      <point x="111" y="255" type="line"/>
      <point x="111" y="18" type="line"/>
      <point x="136" y="18" type="line"/>
      <point x="136" y="0" type="line"/>
      <point x="8" y="0" type="line"/>
      <point x="8" y="18" type="line"/>
      <point x="33" y="18" type="line"/>
      <point x="33" y="682" type="line"/>
      <point x="8" y="682" type="line"/>
      <point x="8" y="700" type="line"/>
      <point x="111" y="700" type="line"/>
      <point x="111" y="289" type="line"/>
      <point x="211" y="502" type="line"/>
      <point x="185" y="502" type="line"/>
      <point x="185" y="520" type="line"/>
      <point x="261" y="520" type="line"/>
      <point x="261" y="502" type="line"/>
      <point x="236" y="502" type="line"/>
      <point x="162" y="342" type="line"/>
      <point x="250" y="18" type="line"/>
      <point x="277" y="18" type="line"/>
    </contour>
    <contour>
      <point x="72" y="18" type="line"/>
      <point x="72" y="682" type="line"/>
      <point x="52" y="682" type="line"/>
      <point x="52" y="18" type="line"/>
    </contour>
    <contour>
      <point x="212" y="18" type="line"/>
      <point x="140" y="298" type="line"/>
      <point x="128" y="269" type="line"/>
      <point x="192" y="18" type="line"/>
    </contour>
  </outline>
</glyph>
<glyph name="l" format="1">
  <advance width="150"/>
  <unicode hex="006C"/>
  <outline>
    <contour>
      <point x="139" y="0" type="line"/>
      <point x="11" y="0" type="line"/>
      <point x="11" y="18" type="line"/>
      <point x="36" y="18" type="line"/>
      <point x="36" y="682" type="line"/>
      <point x="11" y="682" type="line"/>
      <point x="11" y="700" type="line"/>
      <point x="114" y="700" type="line"/>
      <point x="114" y="18" type="line"/>
      <point x="139" y="18" type="line"/>
    </contour>
    <contour>
      <point x="75" y="18" type="line"/>
      <point x="75" y="682" type="line"/>
      <point x="55" y="682" type="line"/>
      <point x="55" y="18" type="line"/>
    </contour>
  </outline>
</glyph>
<glyph name="n" format="1">
  <advance width="286"/>
  <unicode hex="006E"/>
  <outline>
    <contour>
      <point x="281" y="0" type="line"/>
      <point x="178" y="0" type="line"/>
      <point x="178" y="467" type="line" smooth="yes"/>
      <point x="178" y="489"/>
      <point x="171" y="505"/>
      <point x="149" y="505" type="curve" smooth="yes"/>
      <point x="135" y="505"/>
      <point x="124" y="499"/>
      <point x="113" y="488" type="curve"/>
      <point x="113" y="18" type="line"/>
      <point x="138" y="18" type="line"/>
      <point x="138" y="0" type="line"/>
      <point x="10" y="0" type="line"/>
      <point x="10" y="18" type="line"/>
      <point x="35" y="18" type="line"/>
      <point x="35" y="502" type="line"/>
      <point x="10" y="502" type="line"/>
      <point x="10" y="520" type="line"/>
      <point x="113" y="520" type="line"/>
      <point x="113" y="506" type="line"/>
      <point x="128" y="519"/>
      <point x="148" y="525"/>
      <point x="171" y="525" type="curve" smooth="yes"/>
      <point x="227" y="525"/>
      <point x="256" y="493"/>
      <point x="256" y="433" type="curve" smooth="yes"/>
      <point x="256" y="18" type="line"/>
      <point x="281" y="18" type="line"/>
    </contour>
    <contour>
      <point x="217" y="18" type="line"/>
      <point x="217" y="450" type="line" smooth="yes"/>
      <point x="217" y="483"/>
      <point x="203" y="498"/>
      <point x="183" y="506" type="curve"/>
      <point x="194" y="495"/>
      <point x="197" y="480"/>
      <point x="197" y="459" type="curve" smooth="yes"/>
      <point x="197" y="18" type="line"/>
    </contour>
    <contour>
      <point x="74" y="18" type="line"/>
      <point x="74" y="502" type="line"/>
      <point x="54" y="502" type="line"/>
      <point x="54" y="18" type="line"/>
    </contour>
  </outline>
</glyph>
<glyph name="o" format="1">
  <advance width="276"/>
  <unicode hex="006F"/>
  <outline>
    <contour>
      <point x="251" y="97" type="line" smooth="yes"/>
      <point x="251" y="41"/>
      <point x="204" y="-5"/>
      <point x="138" y="-5" type="curve" smooth="yes"/>
      <point x="72" y="-5"/>
      <point x="25" y="41"/>
      <point x="25" y="97" type="curve" smooth="yes"/>
      <point x="25" y="423" type="line" smooth="yes"/>
      <point x="25" y="479"/>
      <point x="72" y="525"/>
      <point x="138" y="525" type="curve" smooth="yes"/>
      <point x="204" y="525"/>
      <point x="251" y="479"/>
      <point x="251" y="423" type="curve" smooth="yes"/>
    </contour>
    <contour>
      <point x="212" y="81" type="curve" smooth="yes"/>
      <point x="212" y="439" type="line" smooth="yes"/>
      <point x="212" y="470"/>
      <point x="198" y="489"/>
      <point x="176" y="503" type="curve"/>
      <point x="189" y="489"/>
      <point x="192" y="472"/>
      <point x="192" y="453" type="curve" smooth="yes"/>
      <point x="192" y="67" type="line" smooth="yes"/>
      <point x="192" y="48"/>
      <point x="189" y="31"/>
      <point x="176" y="17" type="curve"/>
      <point x="198" y="31"/>
      <point x="212" y="50"/>
    </contour>
    <contour>
      <point x="173" y="53" type="curve" smooth="yes"/>
      <point x="173" y="467" type="line" smooth="yes"/>
      <point x="173" y="489"/>
      <point x="160" y="507"/>
      <point x="138" y="507" type="curve" smooth="yes"/>
      <point x="116" y="507"/>
      <point x="103" y="489"/>
      <point x="103" y="467" type="curve" smooth="yes"/>
      <point x="103" y="53" type="line" smooth="yes"/>
      <point x="103" y="31"/>
      <point x="116" y="13"/>
      <point x="138" y="13" type="curve" smooth="yes"/>
      <point x="160" y="13"/>
      <point x="173" y="31"/>
    </contour>
    <contour>
      <point x="77" y="28" type="curve"/>
      <point x="66" y="44"/>
      <point x="64" y="59"/>
      <point x="64" y="78" type="curve" smooth="yes"/>
      <point x="64" y="442" type="line" smooth="yes"/>
      <point x="64" y="461"/>
      <point x="66" y="476"/>
      <point x="77" y="492" type="curve"/>
      <point x="58" y="479"/>
      <point x="44" y="458"/>
      <point x="44" y="430" type="curve" smooth="yes"/>
      <point x="44" y="90" type="line" smooth="yes"/>
      <point x="44" y="62"/>
      <point x="58" y="41"/>
    </contour>
  </outline>
</glyph>
<glyph name="r" format="1">
  <advance width="261"/>
  <unicode hex="0072"/>
  <outline>
    <contour>
      <point x="246" y="361" type="line"/>
      <point x="168" y="361" type="line"/>
      <point x="168" y="467" type="line" smooth="yes"/>
      <point x="168" y="489"/>
      <point x="166" y="505"/>
      <point x="144" y="505" type="curve" smooth="yes"/>
      <point x="133" y="505"/>
      <point x="123" y="499"/>
      <point x="113" y="488" type="curve"/>
      <point x="113" y="18" type="line"/>
      <point x="138" y="18" type="line"/>
      <point x="138" y="0" type="line"/>
      <point x="10" y="0" type="line"/>
      <point x="10" y="18" type="line"/>
      <point x="35" y="18" type="line"/>
      <point x="35" y="502" type="line"/>
      <point x="10" y="502" type="line"/>
      <point x="10" y="520" type="line"/>
      <point x="113" y="520" type="line"/>
      <point x="113" y="506" type="line"/>
      <point x="128" y="519"/>
      <point x="145" y="525"/>
      <point x="168" y="525" type="curve" smooth="yes"/>
      <point x="224" y="525"/>
      <point x="246" y="493"/>
      <point x="246" y="433" type="curve" smooth="yes"/>
    </contour>
    <contour>
      <point x="207" y="379" type="line"/>
      <point x="207" y="450" type="line" smooth="yes"/>
      <point x="207" y="483"/>
      <point x="195" y="497"/>
      <point x="175" y="505" type="curve"/>
      <point x="186" y="494"/>
      <point x="187" y="480"/>
      <point x="187" y="459" type="curve" smooth="yes"/>
      <point x="187" y="379" type="line"/>
    </contour>
    <contour>
      <point x="74" y="18" type="line"/>
      <point x="74" y="502" type="line"/>
      <point x="54" y="502" type="line"/>
      <point x="54" y="18" type="line"/>
    </contour>
  </outline>
</glyph>
<glyph name="s" format="1">
  <advance width="260"/>
  <unicode hex="0073"/>
  <outline>
    <contour>
      <point x="239" y="97" type="line" smooth="yes"/>
      <point x="239" y="41"/>
      <point x="197" y="-5"/>
      <point x="131" y="-5" type="curve" smooth="yes"/>
      <point x="65" y="-5"/>
      <point x="21" y="41"/>
      <point x="21" y="97" type="curve" smooth="yes"/>
      <point x="21" y="159" type="line"/>
      <point x="99" y="159" type="line"/>
      <point x="99" y="53" type="line" smooth="yes"/>
      <point x="99" y="31"/>
      <point x="109" y="13"/>
      <point x="131" y="13" type="curve" smooth="yes"/>
      <point x="153" y="13"/>
      <point x="161" y="31"/>
      <point x="161" y="53" type="curve" smooth="yes"/>
      <point x="161" y="130" type="line" smooth="yes"/>
      <point x="161" y="166"/>
      <point x="158" y="181"/>
      <point x="134" y="205" type="curve" smooth="yes"/>
      <point x="52" y="286" type="line" smooth="yes"/>
      <point x="26" y="312"/>
      <point x="21" y="337"/>
      <point x="21" y="375" type="curve" smooth="yes"/>
      <point x="21" y="423" type="line" smooth="yes"/>
      <point x="21" y="479"/>
      <point x="63" y="525"/>
      <point x="129" y="525" type="curve" smooth="yes"/>
      <point x="195" y="525"/>
      <point x="237" y="479"/>
      <point x="237" y="423" type="curve" smooth="yes"/>
      <point x="237" y="361" type="line"/>
      <point x="159" y="361" type="line"/>
      <point x="159" y="467" type="line" smooth="yes"/>
      <point x="159" y="489"/>
      <point x="151" y="507"/>
      <point x="129" y="507" type="curve" smooth="yes"/>
      <point x="107" y="507"/>
      <point x="99" y="489"/>
      <point x="99" y="467" type="curve" smooth="yes"/>
      <point x="99" y="398" type="line" smooth="yes"/>
      <point x="99" y="362"/>
      <point x="102" y="347"/>
      <point x="126" y="323" type="curve" smooth="yes"/>
      <point x="208" y="242" type="line" smooth="yes"/>
      <point x="234" y="216"/>
      <point x="239" y="191"/>
      <point x="239" y="153" type="curve" smooth="yes"/>
    </contour>
    <contour>
      <point x="198" y="379" type="line"/>
      <point x="198" y="439" type="line" smooth="yes"/>
      <point x="198" y="468"/>
      <point x="184" y="489"/>
      <point x="162" y="503" type="curve"/>
      <point x="175" y="488"/>
      <point x="178" y="472"/>
      <point x="178" y="453" type="curve" smooth="yes"/>
      <point x="178" y="379" type="line"/>
    </contour>
    <contour>
      <point x="200" y="81" type="curve" smooth="yes"/>
      <point x="200" y="140" type="line" smooth="yes"/>
      <point x="200" y="175"/>
      <point x="196" y="199"/>
      <point x="172" y="223" type="curve" smooth="yes"/>
      <point x="86" y="309" type="line" smooth="yes"/>
      <point x="62" y="333"/>
      <point x="60" y="352"/>
      <point x="60" y="389" type="curve" smooth="yes"/>
      <point x="60" y="442" type="line" smooth="yes"/>
      <point x="60" y="461"/>
      <point x="62" y="476"/>
      <point x="73" y="492" type="curve"/>
      <point x="54" y="479"/>
      <point x="40" y="458"/>
      <point x="40" y="430" type="curve" smooth="yes"/>
      <point x="40" y="382" type="line" smooth="yes"/>
      <point x="40" y="347"/>
      <point x="44" y="323"/>
      <point x="68" y="299" type="curve" smooth="yes"/>
      <point x="154" y="213" type="line" smooth="yes"/>
      <point x="178" y="189"/>
      <point x="180" y="170"/>
      <point x="180" y="133" type="curve" smooth="yes"/>
      <point x="180" y="67" type="line" smooth="yes"/>
      <point x="180" y="48"/>
      <point x="177" y="32"/>
      <point x="164" y="17" type="curve"/>
      <point x="186" y="31"/>
      <point x="200" y="52"/>
    </contour>
    <contour>
      <point x="73" y="28" type="curve"/>
      <point x="62" y="44"/>
      <point x="60" y="59"/>
      <point x="60" y="78" type="curve" smooth="yes"/>
      <point x="60" y="141" type="line"/>
      <point x="40" y="141" type="line"/>
      <point x="40" y="90" type="line" smooth="yes"/>
      <point x="40" y="62"/>
      <point x="54" y="41"/>
    </contour>
  </outline>
</glyph>
<glyph name="v" format="1">
  <advance width="264"/>
  <unicode hex="0076"/>
  <outline>
    <contour>
      <point x="259" y="502" type="line"/>
      <point x="234" y="502" type="line"/>
      <point x="168" y="0" type="line"/>
      <point x="96" y="0" type="line"/>
      <point x="30" y="502" type="line"/>
      <point x="5" y="502" type="line"/>
      <point x="5" y="520" type="line"/>
      <point x="139" y="520" type="line"/>
      <point x="139" y="502" type="line"/>
      <point x="114" y="502" type="line"/>
      <point x="159" y="95" type="line"/>
      <point x="208" y="502" type="line"/>
      <point x="183" y="502" type="line"/>
      <point x="183" y="520" type="line"/>
      <point x="259" y="520" type="line"/>
    </contour>
    <contour>
      <point x="134" y="18" type="line"/>
      <point x="71" y="502" type="line"/>
      <point x="51" y="502" type="line"/>
      <point x="114" y="18" type="line"/>
    </contour>
  </outline>
</glyph>
<glyph name="w" format="1">
  <advance width="363"/>
  <unicode hex="0077"/>
  <outline>
    <contour>
      <point x="358" y="502" type="line"/>
      <point x="333" y="502" type="line"/>
      <point x="287" y="0" type="line"/>
      <point x="211" y="0" type="line"/>
      <point x="177" y="379" type="line"/>
      <point x="152" y="0" type="line"/>
      <point x="76" y="0" type="line"/>
      <point x="30" y="502" type="line"/>
      <point x="5" y="502" type="line"/>
      <point x="5" y="520" type="line"/>
      <point x="132" y="520" type="line"/>
      <point x="132" y="502" type="line"/>
      <point x="107" y="502" type="line"/>
      <point x="135" y="108" type="line"/>
      <point x="163" y="520" type="line"/>
      <point x="237" y="520" type="line"/>
      <point x="272" y="108" type="line"/>
      <point x="305" y="502" type="line"/>
      <point x="280" y="502" type="line"/>
      <point x="280" y="520" type="line"/>
      <point x="358" y="520" type="line"/>
    </contour>
    <contour>
      <point x="248" y="18" type="line"/>
      <point x="204" y="502" type="line"/>
      <point x="185" y="502" type="line"/>
      <point x="229" y="18" type="line"/>
    </contour>
    <contour>
      <point x="113" y="18" type="line"/>
      <point x="69" y="502" type="line"/>
      <point x="50" y="502" type="line"/>
      <point x="94" y="18" type="line"/>
    </contour>
  </outline>
</glyph>
<glyph name="x" format="1">
  <advance width="255"/>
  <unicode hex="0078"/>
  <outline>
    <contour>
      <point x="250" y="0" type="line"/>
      <point x="118" y="0" type="line"/>
      <point x="118" y="18" type="line"/>
      <point x="143" y="18" type="line"/>
      <point x="105" y="188" type="line"/>
      <point x="56" y="18" type="line"/>
      <point x="81" y="18" type="line"/>
      <point x="81" y="0" type="line"/>
      <point x="5" y="0" type="line"/>
      <point x="5" y="18" type="line"/>
      <point x="30" y="18" type="line"/>
      <point x="95" y="232" type="line"/>
      <point x="32" y="502" type="line"/>
      <point x="7" y="502" type="line"/>
      <point x="7" y="520" type="line"/>
      <point x="139" y="520" type="line"/>
      <point x="139" y="502" type="line"/>
      <point x="114" y="502" type="line"/>
      <point x="150" y="340" type="line"/>
      <point x="197" y="502" type="line"/>
      <point x="172" y="502" type="line"/>
      <point x="172" y="520" type="line"/>
      <point x="248" y="520" type="line"/>
      <point x="248" y="502" type="line"/>
      <point x="223" y="502" type="line"/>
      <point x="160" y="295" type="line"/>
      <point x="225" y="18" type="line"/>
      <point x="250" y="18" type="line"/>
    </contour>
    <contour>
      <point x="184" y="18" type="line"/>
      <point x="73" y="502" type="line"/>
      <point x="53" y="502" type="line"/>
      <point x="164" y="18" type="line"/>
    </contour>
  </outline>
</glyph>
<glyph name="y" format="1">
  <advance width="282"/>
  <unicode hex="0079"/>
  <outline>
    <contour>
      <point x="251" y="-43" type="line" smooth="yes"/>
      <point x="251" y="-99"/>
      <point x="208" y="-145"/>
      <point x="142" y="-145" type="curve" smooth="yes"/>
      <point x="82" y="-145"/>
      <point x="30" y="-99"/>
      <point x="30" y="-43" type="curve" smooth="yes"/>
      <point x="30" y="-25" type="line"/>
      <point x="108" y="-25" type="line"/>
      <point x="108" y="-87" type="line" smooth="yes"/>
      <point x="108" y="-109"/>
      <point x="122" y="-127"/>
      <point x="142" y="-127" type="curve" smooth="yes"/>
      <point x="164" y="-127"/>
      <point x="173" y="-109"/>
      <point x="173" y="-87" type="curve" smooth="yes"/>
      <point x="173" y="24" type="line"/>
      <point x="158" y="11"/>
      <point x="138" y="5"/>
      <point x="115" y="5" type="curve" smooth="yes"/>
      <point x="59" y="5"/>
      <point x="30" y="37"/>
      <point x="30" y="97" type="curve" smooth="yes"/>
      <point x="30" y="502" type="line"/>
      <point x="5" y="502" type="line"/>
      <point x="5" y="520" type="line"/>
      <point x="108" y="520" type="line"/>
      <point x="108" y="63" type="line" smooth="yes"/>
      <point x="108" y="41"/>
      <point x="115" y="25"/>
      <point x="137" y="25" type="curve" smooth="yes"/>
      <point x="151" y="25"/>
      <point x="162" y="31"/>
      <point x="173" y="42" type="curve"/>
      <point x="173" y="502" type="line"/>
      <point x="148" y="502" type="line"/>
      <point x="148" y="520" type="line"/>
      <point x="251" y="520" type="line"/>
    </contour>
    <contour>
      <point x="212" y="-59" type="curve" smooth="yes"/>
      <point x="212" y="502" type="line"/>
      <point x="192" y="502" type="line"/>
      <point x="192" y="-73" type="line" smooth="yes"/>
      <point x="192" y="-92"/>
      <point x="190" y="-108"/>
      <point x="177" y="-123" type="curve"/>
      <point x="199" y="-109"/>
      <point x="212" y="-88"/>
    </contour>
    <contour>
      <point x="88" y="23" type="curve"/>
      <point x="77" y="34"/>
      <point x="69" y="55"/>
      <point x="69" y="76" type="curve" smooth="yes"/>
      <point x="69" y="502" type="line"/>
      <point x="49" y="502" type="line"/>
      <point x="49" y="87" type="line" smooth="yes"/>
      <point x="49" y="52"/>
      <point x="66" y="29"/>
    </contour>
    <contour>
      <point x="82" y="-112" type="curve"/>
      <point x="71" y="-96"/>
      <point x="69" y="-81"/>
      <point x="69" y="-62" type="curve" smooth="yes"/>
      <point x="69" y="-43" type="line"/>
      <point x="49" y="-43" type="line"/>
      <point x="49" y="-50" type="line" smooth="yes"/>
      <point x="49" y="-78"/>
      <point x="63" y="-99"/>
    </contour>
  </outline>
</glyph>
<glyph name="z" format="1">
  <advance width="258"/>
  <unicode hex="007A"/>
  <outline>
    <contour>
      <point x="237" y="0" type="line"/>
      <point x="17" y="0" type="line"/>
      <point x="17" y="18" type="line"/>
      <point x="159" y="502" type="line"/>
      <point x="95" y="502" type="line"/>
      <point x="95" y="361" type="line"/>
      <point x="21" y="361" type="line"/>
      <point x="21" y="520" type="line"/>
      <point x="237" y="520" type="line"/>
      <point x="237" y="502" type="line"/>
      <point x="95" y="18" type="line"/>
      <point x="163" y="18" type="line"/>
      <point x="163" y="159" type="line"/>
      <point x="237" y="159" type="line"/>
    </contour>
    <contour>
      <point x="60" y="379" type="line"/>
      <point x="60" y="502" type="line"/>
      <point x="40" y="502" type="line"/>
      <point x="40" y="379" type="line"/>
    </contour>
    <contour>
      <point x="198" y="502" type="line"/>
      <point x="178" y="502" type="line"/>
      <point x="36" y="18" type="line"/>
      <point x="56" y="18" type="line"/>
    </contour>
    <contour>
      <point x="202" y="18" type="line"/>
      <point x="202" y="141" type="line"/>
      <point x="182" y="141" type="line"/>
      <point x="182" y="18" type="line"/>
    </contour>
  </outline>
</glyph>
<glyph name="braceleft" format="1">
  <advance width="210"/>
  <unicode hex="007B"/>
  <outline>
    <contour>
      <point x="193" y="0" type="line"/>
      <point x="178" y="0" type="line" smooth="yes"/>
      <point x="112" y="0"/>
      <point x="65" y="46"/>
      <point x="65" y="102" type="curve" smooth="yes"/>
      <point x="65" y="321" type="line" smooth="yes"/>
      <point x="65" y="343"/>
      <point x="47" y="361"/>
      <point x="25" y="361" type="curve" smooth="yes"/>
      <point x="15" y="361" type="line"/>
      <point x="15" y="379" type="line"/>
      <point x="25" y="379" type="line" smooth="yes"/>
      <point x="47" y="379"/>
      <point x="65" y="397"/>
      <point x="65" y="419" type="curve" smooth="yes"/>
      <point x="65" y="598" type="line" smooth="yes"/>
      <point x="65" y="654"/>
      <point x="112" y="700"/>
      <point x="178" y="700" type="curve" smooth="yes"/>
      <point x="193" y="700" type="line"/>
      <point x="193" y="682" type="line"/>
      <point x="178" y="682" type="line" smooth="yes"/>
      <point x="156" y="682"/>
      <point x="143" y="664"/>
      <point x="143" y="642" type="curve" smooth="yes"/>
      <point x="143" y="463" type="line" smooth="yes"/>
      <point x="143" y="422"/>
      <point x="114" y="386"/>
      <point x="73" y="370" type="curve"/>
      <point x="114" y="353"/>
      <point x="143" y="318"/>
      <point x="143" y="277" type="curve" smooth="yes"/>
      <point x="143" y="58" type="line" smooth="yes"/>
      <point x="143" y="36"/>
      <point x="156" y="18"/>
      <point x="178" y="18" type="curve" smooth="yes"/>
      <point x="193" y="18" type="line"/>
    </contour>
    <contour>
      <point x="117" y="667" type="curve"/>
      <point x="98" y="654"/>
      <point x="84" y="633"/>
      <point x="84" y="605" type="curve" smooth="yes"/>
      <point x="84" y="433" type="line" smooth="yes"/>
      <point x="84" y="414"/>
      <point x="81" y="399"/>
      <point x="68" y="384" type="curve"/>
      <point x="90" y="398"/>
      <point x="104" y="418"/>
      <point x="104" y="447" type="curve" smooth="yes"/>
      <point x="104" y="617" type="line" smooth="yes"/>
      <point x="104" y="636"/>
      <point x="106" y="651"/>
    </contour>
    <contour>
      <point x="117" y="33" type="curve"/>
      <point x="106" y="49"/>
      <point x="104" y="64"/>
      <point x="104" y="83" type="curve" smooth="yes"/>
      <point x="104" y="293" type="line" smooth="yes"/>
      <point x="104" y="322"/>
      <point x="90" y="342"/>
      <point x="68" y="356" type="curve"/>
      <point x="81" y="341"/>
      <point x="84" y="326"/>
      <point x="84" y="307" type="curve" smooth="yes"/>
      <point x="84" y="95" type="line" smooth="yes"/>
      <point x="84" y="67"/>
      <point x="98" y="46"/>
    </contour>
  </outline>
</glyph>
<glyph name="bar" format="1">
  <advance width="105"/>
  <unicode hex="007C"/>
  <outline>
    <contour>
      <point x="65" y="-140" type="line"/>
      <point x="40" y="-140" type="line"/>
      <point x="40" y="700" type="line"/>
      <point x="65" y="700" type="line"/>
    </contour>
  </outline>
</glyph>
<glyph name="braceright" format="1">
  <advance width="210"/>
  <unicode hex="007D"/>
  <outline>
    <contour>
      <point x="195" y="361" type="line"/>
      <point x="185" y="361" type="line" smooth="yes"/>
      <point x="163" y="361"/>
      <point x="145" y="343"/>
      <point x="145" y="321" type="curve" smooth="yes"/>
      <point x="145" y="102" type="line" smooth="yes"/>
      <point x="145" y="46"/>
      <point x="98" y="0"/>
      <point x="32" y="0" type="curve" smooth="yes"/>
      <point x="17" y="0" type="line"/>
      <point x="17" y="18" type="line"/>
      <point x="32" y="18" type="line" smooth="yes"/>
      <point x="54" y="18"/>
      <point x="67" y="36"/>
      <point x="67" y="58" type="curve" smooth="yes"/>
      <point x="67" y="277" type="line" smooth="yes"/>
      <point x="67" y="318"/>
      <point x="96" y="353"/>
      <point x="137" y="370" type="curve"/>
      <point x="96" y="386"/>
      <point x="67" y="422"/>
      <point x="67" y="463" type="curve" smooth="yes"/>
      <point x="67" y="642" type="line" smooth="yes"/>
      <point x="67" y="664"/>
      <point x="54" y="682"/>
      <point x="32" y="682" type="curve" smooth="yes"/>
      <point x="17" y="682" type="line"/>
      <point x="17" y="700" type="line"/>
      <point x="32" y="700" type="line" smooth="yes"/>
      <point x="98" y="700"/>
      <point x="145" y="654"/>
      <point x="145" y="598" type="curve" smooth="yes"/>
      <point x="145" y="419" type="line" smooth="yes"/>
      <point x="145" y="397"/>
      <point x="163" y="379"/>
      <point x="185" y="379" type="curve" smooth="yes"/>
      <point x="195" y="379" type="line"/>
    </contour>
    <contour>
      <point x="122" y="394" type="curve"/>
      <point x="109" y="409"/>
      <point x="106" y="429"/>
      <point x="106" y="448" type="curve" smooth="yes"/>
      <point x="106" y="614" type="line" smooth="yes"/>
      <point x="106" y="643"/>
      <point x="93" y="664"/>
      <point x="71" y="678" type="curve"/>
      <point x="84" y="663"/>
      <point x="86" y="647"/>
      <point x="86" y="628" type="curve" smooth="yes"/>
      <point x="86" y="462" type="line" smooth="yes"/>
      <point x="86" y="433"/>
      <point x="100" y="408"/>
    </contour>
    <contour>
      <point x="122" y="346" type="curve"/>
      <point x="100" y="332"/>
      <point x="86" y="307"/>
      <point x="86" y="278" type="curve" smooth="yes"/>
      <point x="86" y="72" type="line" smooth="yes"/>
      <point x="86" y="53"/>
      <point x="84" y="37"/>
      <point x="71" y="22" type="curve"/>
      <point x="93" y="36"/>
      <point x="106" y="57"/>
      <point x="106" y="86" type="curve" smooth="yes"/>
      <point x="106" y="292" type="line" smooth="yes"/>
      <point x="106" y="311"/>
      <point x="109" y="331"/>
    </contour>
  </outline>
</glyph>
<glyph name="asciitilde" format="1">
  <advance width="300"/>
  <unicode hex="007E"/>
  <outline>
    <contour>
      <point x="271" y="414" type="line"/>
      <point x="265" y="383" type="line" smooth="yes"/>
      <point x="255" y="334"/>
      <point x="221" y="322"/>
      <point x="181" y="331" type="curve" smooth="yes"/>
      <point x="97" y="349" type="line" smooth="yes"/>
      <point x="71" y="355"/>
      <point x="58" y="343"/>
      <point x="46" y="323" type="curve"/>
      <point x="29" y="326" type="line"/>
      <point x="35" y="357" type="line" smooth="yes"/>
      <point x="45" y="406"/>
      <point x="80" y="417"/>
      <point x="120" y="409" type="curve" smooth="yes"/>
      <point x="205" y="391" type="line" smooth="yes"/>
      <point x="230" y="386"/>
      <point x="242" y="397"/>
      <point x="254" y="417" type="curve"/>
    </contour>
    <contour>
      <point x="259" y="400" type="curve"/>
      <point x="256" y="401" type="line"/>
      <point x="243" y="377"/>
      <point x="227" y="370"/>
      <point x="198" y="376" type="curve" smooth="yes"/>
      <point x="115" y="394" type="line" smooth="yes"/>
      <point x="78" y="402"/>
      <point x="51" y="386"/>
      <point x="41" y="340" type="curve"/>
      <point x="44" y="340" type="line"/>
      <point x="57" y="371"/>
      <point x="75" y="384"/>
      <point x="108" y="377" type="curve" smooth="yes"/>
      <point x="192" y="359" type="line" smooth="yes"/>
      <point x="225" y="352"/>
      <point x="245" y="358"/>
    </contour>
  </outline>
</glyph>
<glyph name="exclamdown" format="1">
  <advance width="156"/>
  <unicode hex="00A1"/>
  <outline>
    <contour>
      <point x="118" y="580" type="line"/>
      <point x="38" y="580" type="line"/>
      <point x="38" y="700" type="line"/>
      <point x="118" y="700" type="line"/>
    </contour>
    <contour>
      <point x="118" y="0" type="line"/>
      <point x="38" y="0" type="line"/>
      <point x="38" y="284" type="line"/>
      <point x="63" y="550" type="line"/>
      <point x="93" y="550" type="line"/>
      <point x="118" y="284" type="line"/>
    </contour>
    <contour>
      <point x="78" y="596" type="line"/>
      <point x="78" y="684" type="line"/>
      <point x="58" y="684" type="line"/>
      <point x="58" y="596" type="line"/>
    </contour>
    <contour>
      <point x="78" y="18" type="line"/>
      <point x="78" y="532" type="line"/>
      <point x="73" y="532" type="line"/>
      <point x="58" y="284" type="line"/>
      <point x="58" y="18" type="line"/>
    </contour>
  </outline>
</glyph>
<glyph name="cent" format="1">
  <advance width="273"/>
  <unicode hex="00A2"/>
  <outline>
    <contour>
      <point x="251" y="177" type="line" smooth="yes"/>
      <point x="251" y="124"/>
      <point x="210" y="81"/>
      <point x="150" y="76" type="curve"/>
      <point x="150" y="-10" type="line"/>
      <point x="126" y="-10" type="line"/>
      <point x="126" y="75" type="line"/>
      <point x="66" y="81"/>
      <point x="25" y="124"/>
      <point x="25" y="177" type="curve" smooth="yes"/>
      <point x="25" y="523" type="line" smooth="yes"/>
      <point x="25" y="576"/>
      <point x="66" y="619"/>
      <point x="126" y="624" type="curve"/>
      <point x="126" y="710" type="line"/>
      <point x="150" y="710" type="line"/>
      <point x="150" y="624" type="line"/>
      <point x="210" y="619"/>
      <point x="251" y="576"/>
      <point x="251" y="523" type="curve" smooth="yes"/>
      <point x="251" y="461" type="line"/>
      <point x="173" y="461" type="line"/>
      <point x="173" y="567" type="line" smooth="yes"/>
      <point x="173" y="589"/>
      <point x="160" y="607"/>
      <point x="138" y="607" type="curve" smooth="yes"/>
      <point x="116" y="607"/>
      <point x="103" y="589"/>
      <point x="103" y="567" type="curve" smooth="yes"/>
      <point x="103" y="133" type="line" smooth="yes"/>
      <point x="103" y="111"/>
      <point x="116" y="93"/>
      <point x="138" y="93" type="curve" smooth="yes"/>
      <point x="160" y="93"/>
      <point x="173" y="111"/>
      <point x="173" y="133" type="curve" smooth="yes"/>
      <point x="173" y="239" type="line"/>
      <point x="251" y="239" type="line"/>
    </contour>
    <contour>
      <point x="212" y="479" type="line"/>
      <point x="212" y="539" type="line" smooth="yes"/>
      <point x="212" y="570"/>
      <point x="198" y="589"/>
      <point x="176" y="603" type="curve"/>
      <point x="189" y="589"/>
      <point x="192" y="572"/>
      <point x="192" y="553" type="curve" smooth="yes"/>
      <point x="192" y="479" type="line"/>
    </contour>
    <contour>
      <point x="77" y="108" type="curve"/>
      <point x="66" y="124"/>
      <point x="64" y="139"/>
      <point x="64" y="158" type="curve" smooth="yes"/>
      <point x="64" y="542" type="line" smooth="yes"/>
      <point x="64" y="561"/>
      <point x="66" y="576"/>
      <point x="77" y="592" type="curve"/>
      <point x="58" y="579"/>
      <point x="44" y="558"/>
      <point x="44" y="530" type="curve" smooth="yes"/>
      <point x="44" y="170" type="line" smooth="yes"/>
      <point x="44" y="142"/>
      <point x="58" y="121"/>
    </contour>
    <contour>
      <point x="212" y="161" type="curve" smooth="yes"/>
      <point x="212" y="221" type="line"/>
      <point x="192" y="221" type="line"/>
      <point x="192" y="147" type="line" smooth="yes"/>
      <point x="192" y="128"/>
      <point x="189" y="111"/>
      <point x="176" y="97" type="curve"/>
      <point x="198" y="111"/>
      <point x="212" y="130"/>
    </contour>
  </outline>
</glyph>
<glyph name="sterling" format="1">
  <advance width="305"/>
  <unicode hex="00A3"/>
  <outline>
    <contour>
      <point x="275" y="0" type="line"/>
      <point x="10" y="0" type="line"/>
      <point x="10" y="18" type="line"/>
      <point x="35" y="18" type="line"/>
      <point x="35" y="361" type="line"/>
      <point x="10" y="361" type="line"/>
      <point x="10" y="379" type="line"/>
      <point x="35" y="379" type="line"/>
      <point x="35" y="603" type="line" smooth="yes"/>
      <point x="35" y="659"/>
      <point x="89" y="705"/>
      <point x="155" y="705" type="curve" smooth="yes"/>
      <point x="221" y="705"/>
      <point x="275" y="659"/>
      <point x="275" y="603" type="curve" smooth="yes"/>
      <point x="275" y="490" type="line"/>
      <point x="195" y="490" type="line"/>
      <point x="195" y="647" type="line" smooth="yes"/>
      <point x="195" y="669"/>
      <point x="177" y="687"/>
      <point x="155" y="687" type="curve" smooth="yes"/>
      <point x="133" y="687"/>
      <point x="115" y="669"/>
      <point x="115" y="647" type="curve" smooth="yes"/>
      <point x="115" y="379" type="line"/>
      <point x="210" y="379" type="line"/>
      <point x="210" y="361" type="line"/>
      <point x="115" y="361" type="line"/>
      <point x="115" y="18" type="line"/>
      <point x="195" y="18" type="line"/>
      <point x="195" y="210" type="line"/>
      <point x="275" y="210" type="line"/>
    </contour>
    <contour>
      <point x="235" y="508" type="line"/>
      <point x="235" y="619" type="line" smooth="yes"/>
      <point x="235" y="648"/>
      <point x="221" y="668"/>
      <point x="199" y="682" type="curve"/>
      <point x="212" y="667"/>
      <point x="215" y="652"/>
      <point x="215" y="633" type="curve" smooth="yes"/>
      <point x="215" y="508" type="line"/>
    </contour>
    <contour>
      <point x="88" y="670" type="curve"/>
      <point x="69" y="657"/>
      <point x="55" y="638"/>
      <point x="55" y="610" type="curve" smooth="yes"/>
      <point x="55" y="18" type="line"/>
      <point x="75" y="18" type="line"/>
      <point x="75" y="622" type="line" smooth="yes"/>
      <point x="75" y="641"/>
      <point x="77" y="654"/>
    </contour>
    <contour>
      <point x="235" y="18" type="line"/>
      <point x="235" y="192" type="line"/>
      <point x="215" y="192" type="line"/>
      <point x="215" y="18" type="line"/>
    </contour>
  </outline>
</glyph>
<glyph name="section" format="1">
  <advance width="290"/>
  <unicode hex="00A7"/>
  <outline>
    <contour>
      <point x="275" y="341" type="curve" smooth="yes"/>
      <point x="275" y="303"/>
      <point x="255" y="276"/>
      <point x="219" y="245" type="curve"/>
      <point x="224" y="241" type="line" smooth="yes"/>
      <point x="250" y="220"/>
      <point x="260" y="189"/>
      <point x="260" y="150" type="curve" smooth="yes"/>
      <point x="260" y="97" type="line" smooth="yes"/>
      <point x="260" y="41"/>
      <point x="211" y="-5"/>
      <point x="145" y="-5" type="curve" smooth="yes"/>
      <point x="79" y="-5"/>
      <point x="30" y="41"/>
      <point x="30" y="97" type="curve" smooth="yes"/>
      <point x="30" y="210" type="line"/>
      <point x="110" y="210" type="line"/>
      <point x="110" y="53" type="line" smooth="yes"/>
      <point x="110" y="31"/>
      <point x="123" y="13"/>
      <point x="145" y="13" type="curve" smooth="yes"/>
      <point x="167" y="13"/>
      <point x="180" y="31"/>
      <point x="180" y="53" type="curve" smooth="yes"/>
      <point x="180" y="129" type="line" smooth="yes"/>
      <point x="180" y="161"/>
      <point x="172" y="181"/>
      <point x="150" y="200" type="curve" smooth="yes"/>
      <point x="59" y="276" type="line" smooth="yes"/>
      <point x="31" y="299"/>
      <point x="15" y="322"/>
      <point x="15" y="358" type="curve" smooth="yes"/>
      <point x="15" y="396"/>
      <point x="35" y="423"/>
      <point x="71" y="454" type="curve"/>
      <point x="65" y="459" type="line" smooth="yes"/>
      <point x="39" y="481"/>
      <point x="30" y="511"/>
      <point x="30" y="550" type="curve" smooth="yes"/>
      <point x="30" y="603" type="line" smooth="yes"/>
      <point x="30" y="659"/>
      <point x="79" y="705"/>
      <point x="145" y="705" type="curve" smooth="yes"/>
      <point x="211" y="705"/>
      <point x="260" y="659"/>
      <point x="260" y="603" type="curve" smooth="yes"/>
      <point x="260" y="490" type="line"/>
      <point x="180" y="490" type="line"/>
      <point x="180" y="647" type="line" smooth="yes"/>
      <point x="180" y="669"/>
      <point x="167" y="687"/>
      <point x="145" y="687" type="curve" smooth="yes"/>
      <point x="123" y="687"/>
      <point x="110" y="669"/>
      <point x="110" y="647" type="curve" smooth="yes"/>
      <point x="110" y="566" type="line" smooth="yes"/>
      <point x="110" y="533"/>
      <point x="117" y="518"/>
      <point x="139" y="499" type="curve" smooth="yes"/>
      <point x="231" y="423" type="line" smooth="yes"/>
      <point x="258" y="400"/>
      <point x="275" y="377"/>
    </contour>
    <contour>
      <point x="220" y="508" type="line"/>
      <point x="220" y="619" type="line" smooth="yes"/>
      <point x="220" y="648"/>
      <point x="206" y="668"/>
      <point x="184" y="682" type="curve"/>
      <point x="197" y="667"/>
      <point x="200" y="652"/>
      <point x="200" y="633" type="curve" smooth="yes"/>
      <point x="200" y="508" type="line"/>
    </contour>
    <contour>
      <point x="244" y="325" type="curve" smooth="yes"/>
      <point x="244" y="349"/>
      <point x="235" y="369"/>
      <point x="205" y="394" type="curve" smooth="yes"/>
      <point x="103" y="477" type="line" smooth="yes"/>
      <point x="76" y="499"/>
      <point x="70" y="525"/>
      <point x="70" y="561" type="curve" smooth="yes"/>
      <point x="70" y="622" type="line" smooth="yes"/>
      <point x="70" y="641"/>
      <point x="72" y="655"/>
      <point x="83" y="671" type="curve"/>
      <point x="64" y="658"/>
      <point x="50" y="638"/>
      <point x="50" y="610" type="curve" smooth="yes"/>
      <point x="50" y="554" type="line" smooth="yes"/>
      <point x="50" y="521"/>
      <point x="57" y="491"/>
      <point x="84" y="469" type="curve" smooth="yes"/>
      <point x="191" y="382" type="line" smooth="yes"/>
      <point x="227" y="353"/>
      <point x="235" y="328"/>
      <point x="235" y="313" type="curve" smooth="yes"/>
      <point x="235" y="304"/>
      <point x="235" y="298"/>
      <point x="233" y="289" type="curve"/>
      <point x="240" y="299"/>
      <point x="244" y="312"/>
    </contour>
    <contour>
      <point x="220" y="297" type="curve" smooth="yes"/>
      <point x="220" y="320"/>
      <point x="211" y="339"/>
      <point x="183" y="362" type="curve" smooth="yes"/>
      <point x="85" y="442" type="line"/>
      <point x="74" y="428"/>
      <point x="70" y="415"/>
      <point x="70" y="402" type="curve" smooth="yes"/>
      <point x="70" y="379"/>
      <point x="77" y="362"/>
      <point x="101" y="342" type="curve" smooth="yes"/>
      <point x="205" y="257" type="line"/>
      <point x="216" y="271"/>
      <point x="220" y="284"/>
    </contour>
    <contour>
      <point x="220" y="81" type="curve" smooth="yes"/>
      <point x="220" y="137" type="line" smooth="yes"/>
      <point x="220" y="170"/>
      <point x="213" y="200"/>
      <point x="186" y="222" type="curve" smooth="yes"/>
      <point x="79" y="309" type="line" smooth="yes"/>
      <point x="52" y="331"/>
      <point x="42" y="354"/>
      <point x="42" y="377" type="curve" smooth="yes"/>
      <point x="42" y="385"/>
      <point x="43" y="393"/>
      <point x="45" y="402" type="curve"/>
      <point x="36" y="392"/>
      <point x="31" y="377"/>
      <point x="31" y="361" type="curve" smooth="yes"/>
      <point x="31" y="338"/>
      <point x="45" y="313"/>
      <point x="65" y="297" type="curve" smooth="yes"/>
      <point x="167" y="214" type="line" smooth="yes"/>
      <point x="196" y="191"/>
      <point x="200" y="166"/>
      <point x="200" y="130" type="curve" smooth="yes"/>
      <point x="200" y="67" type="line" smooth="yes"/>
      <point x="200" y="48"/>
      <point x="197" y="33"/>
      <point x="184" y="18" type="curve"/>
      <point x="206" y="32"/>
      <point x="220" y="52"/>
    </contour>
    <contour>
      <point x="83" y="30" type="curve"/>
      <point x="72" y="46"/>
      <point x="70" y="59"/>
      <point x="70" y="78" type="curve" smooth="yes"/>
      <point x="70" y="192" type="line"/>
      <point x="50" y="192" type="line"/>
      <point x="50" y="90" type="line" smooth="yes"/>
      <point x="50" y="62"/>
      <point x="64" y="43"/>
    </contour>
  </outline>
</glyph>
<glyph name="dieresis" format="1">
  <advance width="300"/>
  <unicode hex="00A8"/>
  <outline>
    <contour>
      <point x="239" y="558" type="line"/>
      <point x="169" y="558" type="line"/>
      <point x="169" y="663" type="line"/>
      <point x="239" y="663" type="line"/>
    </contour>
    <contour>
      <point x="131" y="558" type="line"/>
      <point x="61" y="558" type="line"/>
      <point x="61" y="663" type="line"/>
      <point x="131" y="663" type="line"/>
    </contour>
    <contour>
      <point x="208" y="576" type="line"/>
      <point x="208" y="645" type="line"/>
      <point x="188" y="645" type="line"/>
      <point x="188" y="576" type="line"/>
    </contour>
    <contour>
      <point x="100" y="576" type="line"/>
      <point x="100" y="645" type="line"/>
      <point x="80" y="645" type="line"/>
      <point x="80" y="576" type="line"/>
    </contour>
  </outline>
</glyph>
<glyph name="copyright" format="1">
  <advance width="368"/>
  <unicode hex="00A9"/>
  <outline>
    <contour>
      <point x="338" y="134" type="line" smooth="yes"/>
      <point x="338" y="58"/>
      <point x="274" y="-5"/>
      <point x="184" y="-5" type="curve" smooth="yes"/>
      <point x="94" y="-5"/>
      <point x="30" y="58"/>
      <point x="30" y="134" type="curve" smooth="yes"/>
      <point x="30" y="566" type="line" smooth="yes"/>
      <point x="30" y="642"/>
      <point x="94" y="705"/>
      <point x="184" y="705" type="curve" smooth="yes"/>
      <point x="274" y="705"/>
      <point x="338" y="642"/>
      <point x="338" y="566" type="curve" smooth="yes"/>
    </contour>
    <contour>
      <point x="319" y="132" type="curve" smooth="yes"/>
      <point x="319" y="568" type="line" smooth="yes"/>
      <point x="319" y="634"/>
      <point x="262" y="687"/>
      <point x="184" y="687" type="curve" smooth="yes"/>
      <point x="106" y="687"/>
      <point x="49" y="634"/>
      <point x="49" y="568" type="curve" smooth="yes"/>
      <point x="49" y="132" type="line" smooth="yes"/>
      <point x="49" y="66"/>
      <point x="106" y="13"/>
      <point x="184" y="13" type="curve" smooth="yes"/>
      <point x="262" y="13"/>
      <point x="319" y="66"/>
    </contour>
    <contour>
      <point x="268" y="175" type="line" smooth="yes"/>
      <point x="268" y="136"/>
      <point x="230" y="104"/>
      <point x="184" y="104" type="curve" smooth="yes"/>
      <point x="138" y="104"/>
      <point x="100" y="136"/>
      <point x="100" y="175" type="curve" smooth="yes"/>
      <point x="100" y="529" type="line" smooth="yes"/>
      <point x="100" y="568"/>
      <point x="138" y="600"/>
      <point x="184" y="600" type="curve" smooth="yes"/>
      <point x="230" y="600"/>
      <point x="268" y="568"/>
      <point x="268" y="529" type="curve" smooth="yes"/>
      <point x="268" y="450" type="line"/>
      <point x="212" y="450" type="line"/>
      <point x="212" y="560" type="line" smooth="yes"/>
      <point x="212" y="575"/>
      <point x="200" y="588"/>
      <point x="184" y="588" type="curve" smooth="yes"/>
      <point x="169" y="588"/>
      <point x="156" y="575"/>
      <point x="156" y="560" type="curve" smooth="yes"/>
      <point x="156" y="144" type="line" smooth="yes"/>
      <point x="156" y="129"/>
      <point x="169" y="116"/>
      <point x="184" y="116" type="curve" smooth="yes"/>
      <point x="200" y="116"/>
      <point x="212" y="129"/>
      <point x="212" y="144" type="curve" smooth="yes"/>
      <point x="212" y="254" type="line"/>
      <point x="268" y="254" type="line"/>
    </contour>
    <contour>
      <point x="240" y="463" type="line"/>
      <point x="240" y="540" type="line" smooth="yes"/>
      <point x="240" y="561"/>
      <point x="230" y="575"/>
      <point x="215" y="584" type="curve"/>
      <point x="224" y="574"/>
      <point x="226" y="563"/>
      <point x="226" y="550" type="curve" smooth="yes"/>
      <point x="226" y="463" type="line"/>
    </contour>
    <contour>
      <point x="137" y="128" type="curve"/>
      <point x="130" y="139"/>
      <point x="128" y="148"/>
      <point x="128" y="162" type="curve" smooth="yes"/>
      <point x="128" y="542" type="line" smooth="yes"/>
      <point x="128" y="556"/>
      <point x="130" y="565"/>
      <point x="137" y="576" type="curve"/>
      <point x="124" y="567"/>
      <point x="114" y="554"/>
      <point x="114" y="534" type="curve" smooth="yes"/>
      <point x="114" y="170" type="line" smooth="yes"/>
      <point x="114" y="150"/>
      <point x="124" y="137"/>
    </contour>
    <contour>
      <point x="240" y="164" type="curve" smooth="yes"/>
      <point x="240" y="241" type="line"/>
      <point x="226" y="241" type="line"/>
      <point x="226" y="154" type="line" smooth="yes"/>
      <point x="226" y="141"/>
      <point x="224" y="130"/>
      <point x="215" y="120" type="curve"/>
      <point x="230" y="129"/>
      <point x="240" y="143"/>
    </contour>
  </outline>
</glyph>
<glyph name="ordfeminine" format="1">
  <advance width="245"/>
  <unicode hex="00AA"/>
  <outline>
    <contour>
      <point x="232" y="297" type="line"/>
      <point x="145" y="297" type="line"/>
      <point x="145" y="309" type="line"/>
      <point x="132" y="298"/>
      <point x="118" y="294"/>
      <point x="99" y="294" type="curve" smooth="yes"/>
      <point x="51" y="294"/>
      <point x="27" y="320"/>
      <point x="27" y="370" type="curve" smooth="yes"/>
      <point x="27" y="447" type="line" smooth="yes"/>
      <point x="27" y="506"/>
      <point x="70" y="527"/>
      <point x="125" y="527" type="curve" smooth="yes"/>
      <point x="145" y="527" type="line"/>
      <point x="145" y="656" type="line" smooth="yes"/>
      <point x="145" y="674"/>
      <point x="140" y="690"/>
      <point x="121" y="690" type="curve" smooth="yes"/>
      <point x="103" y="690"/>
      <point x="98" y="674"/>
      <point x="98" y="656" type="curve" smooth="yes"/>
      <point x="98" y="575" type="line"/>
      <point x="31" y="575" type="line"/>
      <point x="31" y="619" type="line" smooth="yes"/>
      <point x="31" y="670"/>
      <point x="65" y="705"/>
      <point x="121" y="705" type="curve" smooth="yes"/>
      <point x="177" y="705"/>
      <point x="212" y="670"/>
      <point x="212" y="619" type="curve" smooth="yes"/>
      <point x="212" y="313" type="line"/>
      <point x="232" y="313" type="line"/>
    </contour>
    <contour>
      <point x="74" y="680" type="curve"/>
      <point x="58" y="669"/>
      <point x="48" y="649"/>
      <point x="48" y="625" type="curve" smooth="yes"/>
      <point x="48" y="590" type="line"/>
      <point x="63" y="590" type="line"/>
      <point x="63" y="636" type="line" smooth="yes"/>
      <point x="63" y="651"/>
      <point x="64" y="666"/>
    </contour>
    <contour>
      <point x="177" y="313" type="line"/>
      <point x="177" y="636" type="line" smooth="yes"/>
      <point x="177" y="660"/>
      <point x="168" y="678"/>
      <point x="149" y="688" type="curve"/>
      <point x="161" y="676"/>
      <point x="162" y="663"/>
      <point x="162" y="646" type="curve" smooth="yes"/>
      <point x="162" y="313" type="line"/>
    </contour>
    <contour>
      <point x="145" y="325" type="curve"/>
      <point x="145" y="513" type="line"/>
      <point x="127" y="513" type="line" smooth="yes"/>
      <point x="104" y="513"/>
      <point x="95" y="500"/>
      <point x="95" y="479" type="curve" smooth="yes"/>
      <point x="95" y="342" type="line" smooth="yes"/>
      <point x="95" y="324"/>
      <point x="99" y="310"/>
      <point x="117" y="310" type="curve" smooth="yes"/>
      <point x="129" y="310"/>
      <point x="135" y="315"/>
    </contour>
    <contour>
      <point x="76" y="308" type="curve"/>
      <point x="67" y="318"/>
      <point x="61" y="336"/>
      <point x="61" y="352" type="curve" smooth="yes"/>
      <point x="61" y="461" type="line" smooth="yes"/>
      <point x="61" y="477"/>
      <point x="62" y="491"/>
      <point x="72" y="504" type="curve"/>
      <point x="54" y="495"/>
      <point x="46" y="473"/>
      <point x="46" y="450" type="curve" smooth="yes"/>
      <point x="46" y="362" type="line" smooth="yes"/>
      <point x="46" y="333"/>
      <point x="58" y="314"/>
    </contour>
  </outline>
</glyph>
<glyph name="guillemotleft" format="1">
  <advance width="300"/>
  <unicode hex="00AB"/>
  <outline>
    <contour>
      <point x="272" y="141" type="line"/>
      <point x="242" y="141" type="line"/>
      <point x="140" y="320" type="line"/>
      <point x="140" y="340" type="line"/>
      <point x="242" y="520" type="line"/>
      <point x="272" y="520" type="line"/>
      <point x="227" y="330" type="line"/>
    </contour>
    <contour>
      <point x="148" y="141" type="line"/>
      <point x="118" y="141" type="line"/>
      <point x="16" y="320" type="line"/>
      <point x="16" y="340" type="line"/>
      <point x="118" y="520" type="line"/>
      <point x="148" y="520" type="line"/>
      <point x="103" y="330" type="line"/>
    </contour>
    <contour>
      <point x="253" y="159" type="line"/>
      <point x="187" y="330" type="line"/>
      <point x="253" y="502" type="line"/>
      <point x="248" y="502" type="line"/>
      <point x="163" y="330" type="line"/>
      <point x="248" y="159" type="line"/>
    </contour>
    <contour>
      <point x="129" y="159" type="line"/>
      <point x="63" y="330" type="line"/>
      <point x="129" y="502" type="line"/>
      <point x="124" y="502" type="line"/>
      <point x="39" y="330" type="line"/>
      <point x="124" y="159" type="line"/>
    </contour>
  </outline>
</glyph>
<glyph name="degree" format="1">
  <advance width="276"/>
  <unicode hex="00B0"/>
  <outline>
    <contour>
      <point x="251" y="397" type="line" smooth="yes"/>
      <point x="251" y="341"/>
      <point x="204" y="295"/>
      <point x="138" y="295" type="curve" smooth="yes"/>
      <point x="72" y="295"/>
      <point x="25" y="341"/>
      <point x="25" y="397" type="curve" smooth="yes"/>
      <point x="25" y="603" type="line" smooth="yes"/>
      <point x="25" y="659"/>
      <point x="72" y="705"/>
      <point x="138" y="705" type="curve" smooth="yes"/>
      <point x="204" y="705"/>
      <point x="251" y="659"/>
      <point x="251" y="603" type="curve" smooth="yes"/>
    </contour>
    <contour>
      <point x="212" y="381" type="curve" smooth="yes"/>
      <point x="212" y="619" type="line" smooth="yes"/>
      <point x="212" y="650"/>
      <point x="198" y="669"/>
      <point x="176" y="683" type="curve"/>
      <point x="189" y="669"/>
      <point x="192" y="652"/>
      <point x="192" y="633" type="curve" smooth="yes"/>
      <point x="192" y="367" type="line" smooth="yes"/>
      <point x="192" y="348"/>
      <point x="189" y="331"/>
      <point x="176" y="317" type="curve"/>
      <point x="198" y="331"/>
      <point x="212" y="350"/>
    </contour>
    <contour>
      <point x="173" y="353" type="curve" smooth="yes"/>
      <point x="173" y="647" type="line" smooth="yes"/>
      <point x="173" y="669"/>
      <point x="160" y="687"/>
      <point x="138" y="687" type="curve" smooth="yes"/>
      <point x="116" y="687"/>
      <point x="103" y="669"/>
      <point x="103" y="647" type="curve" smooth="yes"/>
      <point x="103" y="353" type="line" smooth="yes"/>
      <point x="103" y="331"/>
      <point x="116" y="313"/>
      <point x="138" y="313" type="curve" smooth="yes"/>
      <point x="160" y="313"/>
      <point x="173" y="331"/>
    </contour>
    <contour>
      <point x="77" y="328" type="curve"/>
      <point x="66" y="344"/>
      <point x="64" y="359"/>
      <point x="64" y="378" type="curve" smooth="yes"/>
      <point x="64" y="622" type="line" smooth="yes"/>
      <point x="64" y="641"/>
      <point x="66" y="656"/>
      <point x="77" y="672" type="curve"/>
      <point x="58" y="659"/>
      <point x="44" y="638"/>
      <point x="44" y="610" type="curve" smooth="yes"/>
      <point x="44" y="390" type="line" smooth="yes"/>
      <point x="44" y="362"/>
      <point x="58" y="341"/>
    </contour>
  </outline>
</glyph>
<glyph name="acute" format="1">
  <advance width="300"/>
  <unicode hex="00B4"/>
  <outline>
    <contour>
      <point x="229" y="690" type="line"/>
      <point x="125" y="550" type="line"/>
      <point x="103" y="550" type="line"/>
      <point x="144" y="700" type="line"/>
      <point x="229" y="700" type="line"/>
    </contour>
    <contour>
      <point x="182" y="683" type="line"/>
      <point x="159" y="683" type="line"/>
      <point x="118" y="565" type="line"/>
      <point x="122" y="565" type="line"/>
    </contour>
  </outline>
</glyph>
<glyph name="paragraph" format="1">
  <advance width="295"/>
  <unicode hex="00B6"/>
  <outline>
    <contour>
      <point x="280" y="0" type="line"/>
      <point x="215" y="0" type="line"/>
      <point x="215" y="682" type="line"/>
      <point x="195" y="682" type="line"/>
      <point x="195" y="0" type="line"/>
      <point x="150" y="0" type="line"/>
      <point x="150" y="18" type="line"/>
      <point x="175" y="18" type="line"/>
      <point x="175" y="300" type="line"/>
      <point x="140" y="300" type="line" smooth="yes"/>
      <point x="74" y="300"/>
      <point x="20" y="346"/>
      <point x="20" y="402" type="curve" smooth="yes"/>
      <point x="20" y="598" type="line" smooth="yes"/>
      <point x="20" y="654"/>
      <point x="74" y="700"/>
      <point x="140" y="700" type="curve" smooth="yes"/>
      <point x="280" y="700" type="line"/>
      <point x="280" y="682" type="line"/>
      <point x="255" y="682" type="line"/>
      <point x="255" y="18" type="line"/>
      <point x="280" y="18" type="line"/>
    </contour>
    <contour>
      <point x="175" y="318" type="line"/>
      <point x="175" y="682" type="line"/>
      <point x="140" y="682" type="line" smooth="yes"/>
      <point x="118" y="682"/>
      <point x="100" y="664"/>
      <point x="100" y="642" type="curve" smooth="yes"/>
      <point x="100" y="358" type="line" smooth="yes"/>
      <point x="100" y="336"/>
      <point x="118" y="318"/>
      <point x="140" y="318" type="curve" smooth="yes"/>
    </contour>
    <contour>
      <point x="73" y="335" type="curve"/>
      <point x="62" y="351"/>
      <point x="60" y="364"/>
      <point x="60" y="383" type="curve" smooth="yes"/>
      <point x="60" y="617" type="line" smooth="yes"/>
      <point x="60" y="636"/>
      <point x="62" y="649"/>
      <point x="73" y="665" type="curve"/>
      <point x="54" y="652"/>
      <point x="40" y="633"/>
      <point x="40" y="605" type="curve" smooth="yes"/>
      <point x="40" y="395" type="line" smooth="yes"/>
      <point x="40" y="367"/>
      <point x="54" y="348"/>
    </contour>
  </outline>
</glyph>
<glyph name="periodcentered" format="1">
  <advance width="125"/>
  <unicode hex="00B7"/>
  <outline>
    <contour>
      <point x="101" y="310" type="line"/>
      <point x="24" y="310" type="line"/>
      <point x="24" y="430" type="line"/>
      <point x="101" y="430" type="line"/>
    </contour>
    <contour>
      <point x="64" y="326" type="line"/>
      <point x="64" y="414" type="line"/>
      <point x="44" y="414" type="line"/>
      <point x="44" y="326" type="line"/>
    </contour>
  </outline>
</glyph>
<glyph name="cedilla" format="1">
  <advance width="300"/>
  <unicode hex="00B8"/>
  <outline>
    <contour>
      <point x="212" y="-84" type="curve" smooth="yes"/>
      <point x="212" y="-119"/>
      <point x="188" y="-140"/>
      <point x="151" y="-140" type="curve" smooth="yes"/>
      <point x="97" y="-140" type="line"/>
      <point x="97" y="-125" type="line"/>
      <point x="116" y="-125" type="line" smooth="yes"/>
      <point x="141" y="-125"/>
      <point x="147" y="-109"/>
      <point x="147" y="-84" type="curve" smooth="yes"/>
      <point x="147" y="-59"/>
      <point x="141" y="-43"/>
      <point x="116" y="-43" type="curve" smooth="yes"/>
      <point x="112" y="-43" type="line"/>
      <point x="112" y="-30" type="line"/>
      <point x="129" y="0" type="line"/>
      <point x="151" y="0" type="line"/>
      <point x="134" y="-28" type="line"/>
      <point x="151" y="-28" type="line" smooth="yes"/>
      <point x="188" y="-28"/>
      <point x="212" y="-49"/>
    </contour>
    <contour>
      <point x="182" y="-84" type="curve" smooth="yes"/>
      <point x="182" y="-58"/>
      <point x="171" y="-43"/>
      <point x="144" y="-39" type="curve"/>
      <point x="161" y="-48"/>
      <point x="165" y="-59"/>
      <point x="165" y="-84" type="curve" smooth="yes"/>
      <point x="165" y="-109"/>
      <point x="161" y="-120"/>
      <point x="144" y="-129" type="curve"/>
      <point x="171" y="-125"/>
      <point x="182" y="-110"/>
    </contour>
  </outline>
</glyph>
<glyph name="ordmasculine" format="1">
  <advance width="256"/>
  <unicode hex="00BA"/>
  <outline>
    <contour>
      <point x="224" y="379" type="line" smooth="yes"/>
      <point x="224" y="333"/>
      <point x="183" y="294"/>
      <point x="128" y="294" type="curve" smooth="yes"/>
      <point x="73" y="294"/>
      <point x="32" y="333"/>
      <point x="32" y="379" type="curve" smooth="yes"/>
      <point x="32" y="620" type="line" smooth="yes"/>
      <point x="32" y="666"/>
      <point x="73" y="705"/>
      <point x="128" y="705" type="curve" smooth="yes"/>
      <point x="183" y="705"/>
      <point x="224" y="666"/>
      <point x="224" y="620" type="curve" smooth="yes"/>
    </contour>
    <contour>
      <point x="189" y="366" type="curve" smooth="yes"/>
      <point x="189" y="633" type="line" smooth="yes"/>
      <point x="189" y="659"/>
      <point x="179" y="675"/>
      <point x="161" y="687" type="curve"/>
      <point x="172" y="675"/>
      <point x="174" y="660"/>
      <point x="174" y="645" type="curve" smooth="yes"/>
      <point x="174" y="354" type="line" smooth="yes"/>
      <point x="174" y="339"/>
      <point x="172" y="324"/>
      <point x="161" y="312" type="curve"/>
      <point x="179" y="324"/>
      <point x="189" y="340"/>
    </contour>
    <contour>
      <point x="157" y="342" type="curve" smooth="yes"/>
      <point x="157" y="657" type="line" smooth="yes"/>
      <point x="157" y="675"/>
      <point x="147" y="690"/>
      <point x="128" y="690" type="curve" smooth="yes"/>
      <point x="110" y="690"/>
      <point x="100" y="675"/>
      <point x="100" y="657" type="curve" smooth="yes"/>
      <point x="100" y="342" type="line" smooth="yes"/>
      <point x="100" y="324"/>
      <point x="110" y="309"/>
      <point x="128" y="309" type="curve" smooth="yes"/>
      <point x="147" y="309"/>
      <point x="157" y="324"/>
    </contour>
    <contour>
      <point x="76" y="322" type="curve"/>
      <point x="67" y="335"/>
      <point x="64" y="347"/>
      <point x="64" y="364" type="curve" smooth="yes"/>
      <point x="64" y="635" type="line" smooth="yes"/>
      <point x="64" y="652"/>
      <point x="67" y="664"/>
      <point x="76" y="677" type="curve"/>
      <point x="60" y="666"/>
      <point x="48" y="650"/>
      <point x="48" y="626" type="curve" smooth="yes"/>
      <point x="48" y="373" type="line" smooth="yes"/>
      <point x="48" y="349"/>
      <point x="60" y="333"/>
    </contour>
  </outline>
</glyph>
<glyph name="questiondown" format="1">
  <advance width="274"/>
  <unicode hex="00BF"/>
  <outline>
    <contour>
      <point x="179" y="580" type="line"/>
      <point x="99" y="580" type="line"/>
      <point x="99" y="700" type="line"/>
      <point x="179" y="700" type="line"/>
    </contour>
    <contour>
      <point x="254" y="97" type="line" smooth="yes"/>
      <point x="254" y="41"/>
      <point x="205" y="-5"/>
      <point x="139" y="-5" type="curve" smooth="yes"/>
      <point x="73" y="-5"/>
      <point x="24" y="41"/>
      <point x="24" y="97" type="curve" smooth="yes"/>
      <point x="24" y="197" type="line" smooth="yes"/>
      <point x="24" y="231"/>
      <point x="31" y="257"/>
      <point x="50" y="287" type="curve" smooth="yes"/>
      <point x="75" y="326" type="line" smooth="yes"/>
      <point x="100" y="365"/>
      <point x="108" y="381"/>
      <point x="112" y="420" type="curve" smooth="yes"/>
      <point x="124" y="550" type="line"/>
      <point x="154" y="550" type="line"/>
      <point x="168" y="400" type="line" smooth="yes"/>
      <point x="169" y="384"/>
      <point x="170" y="372"/>
      <point x="170" y="361" type="curve" smooth="yes"/>
      <point x="170" y="336"/>
      <point x="166" y="321"/>
      <point x="153" y="301" type="curve" smooth="yes"/>
      <point x="128" y="262" type="line" smooth="yes"/>
      <point x="109" y="232"/>
      <point x="104" y="211"/>
      <point x="104" y="175" type="curve" smooth="yes"/>
      <point x="104" y="53" type="line" smooth="yes"/>
      <point x="104" y="31"/>
      <point x="117" y="13"/>
      <point x="139" y="13" type="curve" smooth="yes"/>
      <point x="161" y="13"/>
      <point x="174" y="31"/>
      <point x="174" y="53" type="curve" smooth="yes"/>
      <point x="174" y="210" type="line"/>
      <point x="254" y="210" type="line"/>
    </contour>
    <contour>
      <point x="139" y="596" type="line"/>
      <point x="139" y="684" type="line"/>
      <point x="119" y="684" type="line"/>
      <point x="119" y="596" type="line"/>
    </contour>
    <contour>
      <point x="139" y="401" type="curve" smooth="yes"/>
      <point x="139" y="532" type="line"/>
      <point x="134" y="532" type="line"/>
      <point x="126" y="406" type="line" smooth="yes"/>
      <point x="124" y="368"/>
      <point x="116" y="350"/>
      <point x="94" y="317" type="curve" smooth="yes"/>
      <point x="69" y="279" type="line" smooth="yes"/>
      <point x="49" y="249"/>
      <point x="44" y="223"/>
      <point x="44" y="190" type="curve" smooth="yes"/>
      <point x="44" y="88" type="line" smooth="yes"/>
      <point x="44" y="60"/>
      <point x="58" y="41"/>
      <point x="77" y="28" type="curve"/>
      <point x="66" y="44"/>
      <point x="64" y="57"/>
      <point x="64" y="76" type="curve" smooth="yes"/>
      <point x="64" y="185" type="line" smooth="yes"/>
      <point x="64" y="219"/>
      <point x="69" y="244"/>
      <point x="89" y="274" type="curve" smooth="yes"/>
      <point x="114" y="312" type="line" smooth="yes"/>
      <point x="136" y="346"/>
      <point x="139" y="363"/>
    </contour>
    <contour>
      <point x="214" y="81" type="curve" smooth="yes"/>
      <point x="214" y="192" type="line"/>
      <point x="194" y="192" type="line"/>
      <point x="194" y="67" type="line" smooth="yes"/>
      <point x="194" y="48"/>
      <point x="191" y="33"/>
      <point x="178" y="18" type="curve"/>
      <point x="200" y="32"/>
      <point x="214" y="52"/>
    </contour>
  </outline>
</glyph>
<glyph name="Aring" format="1">
  <advance width="275"/>
  <unicode hex="00C5"/>
  <outline>
    <contour>
      <point x="270" y="0" type="line"/>
      <point x="140" y="0" type="line"/>
      <point x="140" y="18" type="line"/>
      <point x="165" y="18" type="line"/>
      <point x="147" y="221" type="line"/>
      <point x="75" y="221" type="line"/>
      <point x="55" y="18" type="line"/>
      <point x="80" y="18" type="line"/>
      <point x="80" y="0" type="line"/>
      <point x="5" y="0" type="line"/>
      <point x="5" y="18" type="line"/>
      <point x="30" y="18" type="line"/>
      <point x="100" y="700" type="line"/>
      <point x="180" y="700" type="line"/>
      <point x="245" y="18" type="line"/>
      <point x="270" y="18" type="line"/>
    </contour>
    <contour>
      <point x="146" y="239" type="line"/>
      <point x="113" y="617" type="line"/>
      <point x="76" y="239" type="line"/>
    </contour>
    <contour>
      <point x="205" y="18" type="line"/>
      <point x="142" y="682" type="line"/>
      <point x="122" y="682" type="line"/>
      <point x="185" y="18" type="line"/>
    </contour>
    <contour>
      <point x="235" y="800" type="curve" smooth="yes"/>
      <point x="235" y="755"/>
      <point x="202" y="725"/>
      <point x="140" y="725" type="curve" smooth="yes"/>
      <point x="78" y="725"/>
      <point x="45" y="755"/>
      <point x="45" y="800" type="curve" smooth="yes"/>
      <point x="45" y="845"/>
      <point x="78" y="875"/>
      <point x="140" y="875" type="curve" smooth="yes"/>
      <point x="202" y="875"/>
      <point x="235" y="845"/>
    </contour>
    <contour>
      <point x="203" y="800" type="curve" smooth="yes"/>
      <point x="203" y="836"/>
      <point x="194" y="853"/>
      <point x="163" y="864" type="curve"/>
      <point x="180" y="853"/>
      <point x="186" y="842"/>
      <point x="186" y="820" type="curve" smooth="yes"/>
      <point x="186" y="780" type="line" smooth="yes"/>
      <point x="186" y="758"/>
      <point x="180" y="747"/>
      <point x="163" y="736" type="curve"/>
      <point x="194" y="747"/>
      <point x="203" y="764"/>
    </contour>
    <contour>
      <point x="166" y="770" type="curve" smooth="yes"/>
      <point x="166" y="830" type="line" smooth="yes"/>
      <point x="166" y="846"/>
      <point x="157" y="860"/>
      <point x="140" y="860" type="curve" smooth="yes"/>
      <point x="123" y="860"/>
      <point x="114" y="846"/>
      <point x="114" y="830" type="curve" smooth="yes"/>
      <point x="114" y="770" type="line" smooth="yes"/>
      <point x="114" y="753"/>
      <point x="123" y="740"/>
      <point x="140" y="740" type="curve" smooth="yes"/>
      <point x="157" y="740"/>
      <point x="166" y="753"/>
    </contour>
    <contour>
      <point x="104" y="739" type="curve"/>
      <point x="84" y="754"/>
      <point x="80" y="773"/>
      <point x="80" y="800" type="curve" smooth="yes"/>
      <point x="80" y="827"/>
      <point x="84" y="846"/>
      <point x="104" y="861" type="curve"/>
      <point x="79" y="851"/>
      <point x="63" y="832"/>
      <point x="63" y="800" type="curve" smooth="yes"/>
      <point x="63" y="768"/>
      <point x="79" y="749"/>
    </contour>
  </outline>
</glyph>
<glyph name="AE" format="1">
  <advance width="405"/>
  <unicode hex="00C6"/>
  <outline>
    <contour>
      <point x="380" y="0" type="line"/>
      <point x="130" y="0" type="line"/>
      <point x="130" y="18" type="line"/>
      <point x="155" y="18" type="line"/>
      <point x="155" y="221" type="line"/>
      <point x="79" y="221" type="line"/>
      <point x="45" y="18" type="line"/>
      <point x="70" y="18" type="line"/>
      <point x="70" y="0" type="line"/>
      <point x="0" y="0" type="line"/>
      <point x="0" y="18" type="line"/>
      <point x="20" y="18" type="line"/>
      <point x="131" y="682" type="line"/>
      <point x="109" y="682" type="line"/>
      <point x="109" y="700" type="line"/>
      <point x="380" y="700" type="line"/>
      <point x="380" y="490" type="line"/>
      <point x="300" y="490" type="line"/>
      <point x="300" y="682" type="line"/>
      <point x="235" y="682" type="line"/>
      <point x="235" y="379" type="line"/>
      <point x="330" y="379" type="line"/>
      <point x="330" y="361" type="line"/>
      <point x="235" y="361" type="line"/>
      <point x="235" y="18" type="line"/>
      <point x="300" y="18" type="line"/>
      <point x="300" y="210" type="line"/>
      <point x="380" y="210" type="line"/>
    </contour>
    <contour>
      <point x="340" y="508" type="line"/>
      <point x="340" y="682" type="line"/>
      <point x="320" y="682" type="line"/>
      <point x="320" y="508" type="line"/>
    </contour>
    <contour>
      <point x="155" y="239" type="line"/>
      <point x="155" y="685" type="line"/>
      <point x="82" y="239" type="line"/>
    </contour>
    <contour>
      <point x="195" y="18" type="line"/>
      <point x="195" y="682" type="line"/>
      <point x="175" y="682" type="line"/>
      <point x="175" y="18" type="line"/>
    </contour>
    <contour>
      <point x="340" y="18" type="line"/>
      <point x="340" y="192" type="line"/>
      <point x="320" y="192" type="line"/>
      <point x="320" y="18" type="line"/>
    </contour>
  </outline>
</glyph>
<glyph name="Ccedilla" format="1">
  <advance width="300"/>
  <unicode hex="00C7"/>
  <outline>
    <contour>
      <point x="270" y="97" type="line" smooth="yes"/>
      <point x="270" y="41"/>
      <point x="217" y="-5"/>
      <point x="151" y="-5" type="curve"/>
      <point x="137" y="-28" type="line"/>
      <point x="154" y="-28" type="line" smooth="yes"/>
      <point x="191" y="-28"/>
      <point x="215" y="-49"/>
      <point x="215" y="-84" type="curve" smooth="yes"/>
      <point x="215" y="-119"/>
      <point x="191" y="-140"/>
      <point x="154" y="-140" type="curve" smooth="yes"/>
      <point x="100" y="-140" type="line"/>
      <point x="100" y="-125" type="line"/>
      <point x="119" y="-125" type="line" smooth="yes"/>
      <point x="144" y="-125"/>
      <point x="150" y="-109"/>
      <point x="150" y="-84" type="curve" smooth="yes"/>
      <point x="150" y="-59"/>
      <point x="144" y="-43"/>
      <point x="119" y="-43" type="curve" smooth="yes"/>
      <point x="115" y="-43" type="line"/>
      <point x="115" y="-30" type="line"/>
      <point x="130" y="-4" type="line"/>
      <point x="73" y="5"/>
      <point x="30" y="47"/>
      <point x="30" y="97" type="curve" smooth="yes"/>
      <point x="30" y="603" type="line" smooth="yes"/>
      <point x="30" y="659"/>
      <point x="84" y="705"/>
      <point x="150" y="705" type="curve" smooth="yes"/>
      <point x="216" y="705"/>
      <point x="270" y="659"/>
      <point x="270" y="603" type="curve" smooth="yes"/>
      <point x="270" y="490" type="line"/>
      <point x="190" y="490" type="line"/>
      <point x="190" y="647" type="line" smooth="yes"/>
      <point x="190" y="669"/>
      <point x="172" y="687"/>
      <point x="150" y="687" type="curve" smooth="yes"/>
      <point x="128" y="687"/>
      <point x="110" y="669"/>
      <point x="110" y="647" type="curve" smooth="yes"/>
      <point x="110" y="53" type="line" smooth="yes"/>
      <point x="110" y="31"/>
      <point x="128" y="13"/>
      <point x="150" y="13" type="curve" smooth="yes"/>
      <point x="172" y="13"/>
      <point x="190" y="31"/>
      <point x="190" y="53" type="curve" smooth="yes"/>
      <point x="190" y="210" type="line"/>
      <point x="270" y="210" type="line"/>
    </contour>
    <contour>
      <point x="230" y="508" type="line"/>
      <point x="230" y="619" type="line" smooth="yes"/>
      <point x="230" y="648"/>
      <point x="216" y="668"/>
      <point x="194" y="682" type="curve"/>
      <point x="207" y="667"/>
      <point x="210" y="652"/>
      <point x="210" y="633" type="curve" smooth="yes"/>
      <point x="210" y="508" type="line"/>
    </contour>
    <contour>
      <point x="83" y="30" type="curve"/>
      <point x="72" y="46"/>
      <point x="70" y="59"/>
      <point x="70" y="78" type="curve" smooth="yes"/>
      <point x="70" y="622" type="line" smooth="yes"/>
      <point x="70" y="641"/>
      <point x="72" y="654"/>
      <point x="83" y="670" type="curve"/>
      <point x="64" y="657"/>
      <point x="50" y="638"/>
      <point x="50" y="610" type="curve" smooth="yes"/>
      <point x="50" y="90" type="line" smooth="yes"/>
      <point x="50" y="62"/>
      <point x="64" y="43"/>
    </contour>
    <contour>
      <point x="230" y="81" type="curve" smooth="yes"/>
      <point x="230" y="192" type="line"/>
      <point x="210" y="192" type="line"/>
      <point x="210" y="67" type="line" smooth="yes"/>
      <point x="210" y="48"/>
      <point x="207" y="33"/>
      <point x="194" y="18" type="curve"/>
      <point x="216" y="32"/>
      <point x="230" y="52"/>
    </contour>
    <contour>
      <point x="185" y="-84" type="curve" smooth="yes"/>
      <point x="185" y="-58"/>
      <point x="174" y="-43"/>
      <point x="147" y="-39" type="curve"/>
      <point x="164" y="-48"/>
      <point x="168" y="-59"/>
      <point x="168" y="-84" type="curve" smooth="yes"/>
      <point x="168" y="-109"/>
      <point x="164" y="-120"/>
      <point x="147" y="-129" type="curve"/>
      <point x="174" y="-125"/>
      <point x="185" y="-110"/>
    </contour>
  </outline>
</glyph>
<glyph name="Oslash" format="1">
  <advance width="300"/>
  <unicode hex="00D8"/>
  <outline>
    <contour>
      <point x="270" y="97" type="line" smooth="yes"/>
      <point x="270" y="41"/>
      <point x="216" y="-5"/>
      <point x="150" y="-5" type="curve" smooth="yes"/>
      <point x="127" y="-5"/>
      <point x="105" y="1"/>
      <point x="87" y="10" type="curve"/>
      <point x="69" y="-60" type="line"/>
      <point x="45" y="-60" type="line"/>
      <point x="67" y="24" type="line"/>
      <point x="44" y="42"/>
      <point x="30" y="69"/>
      <point x="30" y="97" type="curve" smooth="yes"/>
      <point x="30" y="603" type="line" smooth="yes"/>
      <point x="30" y="659"/>
      <point x="84" y="705"/>
      <point x="150" y="705" type="curve" smooth="yes"/>
      <point x="173" y="705"/>
      <point x="195" y="699"/>
      <point x="213" y="690" type="curve"/>
      <point x="231" y="760" type="line"/>
      <point x="255" y="760" type="line"/>
      <point x="233" y="676" type="line"/>
      <point x="256" y="658"/>
      <point x="270" y="631"/>
      <point x="270" y="603" type="curve" smooth="yes"/>
    </contour>
    <contour>
      <point x="190" y="592" type="line"/>
      <point x="190" y="647" type="line" smooth="yes"/>
      <point x="190" y="669"/>
      <point x="172" y="687"/>
      <point x="150" y="687" type="curve" smooth="yes"/>
      <point x="128" y="687"/>
      <point x="110" y="669"/>
      <point x="110" y="647" type="curve" smooth="yes"/>
      <point x="110" y="219" type="line"/>
    </contour>
    <contour>
      <point x="230" y="81" type="curve" smooth="yes"/>
      <point x="230" y="619" type="line" smooth="yes"/>
      <point x="230" y="648"/>
      <point x="216" y="668"/>
      <point x="194" y="682" type="curve"/>
      <point x="207" y="667"/>
      <point x="210" y="652"/>
      <point x="210" y="633" type="curve" smooth="yes"/>
      <point x="210" y="67" type="line" smooth="yes"/>
      <point x="210" y="48"/>
      <point x="207" y="33"/>
      <point x="194" y="18" type="curve"/>
      <point x="216" y="32"/>
      <point x="230" y="52"/>
    </contour>
    <contour>
      <point x="83" y="30" type="curve"/>
      <point x="72" y="46"/>
      <point x="70" y="59"/>
      <point x="70" y="78" type="curve" smooth="yes"/>
      <point x="70" y="622" type="line" smooth="yes"/>
      <point x="70" y="641"/>
      <point x="72" y="654"/>
      <point x="83" y="670" type="curve"/>
      <point x="64" y="657"/>
      <point x="50" y="638"/>
      <point x="50" y="610" type="curve" smooth="yes"/>
      <point x="50" y="90" type="line" smooth="yes"/>
      <point x="50" y="62"/>
      <point x="64" y="43"/>
    </contour>
    <contour>
      <point x="190" y="53" type="curve" smooth="yes"/>
      <point x="190" y="480" type="line"/>
      <point x="110" y="108" type="line"/>
      <point x="110" y="53" type="line" smooth="yes"/>
      <point x="110" y="31"/>
      <point x="128" y="13"/>
      <point x="150" y="13" type="curve" smooth="yes"/>
      <point x="172" y="13"/>
      <point x="190" y="31"/>
    </contour>
  </outline>
</glyph>
<glyph name="Thorn" format="1">
  <advance width="295"/>
  <unicode hex="00DE"/>
  <outline>
    <contour>
      <point x="275" y="267" type="line" smooth="yes"/>
      <point x="275" y="211"/>
      <point x="221" y="165"/>
      <point x="155" y="165" type="curve" smooth="yes"/>
      <point x="120" y="165" type="line"/>
      <point x="120" y="18" type="line"/>
      <point x="145" y="18" type="line"/>
      <point x="145" y="0" type="line"/>
      <point x="15" y="0" type="line"/>
      <point x="15" y="18" type="line"/>
      <point x="40" y="18" type="line"/>
      <point x="40" y="682" type="line"/>
      <point x="15" y="682" type="line"/>
      <point x="15" y="700" type="line"/>
      <point x="145" y="700" type="line"/>
      <point x="145" y="682" type="line"/>
      <point x="120" y="682" type="line"/>
      <point x="120" y="565" type="line"/>
      <point x="155" y="565" type="line" smooth="yes"/>
      <point x="221" y="565"/>
      <point x="275" y="519"/>
      <point x="275" y="463" type="curve" smooth="yes"/>
    </contour>
    <contour>
      <point x="235" y="251" type="curve" smooth="yes"/>
      <point x="235" y="479" type="line" smooth="yes"/>
      <point x="235" y="508"/>
      <point x="221" y="528"/>
      <point x="199" y="542" type="curve"/>
      <point x="212" y="527"/>
      <point x="215" y="512"/>
      <point x="215" y="493" type="curve" smooth="yes"/>
      <point x="215" y="237" type="line" smooth="yes"/>
      <point x="215" y="218"/>
      <point x="212" y="203"/>
      <point x="199" y="188" type="curve"/>
      <point x="221" y="202"/>
      <point x="235" y="222"/>
    </contour>
    <contour>
      <point x="195" y="223" type="curve" smooth="yes"/>
      <point x="195" y="507" type="line" smooth="yes"/>
      <point x="195" y="529"/>
      <point x="177" y="547"/>
      <point x="155" y="547" type="curve" smooth="yes"/>
      <point x="120" y="547" type="line"/>
      <point x="120" y="183" type="line"/>
      <point x="155" y="183" type="line" smooth="yes"/>
      <point x="177" y="183"/>
      <point x="195" y="201"/>
    </contour>
    <contour>
      <point x="80" y="18" type="line"/>
      <point x="80" y="682" type="line"/>
      <point x="60" y="682" type="line"/>
      <point x="60" y="18" type="line"/>
    </contour>
  </outline>
</glyph>
<glyph name="germandbls" format="1">
  <advance width="280"/>
  <unicode hex="00DF"/>
  <outline>
    <contour>
      <point x="255" y="102" type="line" smooth="yes"/>
      <point x="255" y="46"/>
      <point x="208" y="0"/>
      <point x="142" y="0" type="curve" smooth="yes"/>
      <point x="132" y="0" type="line"/>
      <point x="132" y="18" type="line"/>
      <point x="142" y="18" type="line" smooth="yes"/>
      <point x="164" y="18"/>
      <point x="177" y="36"/>
      <point x="177" y="58" type="curve" smooth="yes"/>
      <point x="177" y="321" type="line" smooth="yes"/>
      <point x="177" y="343"/>
      <point x="159" y="361"/>
      <point x="137" y="361" type="curve" smooth="yes"/>
      <point x="132" y="361" type="line"/>
      <point x="132" y="379" type="line"/>
      <point x="137" y="379" type="line" smooth="yes"/>
      <point x="159" y="379"/>
      <point x="177" y="397"/>
      <point x="177" y="419" type="curve" smooth="yes"/>
      <point x="177" y="647" type="line" smooth="yes"/>
      <point x="177" y="669"/>
      <point x="166" y="687"/>
      <point x="144" y="687" type="curve" smooth="yes"/>
      <point x="122" y="687"/>
      <point x="111" y="669"/>
      <point x="111" y="647" type="curve" smooth="yes"/>
      <point x="111" y="0" type="line"/>
      <point x="8" y="0" type="line"/>
      <point x="8" y="18" type="line"/>
      <point x="33" y="18" type="line"/>
      <point x="33" y="603" type="line" smooth="yes"/>
      <point x="33" y="659"/>
      <point x="78" y="705"/>
      <point x="144" y="705" type="curve" smooth="yes"/>
      <point x="210" y="705"/>
      <point x="255" y="659"/>
      <point x="255" y="603" type="curve" smooth="yes"/>
      <point x="255" y="463" type="line" smooth="yes"/>
      <point x="255" y="422"/>
      <point x="226" y="386"/>
      <point x="185" y="370" type="curve"/>
      <point x="226" y="353"/>
      <point x="255" y="318"/>
      <point x="255" y="277" type="curve" smooth="yes"/>
    </contour>
    <contour>
      <point x="216" y="447" type="curve" smooth="yes"/>
      <point x="216" y="619" type="line" smooth="yes"/>
      <point x="216" y="650"/>
      <point x="202" y="669"/>
      <point x="180" y="683" type="curve"/>
      <point x="193" y="669"/>
      <point x="196" y="652"/>
      <point x="196" y="633" type="curve" smooth="yes"/>
      <point x="196" y="433" type="line" smooth="yes"/>
      <point x="196" y="414"/>
      <point x="193" y="399"/>
      <point x="180" y="384" type="curve"/>
      <point x="202" y="398"/>
      <point x="216" y="418"/>
    </contour>
    <contour>
      <point x="85" y="672" type="curve"/>
      <point x="66" y="659"/>
      <point x="52" y="638"/>
      <point x="52" y="610" type="curve" smooth="yes"/>
      <point x="52" y="18" type="line"/>
      <point x="72" y="18" type="line"/>
      <point x="72" y="622" type="line" smooth="yes"/>
      <point x="72" y="641"/>
      <point x="74" y="656"/>
    </contour>
    <contour>
      <point x="216" y="86" type="curve" smooth="yes"/>
      <point x="216" y="293" type="line" smooth="yes"/>
      <point x="216" y="322"/>
      <point x="202" y="342"/>
      <point x="180" y="356" type="curve"/>
      <point x="193" y="341"/>
      <point x="196" y="326"/>
      <point x="196" y="307" type="curve" smooth="yes"/>
      <point x="196" y="72" type="line" smooth="yes"/>
      <point x="196" y="53"/>
      <point x="194" y="37"/>
      <point x="181" y="22" type="curve"/>
      <point x="203" y="36"/>
      <point x="216" y="57"/>
    </contour>
  </outline>
</glyph>
<glyph name="ae" format="1">
  <advance width="412"/>
  <unicode hex="00E6"/>
  <outline>
    <contour>
      <point x="387" y="97" type="line" smooth="yes"/>
      <point x="387" y="41"/>
      <point x="340" y="-5"/>
      <point x="274" y="-5" type="curve" smooth="yes"/>
      <point x="245" y="-5"/>
      <point x="219" y="9"/>
      <point x="200" y="24" type="curve"/>
      <point x="183" y="8"/>
      <point x="161" y="-5"/>
      <point x="130" y="-5" type="curve" smooth="yes"/>
      <point x="64" y="-5"/>
      <point x="22" y="36"/>
      <point x="22" y="97" type="curve" smooth="yes"/>
      <point x="22" y="202" type="line" smooth="yes"/>
      <point x="22" y="273"/>
      <point x="72" y="299"/>
      <point x="137" y="299" type="curve" smooth="yes"/>
      <point x="161" y="299" type="line"/>
      <point x="161" y="467" type="line" smooth="yes"/>
      <point x="161" y="489"/>
      <point x="154" y="507"/>
      <point x="132" y="507" type="curve" smooth="yes"/>
      <point x="110" y="507"/>
      <point x="103" y="489"/>
      <point x="103" y="467" type="curve" smooth="yes"/>
      <point x="103" y="361" type="line"/>
      <point x="25" y="361" type="line"/>
      <point x="25" y="423" type="line" smooth="yes"/>
      <point x="25" y="484"/>
      <point x="66" y="525"/>
      <point x="132" y="525" type="curve" smooth="yes"/>
      <point x="161" y="525"/>
      <point x="185" y="517"/>
      <point x="203" y="503" type="curve"/>
      <point x="222" y="517"/>
      <point x="246" y="525"/>
      <point x="274" y="525" type="curve" smooth="yes"/>
      <point x="340" y="525"/>
      <point x="387" y="479"/>
      <point x="387" y="423" type="curve" smooth="yes"/>
      <point x="387" y="252" type="line"/>
      <point x="239" y="252" type="line"/>
      <point x="239" y="53" type="line" smooth="yes"/>
      <point x="239" y="31"/>
      <point x="252" y="13"/>
      <point x="274" y="13" type="curve" smooth="yes"/>
      <point x="296" y="13"/>
      <point x="309" y="31"/>
      <point x="309" y="53" type="curve" smooth="yes"/>
      <point x="309" y="159" type="line"/>
      <point x="387" y="159" type="line"/>
    </contour>
    <contour>
      <point x="348" y="270" type="line"/>
      <point x="348" y="439" type="line" smooth="yes"/>
      <point x="348" y="470"/>
      <point x="334" y="489"/>
      <point x="312" y="503" type="curve"/>
      <point x="325" y="489"/>
      <point x="328" y="472"/>
      <point x="328" y="453" type="curve" smooth="yes"/>
      <point x="328" y="270" type="line"/>
    </contour>
    <contour>
      <point x="309" y="270" type="line"/>
      <point x="309" y="467" type="line" smooth="yes"/>
      <point x="309" y="489"/>
      <point x="296" y="507"/>
      <point x="274" y="507" type="curve" smooth="yes"/>
      <point x="252" y="507"/>
      <point x="239" y="489"/>
      <point x="239" y="467" type="curve" smooth="yes"/>
      <point x="239" y="270" type="line"/>
    </contour>
    <contour>
      <point x="77" y="495" type="curve"/>
      <point x="58" y="482"/>
      <point x="44" y="458"/>
      <point x="44" y="430" type="curve" smooth="yes"/>
      <point x="44" y="379" type="line"/>
      <point x="64" y="379" type="line"/>
      <point x="64" y="442" type="line" smooth="yes"/>
      <point x="64" y="461"/>
      <point x="66" y="479"/>
    </contour>
    <contour>
      <point x="213" y="496" type="curve"/>
      <point x="194" y="483"/>
      <point x="180" y="462"/>
      <point x="180" y="434" type="curve" smooth="yes"/>
      <point x="180" y="64" type="line" smooth="yes"/>
      <point x="180" y="45"/>
      <point x="178" y="29"/>
      <point x="165" y="14" type="curve"/>
      <point x="187" y="28"/>
      <point x="200" y="49"/>
      <point x="200" y="78" type="curve" smooth="yes"/>
      <point x="200" y="446" type="line" smooth="yes"/>
      <point x="200" y="465"/>
      <point x="202" y="480"/>
    </contour>
    <contour>
      <point x="348" y="81" type="curve" smooth="yes"/>
      <point x="348" y="141" type="line"/>
      <point x="328" y="141" type="line"/>
      <point x="328" y="67" type="line" smooth="yes"/>
      <point x="328" y="48"/>
      <point x="325" y="31"/>
      <point x="312" y="17" type="curve"/>
      <point x="334" y="31"/>
      <point x="348" y="50"/>
    </contour>
    <contour>
      <point x="161" y="53" type="curve" smooth="yes"/>
      <point x="161" y="281" type="line"/>
      <point x="138" y="281" type="line" smooth="yes"/>
      <point x="112" y="281"/>
      <point x="100" y="266"/>
      <point x="100" y="241" type="curve" smooth="yes"/>
      <point x="100" y="53" type="line" smooth="yes"/>
      <point x="100" y="31"/>
      <point x="108" y="13"/>
      <point x="130" y="13" type="curve" smooth="yes"/>
      <point x="152" y="13"/>
      <point x="161" y="31"/>
    </contour>
    <contour>
      <point x="74" y="25" type="curve"/>
      <point x="63" y="41"/>
      <point x="61" y="59"/>
      <point x="61" y="78" type="curve" smooth="yes"/>
      <point x="61" y="219" type="line" smooth="yes"/>
      <point x="61" y="238"/>
      <point x="63" y="255"/>
      <point x="74" y="271" type="curve"/>
      <point x="53" y="260"/>
      <point x="41" y="234"/>
      <point x="41" y="207" type="curve" smooth="yes"/>
      <point x="41" y="90" type="line" smooth="yes"/>
      <point x="41" y="62"/>
      <point x="55" y="38"/>
    </contour>
  </outline>
</glyph>
<glyph name="ccedilla" format="1">
  <advance width="273"/>
  <unicode hex="00E7"/>
  <outline>
    <contour>
      <point x="251" y="97" type="line" smooth="yes"/>
      <point x="251" y="42"/>
      <point x="205" y="-4"/>
      <point x="140" y="-5" type="curve"/>
      <point x="126" y="-28" type="line"/>
      <point x="143" y="-28" type="line" smooth="yes"/>
      <point x="180" y="-28"/>
      <point x="204" y="-49"/>
      <point x="204" y="-84" type="curve" smooth="yes"/>
      <point x="204" y="-119"/>
      <point x="180" y="-140"/>
      <point x="143" y="-140" type="curve" smooth="yes"/>
      <point x="89" y="-140" type="line"/>
      <point x="89" y="-125" type="line"/>
      <point x="108" y="-125" type="line" smooth="yes"/>
      <point x="133" y="-125"/>
      <point x="139" y="-109"/>
      <point x="139" y="-84" type="curve" smooth="yes"/>
      <point x="139" y="-59"/>
      <point x="133" y="-43"/>
      <point x="108" y="-43" type="curve" smooth="yes"/>
      <point x="104" y="-43" type="line"/>
      <point x="104" y="-30" type="line"/>
      <point x="119" y="-4" type="line"/>
      <point x="63" y="4"/>
      <point x="25" y="47"/>
      <point x="25" y="97" type="curve" smooth="yes"/>
      <point x="25" y="423" type="line" smooth="yes"/>
      <point x="25" y="479"/>
      <point x="72" y="525"/>
      <point x="138" y="525" type="curve" smooth="yes"/>
      <point x="204" y="525"/>
      <point x="251" y="479"/>
      <point x="251" y="423" type="curve" smooth="yes"/>
      <point x="251" y="361" type="line"/>
      <point x="173" y="361" type="line"/>
      <point x="173" y="467" type="line" smooth="yes"/>
      <point x="173" y="489"/>
      <point x="160" y="507"/>
      <point x="138" y="507" type="curve" smooth="yes"/>
      <point x="116" y="507"/>
      <point x="103" y="489"/>
      <point x="103" y="467" type="curve" smooth="yes"/>
      <point x="103" y="53" type="line" smooth="yes"/>
      <point x="103" y="31"/>
      <point x="116" y="13"/>
      <point x="138" y="13" type="curve" smooth="yes"/>
      <point x="160" y="13"/>
      <point x="173" y="31"/>
      <point x="173" y="53" type="curve" smooth="yes"/>
      <point x="173" y="159" type="line"/>
      <point x="251" y="159" type="line"/>
    </contour>
    <contour>
      <point x="212" y="379" type="line"/>
      <point x="212" y="439" type="line" smooth="yes"/>
      <point x="212" y="470"/>
      <point x="198" y="489"/>
      <point x="176" y="503" type="curve"/>
      <point x="189" y="489"/>
      <point x="192" y="472"/>
      <point x="192" y="453" type="curve" smooth="yes"/>
      <point x="192" y="379" type="line"/>
    </contour>
    <contour>
      <point x="77" y="28" type="curve"/>
      <point x="66" y="44"/>
      <point x="64" y="59"/>
      <point x="64" y="78" type="curve" smooth="yes"/>
      <point x="64" y="442" type="line" smooth="yes"/>
      <point x="64" y="461"/>
      <point x="66" y="476"/>
      <point x="77" y="492" type="curve"/>
      <point x="58" y="479"/>
      <point x="44" y="458"/>
      <point x="44" y="430" type="curve" smooth="yes"/>
      <point x="44" y="90" type="line" smooth="yes"/>
      <point x="44" y="62"/>
      <point x="58" y="41"/>
    </contour>
    <contour>
      <point x="212" y="81" type="curve" smooth="yes"/>
      <point x="212" y="141" type="line"/>
      <point x="192" y="141" type="line"/>
      <point x="192" y="67" type="line" smooth="yes"/>
      <point x="192" y="48"/>
      <point x="189" y="31"/>
      <point x="176" y="17" type="curve"/>
      <point x="198" y="31"/>
      <point x="212" y="50"/>
    </contour>
    <contour>
      <point x="174" y="-84" type="curve" smooth="yes"/>
      <point x="174" y="-58"/>
      <point x="163" y="-43"/>
      <point x="136" y="-39" type="curve"/>
      <point x="153" y="-48"/>
      <point x="157" y="-59"/>
      <point x="157" y="-84" type="curve" smooth="yes"/>
      <point x="157" y="-109"/>
      <point x="153" y="-120"/>
      <point x="136" y="-129" type="curve"/>
      <point x="163" y="-125"/>
      <point x="174" y="-110"/>
    </contour>
  </outline>
</glyph>
<glyph name="oslash" format="1">
  <advance width="276"/>
  <unicode hex="00F8"/>
  <outline>
    <contour>
      <point x="251" y="97" type="line" smooth="yes"/>
      <point x="251" y="41"/>
      <point x="204" y="-5"/>
      <point x="138" y="-5" type="curve" smooth="yes"/>
      <point x="121" y="-5"/>
      <point x="105" y="-2"/>
      <point x="90" y="4" type="curve"/>
      <point x="74" y="-60" type="line"/>
      <point x="50" y="-60" type="line"/>
      <point x="69" y="15" type="line"/>
      <point x="42" y="34"/>
      <point x="25" y="64"/>
      <point x="25" y="97" type="curve" smooth="yes"/>
      <point x="25" y="423" type="line" smooth="yes"/>
      <point x="25" y="479"/>
      <point x="72" y="525"/>
      <point x="138" y="525" type="curve" smooth="yes"/>
      <point x="155" y="525"/>
      <point x="171" y="522"/>
      <point x="186" y="516" type="curve"/>
      <point x="202" y="580" type="line"/>
      <point x="226" y="580" type="line"/>
      <point x="207" y="505" type="line"/>
      <point x="234" y="486"/>
      <point x="251" y="456"/>
      <point x="251" y="423" type="curve" smooth="yes"/>
    </contour>
    <contour>
      <point x="173" y="464" type="line"/>
      <point x="173" y="467" type="line" smooth="yes"/>
      <point x="173" y="489"/>
      <point x="160" y="507"/>
      <point x="138" y="507" type="curve" smooth="yes"/>
      <point x="116" y="507"/>
      <point x="103" y="489"/>
      <point x="103" y="467" type="curve" smooth="yes"/>
      <point x="103" y="160" type="line"/>
    </contour>
    <contour>
      <point x="212" y="81" type="curve" smooth="yes"/>
      <point x="212" y="439" type="line" smooth="yes"/>
      <point x="212" y="470"/>
      <point x="198" y="489"/>
      <point x="176" y="503" type="curve"/>
      <point x="189" y="489"/>
      <point x="192" y="472"/>
      <point x="192" y="453" type="curve" smooth="yes"/>
      <point x="192" y="67" type="line" smooth="yes"/>
      <point x="192" y="48"/>
      <point x="189" y="31"/>
      <point x="176" y="17" type="curve"/>
      <point x="198" y="31"/>
      <point x="212" y="50"/>
    </contour>
    <contour>
      <point x="173" y="53" type="curve" smooth="yes"/>
      <point x="173" y="360" type="line"/>
      <point x="103" y="56" type="line"/>
      <point x="103" y="53" type="line" smooth="yes"/>
      <point x="103" y="31"/>
      <point x="116" y="13"/>
      <point x="138" y="13" type="curve" smooth="yes"/>
      <point x="160" y="13"/>
      <point x="173" y="31"/>
    </contour>
    <contour>
      <point x="77" y="28" type="curve"/>
      <point x="66" y="44"/>
      <point x="64" y="59"/>
      <point x="64" y="78" type="curve" smooth="yes"/>
      <point x="64" y="442" type="line" smooth="yes"/>
      <point x="64" y="461"/>
      <point x="66" y="476"/>
      <point x="77" y="492" type="curve"/>
      <point x="58" y="479"/>
      <point x="44" y="458"/>
      <point x="44" y="430" type="curve" smooth="yes"/>
      <point x="44" y="90" type="line" smooth="yes"/>
      <point x="44" y="62"/>
      <point x="58" y="41"/>
    </contour>
  </outline>
</glyph>
<glyph name="thorn" format="1">
  <advance width="278"/>
  <unicode hex="00FE"/>
  <outline>
    <contour>
      <point x="252" y="87" type="line" smooth="yes"/>
      <point x="252" y="27"/>
      <point x="223" y="-5"/>
      <point x="167" y="-5" type="curve" smooth="yes"/>
      <point x="144" y="-5"/>
      <point x="124" y="1"/>
      <point x="109" y="14" type="curve"/>
      <point x="109" y="-122" type="line"/>
      <point x="134" y="-122" type="line"/>
      <point x="134" y="-140" type="line"/>
      <point x="6" y="-140" type="line"/>
      <point x="6" y="-122" type="line"/>
      <point x="31" y="-122" type="line"/>
      <point x="31" y="682" type="line"/>
      <point x="6" y="682" type="line"/>
      <point x="6" y="700" type="line"/>
      <point x="109" y="700" type="line"/>
      <point x="109" y="506" type="line"/>
      <point x="124" y="519"/>
      <point x="144" y="525"/>
      <point x="167" y="525" type="curve" smooth="yes"/>
      <point x="223" y="525"/>
      <point x="252" y="493"/>
      <point x="252" y="433" type="curve" smooth="yes"/>
    </contour>
    <contour>
      <point x="213" y="70" type="curve" smooth="yes"/>
      <point x="213" y="450" type="line" smooth="yes"/>
      <point x="213" y="483"/>
      <point x="199" y="498"/>
      <point x="179" y="506" type="curve"/>
      <point x="190" y="495"/>
      <point x="193" y="480"/>
      <point x="193" y="459" type="curve" smooth="yes"/>
      <point x="193" y="61" type="line" smooth="yes"/>
      <point x="193" y="40"/>
      <point x="190" y="25"/>
      <point x="179" y="14" type="curve"/>
      <point x="199" y="22"/>
      <point x="213" y="37"/>
    </contour>
    <contour>
      <point x="174" y="53" type="curve" smooth="yes"/>
      <point x="174" y="467" type="line" smooth="yes"/>
      <point x="174" y="489"/>
      <point x="167" y="505"/>
      <point x="145" y="505" type="curve" smooth="yes"/>
      <point x="131" y="505"/>
      <point x="120" y="499"/>
      <point x="109" y="488" type="curve"/>
      <point x="109" y="32" type="line"/>
      <point x="120" y="21"/>
      <point x="131" y="15"/>
      <point x="145" y="15" type="curve" smooth="yes"/>
      <point x="167" y="15"/>
      <point x="174" y="31"/>
    </contour>
    <contour>
      <point x="70" y="-122" type="line"/>
      <point x="70" y="682" type="line"/>
      <point x="50" y="682" type="line"/>
      <point x="50" y="-122" type="line"/>
    </contour>
  </outline>
</glyph>
<glyph name="OE" format="1">
  <advance width="440"/>
  <unicode hex="0152"/>
  <outline>
    <contour>
      <point x="415" y="0" type="line"/>
      <point x="150" y="0" type="line" smooth="yes"/>
      <point x="84" y="0"/>
      <point x="30" y="46"/>
      <point x="30" y="102" type="curve" smooth="yes"/>
      <point x="30" y="598" type="line" smooth="yes"/>
      <point x="30" y="654"/>
      <point x="84" y="700"/>
      <point x="150" y="700" type="curve" smooth="yes"/>
      <point x="415" y="700" type="line"/>
      <point x="415" y="490" type="line"/>
      <point x="335" y="490" type="line"/>
      <point x="335" y="682" type="line"/>
      <point x="270" y="682" type="line"/>
      <point x="270" y="379" type="line"/>
      <point x="365" y="379" type="line"/>
      <point x="365" y="361" type="line"/>
      <point x="270" y="361" type="line"/>
      <point x="270" y="18" type="line"/>
      <point x="335" y="18" type="line"/>
      <point x="335" y="210" type="line"/>
      <point x="415" y="210" type="line"/>
    </contour>
    <contour>
      <point x="375" y="508" type="line"/>
      <point x="375" y="682" type="line"/>
      <point x="355" y="682" type="line"/>
      <point x="355" y="508" type="line"/>
    </contour>
    <contour>
      <point x="230" y="18" type="line"/>
      <point x="230" y="682" type="line"/>
      <point x="210" y="682" type="line"/>
      <point x="210" y="18" type="line"/>
    </contour>
    <contour>
      <point x="190" y="18" type="line"/>
      <point x="190" y="682" type="line"/>
      <point x="150" y="682" type="line" smooth="yes"/>
      <point x="128" y="682"/>
      <point x="110" y="664"/>
      <point x="110" y="642" type="curve" smooth="yes"/>
      <point x="110" y="58" type="line" smooth="yes"/>
      <point x="110" y="36"/>
      <point x="128" y="18"/>
      <point x="150" y="18" type="curve" smooth="yes"/>
    </contour>
    <contour>
      <point x="375" y="18" type="line"/>
      <point x="375" y="192" type="line"/>
      <point x="355" y="192" type="line"/>
      <point x="355" y="18" type="line"/>
    </contour>
    <contour>
      <point x="83" y="35" type="curve"/>
      <point x="72" y="51"/>
      <point x="70" y="64"/>
      <point x="70" y="83" type="curve" smooth="yes"/>
      <point x="70" y="617" type="line" smooth="yes"/>
      <point x="70" y="636"/>
      <point x="72" y="649"/>
      <point x="83" y="665" type="curve"/>
      <point x="64" y="652"/>
      <point x="50" y="633"/>
      <point x="50" y="605" type="curve" smooth="yes"/>
      <point x="50" y="95" type="line" smooth="yes"/>
      <point x="50" y="67"/>
      <point x="64" y="48"/>
    </contour>
  </outline>
</glyph>
